<svg width="22" height="22" viewBox="0 0 22 22" fill="none" xmlns="http://www.w3.org/2000/svg">
<path d="M0.6875 11C0.6875 13.0281 1.27187 14.9188 2.26875 16.5H19.6969C20.6937 14.9188 21.2781 13.0281 21.2781 11C21.2781 8.97187 20.6937 7.08125 19.6969 5.5H2.26875C1.27187 7.08125 0.6875 8.97187 0.6875 11Z" fill="#F9F9F9"/>
<path d="M19.7311 5.5C17.9092 2.6125 14.6779 0.6875 10.9998 0.6875C7.32168 0.6875 4.09043 2.6125 2.26855 5.5H19.7311Z" fill="#B4D7EE"/>
<path d="M2.26855 16.5C4.09043 19.3875 7.32168 21.3125 10.9998 21.3125C14.6779 21.3125 17.9092 19.3875 19.7311 16.5H2.26855Z" fill="#B4D7EE"/>
<path d="M15.7096 10.9312L12.8908 10.8281V10.7937C13.3377 10.725 13.6814 10.45 14.1627 10.4844C14.7471 10.5531 15.0908 10.2094 15.2971 10.1406C15.5377 10.0719 15.6752 10.2094 15.6752 10.1406C15.7096 10.0719 15.5377 9.93437 15.1939 9.96875C14.8846 10.0031 14.7814 10.2781 14.0596 10.2094C13.4408 10.175 13.2346 10.4156 12.7877 10.4156V10.3813L15.3314 9.2125C15.3314 9.2125 15.4002 9.17813 15.4002 9.10938C15.3658 9.04062 15.2971 9.075 15.2971 9.075L12.7189 10.1062V10.0719C13.0971 9.83125 13.3033 9.45313 13.7846 9.31563C14.3346 9.14375 14.5408 8.73125 14.7127 8.55937C14.8846 8.3875 15.0908 8.49063 15.0908 8.42188C15.0908 8.35312 14.8846 8.28438 14.6096 8.45625C14.3346 8.62813 14.3346 8.90312 13.6471 9.10938C13.0627 9.28125 12.9596 9.59062 12.5471 9.79688L12.5127 9.7625L14.4377 7.7C14.4377 7.7 14.5064 7.63125 14.4721 7.59688C14.4377 7.5625 14.3689 7.63125 14.3689 7.63125L12.3064 9.55625L12.2721 9.52188C12.5471 9.14375 12.5814 8.73125 12.9596 8.42188C13.4064 8.04375 13.4064 7.59688 13.5096 7.39062C13.6127 7.18437 13.8189 7.18438 13.7846 7.11563C13.7502 7.04688 13.5439 7.08125 13.3377 7.32187C13.1314 7.59687 13.2346 7.8375 12.7189 8.28438C12.2721 8.6625 12.2721 9.00625 11.9971 9.31563C11.9971 9.31563 11.9627 9.31563 11.9627 9.28125L12.9252 6.63437C12.9252 6.63437 12.9596 6.56563 12.8908 6.53125C12.8221 6.49687 12.7877 6.6 12.7877 6.6L11.6189 9.14375H11.5846C11.6877 8.69688 11.5846 8.28437 11.7908 7.87187C12.0658 7.35625 11.8939 6.90938 11.8939 6.70312C11.9283 6.4625 12.1002 6.39375 12.0658 6.35938C12.0314 6.29062 11.8252 6.42813 11.7221 6.7375C11.6533 7.04688 11.8252 7.25312 11.5158 7.87187C11.2408 8.42187 11.3783 8.69687 11.2408 9.10938H11.2064L11.1033 6.29062C11.1033 6.29062 11.1033 6.1875 11.0346 6.1875C10.9658 6.1875 10.9658 6.29062 10.9658 6.29062L10.8627 9.10938H10.8283C10.7596 8.6625 10.4846 8.31875 10.5189 7.8375C10.5877 7.25312 10.2439 6.90938 10.1752 6.70312C10.1064 6.49687 10.2439 6.325 10.1752 6.325C10.1064 6.29062 9.96895 6.4625 10.0033 6.80625C10.0377 7.11562 10.3127 7.21875 10.2439 7.94063C10.2096 8.55938 10.4502 8.76562 10.4502 9.2125H10.4158L9.24707 6.66875C9.24707 6.66875 9.2127 6.6 9.14395 6.6C9.0752 6.63438 9.10957 6.70312 9.10957 6.70312L10.0721 9.35H10.0377C9.79707 8.97188 9.41895 8.76563 9.28145 8.28438C9.10957 7.73438 8.69707 7.52812 8.5252 7.35625C8.35332 7.18437 8.45645 6.97812 8.3877 6.97812C8.31895 6.97812 8.2502 7.18438 8.42207 7.45938C8.59395 7.73438 8.86895 7.73438 9.0752 8.42188C9.24707 9.00625 9.55645 9.10938 9.7627 9.52188L9.72832 9.55625L7.66582 7.63125C7.66582 7.63125 7.59707 7.5625 7.5627 7.59688C7.52832 7.63125 7.59707 7.7 7.59707 7.7L9.52207 9.7625L9.4877 9.79688C9.10957 9.52187 8.69707 9.4875 8.3877 9.10938C8.00957 8.6625 7.5627 8.6625 7.35645 8.55937C7.1502 8.45625 7.1502 8.25 7.08145 8.28438C7.0127 8.31875 7.04707 8.525 7.2877 8.73125C7.5627 8.9375 7.80332 8.83438 8.2502 9.35C8.62832 9.79688 8.97207 9.79687 9.28145 10.0719C9.28145 10.0719 9.28145 10.1062 9.24707 10.1062L6.6002 9.14375C6.6002 9.14375 6.53145 9.10938 6.49707 9.17813C6.4627 9.24688 6.56582 9.28125 6.56582 9.28125L9.10957 10.45V10.4844C8.6627 10.3812 8.2502 10.4844 7.8377 10.2781C7.32207 10.0031 6.8752 10.175 6.66895 10.175C6.42832 10.1406 6.35957 9.96875 6.3252 10.0031C6.25645 10.0375 6.39395 10.2438 6.70332 10.3469C7.0127 10.4156 7.21895 10.2438 7.8377 10.5531C8.3877 10.8281 8.6627 10.6906 9.0752 10.8281V10.8625L6.25645 10.9656C6.25645 10.9656 6.15332 10.9656 6.15332 11.0344C6.15332 11.1031 6.25645 11.1031 6.25645 11.1031L9.0752 11.2062V11.2406C8.62832 11.3094 8.28457 11.5844 7.80332 11.55C7.21895 11.4812 6.8752 11.825 6.66895 11.8937C6.42832 11.9625 6.29082 11.825 6.29082 11.8937C6.25645 11.9625 6.42832 12.1 6.77207 12.0656C7.11582 12.0312 7.18457 11.7906 7.90645 11.825C8.5252 11.8594 8.73145 11.6187 9.17832 11.6187V11.6531L6.63457 12.8219C6.63457 12.8219 6.56582 12.8562 6.56582 12.925C6.56582 12.9937 6.66895 12.9594 6.66895 12.9594L9.31582 11.9969V12.0312C8.9377 12.2719 8.73145 12.65 8.2502 12.7875C7.7002 12.9594 7.49395 13.3719 7.32207 13.5438C7.1502 13.7156 6.94395 13.6125 6.94395 13.6812C6.94395 13.75 7.1502 13.8188 7.4252 13.6469C7.7002 13.475 7.7002 13.2 8.3877 12.9937C8.97207 12.8219 9.0752 12.5125 9.4877 12.3062L9.52207 12.3406L7.59707 14.4031C7.59707 14.4031 7.52832 14.4719 7.5627 14.5063C7.59707 14.5406 7.66582 14.4719 7.66582 14.4719L9.72832 12.5469L9.7627 12.5812C9.4877 12.9594 9.45332 13.3719 9.0752 13.6812C8.62832 14.0594 8.62832 14.5062 8.5252 14.7125C8.42207 14.9187 8.21582 14.9187 8.2502 14.9875C8.28457 15.0562 8.49082 15.0219 8.69707 14.7812C8.90332 14.5406 8.8002 14.2656 9.31582 13.8188C9.7627 13.4406 9.7627 13.0969 10.0377 12.7875C10.0377 12.7875 10.0721 12.7875 10.0721 12.8219L9.10957 15.4688C9.10957 15.4688 9.0752 15.5375 9.14395 15.5719C9.2127 15.6062 9.24707 15.5031 9.24707 15.5031L10.4158 12.9594H10.4502C10.3471 13.4063 10.4502 13.8188 10.2439 14.2313C9.96895 14.7469 10.1408 15.1937 10.1064 15.4C10.0721 15.6406 9.9002 15.7094 9.93457 15.7437C9.96895 15.8125 10.1752 15.675 10.2783 15.3656C10.3471 15.0563 10.1752 14.8844 10.4846 14.2313C10.7596 13.6813 10.6221 13.4062 10.7596 12.9937H10.7939L10.8971 15.8125C10.8971 15.8125 10.8971 15.9156 10.9658 15.9156C11.0346 15.9156 11.0346 15.8125 11.0346 15.8125L11.1377 12.9937H11.1721C11.2408 13.4406 11.5158 13.7844 11.4814 14.2656C11.4127 14.85 11.7564 15.1937 11.8252 15.4C11.8939 15.6406 11.7564 15.7781 11.8252 15.7781C11.8939 15.8125 12.0314 15.6406 11.9971 15.2969C11.9627 14.9875 11.6877 14.8844 11.7564 14.1625C11.7908 13.5438 11.5502 13.3375 11.5502 12.8906H11.5846L12.7533 15.4344C12.7533 15.4344 12.7877 15.5031 12.8564 15.5031C12.9252 15.4687 12.8908 15.4 12.8908 15.4L11.8939 12.7188H11.9283C12.1689 13.0969 12.5471 13.3031 12.6846 13.7844C12.8564 14.3344 13.2689 14.5406 13.4408 14.7125C13.6127 14.8844 13.5096 15.0906 13.5783 15.0906C13.6471 15.0906 13.7158 14.8844 13.5439 14.6094C13.3721 14.3344 13.0971 14.3344 12.8908 13.6469C12.7189 13.0625 12.4096 12.9594 12.2033 12.5469L12.2377 12.5125L14.3002 14.4375C14.3002 14.4375 14.3689 14.5062 14.4033 14.4719C14.4377 14.4375 14.3689 14.3687 14.3689 14.3687L12.4439 12.3062L12.4783 12.2719C12.8564 12.5469 13.2689 12.5813 13.5783 12.9594C13.9564 13.4063 14.4033 13.4062 14.6096 13.5094C14.8158 13.6125 14.8158 13.8187 14.8846 13.7844C14.9533 13.75 14.9189 13.5437 14.6783 13.3375C14.4033 13.1312 14.1627 13.2344 13.7158 12.7188C13.3377 12.2719 12.9939 12.2719 12.6846 11.9625C12.6846 11.9625 12.6846 11.9281 12.7189 11.9281L15.3658 12.8906C15.3658 12.8906 15.4346 12.925 15.4689 12.8563C15.5033 12.7875 15.4002 12.7531 15.4002 12.7531L12.8564 11.5844V11.55C13.3033 11.6531 13.7158 11.55 14.1283 11.7563C14.6439 12.0313 15.0908 11.8594 15.2971 11.8594C15.5377 11.8938 15.6064 12.0656 15.6408 12.0312C15.7096 11.9969 15.5721 11.7906 15.2627 11.6875C14.9533 11.6187 14.7471 11.7906 14.1283 11.4813C13.5783 11.2063 13.3033 11.3437 12.8908 11.2062V11.1719L15.7096 11.0688C15.7096 11.0688 15.8127 11.0688 15.8127 11C15.8127 10.9312 15.7096 10.9312 15.7096 10.9312Z" fill="#F6B40E"/>
<path d="M12.0314 10.7595C11.9283 10.6564 11.7908 10.5876 11.6533 10.5876C11.5158 10.5876 11.4127 10.6564 11.3096 10.7595C11.4814 10.897 11.7908 10.897 12.0314 10.7595ZM11.9283 10.7251C11.8596 10.7939 11.7908 10.8283 11.7221 10.8283C11.7564 10.7939 11.7908 10.7595 11.7908 10.7251C11.7908 10.6908 11.7564 10.6564 11.7221 10.622C11.8252 10.6564 11.8939 10.6908 11.9283 10.7251ZM11.5502 10.622C11.5158 10.6564 11.5158 10.6908 11.5158 10.7251C11.5158 10.7595 11.5502 10.8283 11.5846 10.8283C11.5158 10.8283 11.4471 10.7939 11.3783 10.7251C11.4471 10.6908 11.4814 10.6564 11.5502 10.622Z" fill="#85340A"/>
<path d="M11.6871 10.4844C11.4809 10.4844 11.4465 10.5187 11.3777 10.5875C11.2746 10.6562 11.2402 10.6563 11.2402 10.6563C11.2402 10.6563 11.2402 10.725 11.2746 10.6906C11.309 10.6906 11.3777 10.6562 11.4465 10.5875C11.5496 10.5187 11.6184 10.5188 11.7215 10.5188C11.9965 10.5188 12.134 10.725 12.1684 10.725C12.2027 10.725 11.9621 10.4844 11.6871 10.4844Z" fill="#85340A"/>
<path d="M11.1034 10.4499C11.069 10.5187 11.069 10.5531 11.069 10.6218C11.0347 10.8281 11.069 11.0687 11.2065 11.3093C11.2065 11.3093 11.2409 11.2749 11.2753 11.2749C11.1378 11.1031 11.1034 10.8968 11.1034 10.7249C11.1034 10.6218 11.1722 10.5531 11.2065 10.4843C11.4472 10.2781 11.8597 10.3124 12.2034 10.5874C11.894 10.1406 11.4472 10.1749 11.1034 10.4499Z" fill="#85340A"/>
<path d="M11.4468 10.8966C11.3437 10.8279 11.3093 10.7935 11.275 10.7935C11.2406 10.7935 11.2406 10.8279 11.3781 10.8966C11.5156 10.9654 11.7906 10.9998 12.0312 10.7935C11.7562 10.931 11.55 10.931 11.4468 10.8966Z" fill="#85340A"/>
<path d="M11.2754 11.447C11.241 11.447 11.2066 11.4126 11.1723 11.3783C11.1723 11.4126 11.1035 11.4814 11.0004 11.4814C10.8973 11.4814 10.8285 11.3783 10.8285 11.3783C10.8285 11.4126 10.7941 11.447 10.7254 11.447C10.691 11.447 10.6223 11.4126 10.6223 11.3439C10.6223 11.3095 10.6566 11.2751 10.691 11.2751C10.6223 11.2751 10.5879 11.3439 10.5879 11.4126C10.5879 11.4814 10.6566 11.5501 10.7254 11.5501C10.7598 11.5501 10.7941 11.5158 10.8285 11.4814C10.8629 11.5158 10.966 11.5158 11.0004 11.5158H11.0348C11.0691 11.5158 11.1379 11.5158 11.2066 11.4814C11.241 11.5158 11.2754 11.5501 11.3098 11.5501C11.3785 11.5501 11.4473 11.4814 11.4473 11.4126C11.4473 11.3439 11.4129 11.3095 11.3441 11.2751C11.3785 11.2751 11.4129 11.3095 11.4129 11.3439C11.3785 11.4126 11.3441 11.447 11.2754 11.447Z" fill="#85340A"/>
<path d="M10.9998 11.7563C11.0686 11.7563 11.1373 11.6875 11.2404 11.7563C11.3436 11.825 11.4123 11.8594 11.4811 11.8937C11.3436 11.7906 11.2748 11.6875 11.1373 11.6875C11.1029 11.6875 11.0342 11.6875 10.9998 11.7219C10.9311 11.6875 10.8967 11.6875 10.8623 11.6875C10.7248 11.6875 10.6561 11.825 10.5186 11.8937C10.5873 11.8594 10.6561 11.7906 10.7592 11.7563C10.8623 11.7219 10.9311 11.7563 10.9998 11.7563Z" fill="#85340A"/>
<path d="M10.9998 11.8591C10.9311 11.8591 10.8967 11.8248 10.7936 11.8591C10.7248 11.8591 10.6561 11.8591 10.5529 11.8935H10.5186C10.8279 11.9279 10.6904 12.0998 10.9998 12.0998C11.3092 12.0998 11.1717 11.9279 11.4811 11.8935H11.4123C11.1373 11.7904 11.1029 11.8591 10.9998 11.8591ZM10.9998 12.031C10.7592 12.031 10.8279 11.8591 10.5529 11.8591C10.8279 11.7904 10.8623 11.8935 10.9998 11.8935C11.1029 11.8935 11.1717 11.8248 11.4467 11.8591C11.1717 11.8935 11.2404 12.031 10.9998 12.031Z" fill="#85340A"/>
<path d="M10.9996 12.0999C10.8621 12.0999 10.7246 12.203 10.7246 12.3749C10.759 12.2374 10.8621 12.1687 10.9996 12.1687C11.1371 12.1687 11.2402 12.2718 11.2746 12.3749C11.2746 12.203 11.1371 12.0999 10.9996 12.0999Z" fill="#85340A"/>
<path d="M10.7937 10.4843C10.8625 10.5531 10.8969 10.6562 10.8969 10.7249C10.9312 10.8968 10.8625 11.0687 10.725 11.2749C10.725 11.2749 10.7594 11.2749 10.7937 11.3093C10.8969 11.0687 10.9656 10.8624 10.9312 10.6218C10.9312 10.5531 10.8969 10.5187 10.8969 10.4499C10.5875 10.1749 10.1406 10.1406 9.79688 10.5874C10.1406 10.2781 10.5875 10.2437 10.7937 10.4843Z" fill="#85340A"/>
<path d="M10.5873 10.6215C10.6905 10.6902 10.7248 10.7246 10.7592 10.7246C10.7936 10.7246 10.7936 10.6902 10.7936 10.6902C10.7936 10.6902 10.7248 10.6902 10.6561 10.6215C10.553 10.5527 10.5186 10.5184 10.3467 10.5184C10.0373 10.5184 9.86547 10.759 9.89985 10.759C9.93422 10.759 10.0717 10.5527 10.3467 10.5527C10.4155 10.5527 10.5186 10.5527 10.5873 10.6215Z" fill="#85340A"/>
<path d="M10.0029 10.7595C10.0717 10.8283 10.2092 10.8626 10.3467 10.8626C10.4498 10.8626 10.5873 10.8283 10.6904 10.7595C10.5873 10.6564 10.4498 10.5876 10.3123 10.5876C10.2092 10.5876 10.0717 10.6564 10.0029 10.7595ZM10.0717 10.7595C10.1404 10.6908 10.2092 10.622 10.2779 10.622C10.2436 10.6564 10.2092 10.6908 10.2092 10.7251C10.2092 10.7939 10.2436 10.8283 10.2779 10.8283C10.2092 10.8626 10.1061 10.8283 10.0717 10.7595ZM10.5873 10.7251C10.5529 10.7595 10.4842 10.7939 10.4154 10.8283C10.4498 10.7939 10.4498 10.7595 10.4498 10.7251C10.4498 10.6908 10.4154 10.6564 10.4154 10.622C10.5186 10.6564 10.5873 10.6908 10.5873 10.7251Z" fill="#85340A"/>
<path d="M10.7592 10.7935C10.7248 10.7935 10.6904 10.8279 10.5873 10.8966C10.4842 10.9654 10.2779 10.9654 10.0029 10.8279C10.2436 11.0341 10.5186 10.9998 10.6561 10.931C10.7936 10.8279 10.7936 10.7935 10.7592 10.7935Z" fill="#85340A"/>
</svg>
