<svg width="112" height="111" viewBox="0 0 112 111" fill="none" xmlns="http://www.w3.org/2000/svg">
<path d="M81.5455 51.64C80.9638 48.126 79.0909 43.9375 73.4721 43.9375C72.6708 43.9375 71.9863 44.5102 71.8522 45.2931L70.7738 51.5824C70.3477 54.0671 69.763 56.4338 69.0365 58.617C67.0247 64.6628 64.4861 67.7617 59.9824 69.6708C57.8186 70.5878 56.0616 71.3724 55.359 71.6885H46.9371C46.0293 71.6885 45.2939 72.4174 45.2939 73.3171V102.816C45.2939 103.716 46.0295 104.445 46.9371 104.445H55.1341L58.6654 107.278C61.6299 109.657 65.363 110.967 69.1776 110.967H79.1891C80.0969 110.967 80.8323 110.238 80.8323 109.338C80.8323 108.729 80.4953 108.2 79.9967 107.921V75.399H77.9527L81.3928 58.2185C81.8441 55.9668 81.8953 53.7538 81.5455 51.64Z" fill="#F7B081"/>
<path d="M46.9373 68.7578H34.1698C33.262 68.7578 32.5265 69.4869 32.5265 70.3863V105.208C32.5265 106.107 33.2622 106.836 34.1698 106.836H46.9373C47.8451 106.836 48.5806 106.107 48.5806 105.208V70.3866C48.5808 69.4868 47.8449 68.7578 46.9373 68.7578Z" fill="#EFE7E4"/>
<path d="M32.5265 100.347V105.208C32.5265 106.108 33.2622 106.836 34.1698 106.836H46.9373C47.8451 106.836 48.5806 106.108 48.5806 105.208V100.347H32.5265Z" fill="#D8D1D0"/>
<path d="M75.5708 106.308C75.5708 103.717 77.6902 101.616 80.3049 101.616C77.6902 101.616 75.5708 99.5159 75.5708 96.9243C75.5708 94.333 77.6902 92.2324 80.3049 92.2324C77.6902 92.2324 75.5708 90.1317 75.5708 87.5405C75.5708 84.9492 77.6902 82.8486 80.3049 82.8486C77.6902 82.8486 75.5708 80.7479 75.5708 78.1569C75.5708 75.5656 77.6902 73.4648 80.3049 73.4648H74.934C72.3193 73.4648 70.1998 75.5653 70.1998 78.1569C70.1998 80.7483 72.3193 82.8486 74.934 82.8486C72.3193 82.8486 70.1998 84.9494 70.1998 87.5405C70.1998 90.1319 72.3193 92.2324 74.934 92.2324C72.3193 92.2324 70.1998 94.333 70.1998 96.9243C70.1998 99.5157 72.3193 101.616 74.934 101.616C72.3193 101.616 70.1998 103.717 70.1998 106.308C70.1998 108.899 72.3193 111 74.934 111H80.3049C77.6902 111 75.5708 108.899 75.5708 106.308Z" fill="#DD9A76"/>
<path d="M37.8708 23.5008C37.5064 22.3901 36.5557 21.596 35.3896 21.428L27.9173 20.3518L24.5757 13.6413C24.054 12.594 22.9978 11.9434 21.8192 11.9434C20.6408 11.9434 19.5847 12.594 19.063 13.6413L15.7218 20.3518L8.24974 21.428C7.08337 21.5958 6.13268 22.3899 5.76824 23.5008C5.40381 24.6114 5.70196 25.8081 6.5459 26.6242L11.953 31.8474L10.6768 39.2229C10.4775 40.3743 10.946 41.5157 11.8991 42.2025C12.4381 42.5906 13.0684 42.7874 13.7032 42.7874C14.1916 42.7874 14.6825 42.6706 15.1364 42.4343L21.8197 38.9521L28.5029 42.4343C29.5461 42.9778 30.7862 42.8889 31.7395 42.2025C32.693 41.5161 33.1616 40.3743 32.9623 39.2229L31.6859 31.8474L37.093 26.6237C37.9373 25.8084 38.2351 24.6116 37.8708 23.5008Z" fill="#F7CB4F"/>
<path d="M35.3897 21.4281L35.2237 21.4043L26.7749 29.6692C26.3409 30.0885 26.1429 30.6925 26.2453 31.2843L28.2359 42.2948L28.503 42.4339C29.5462 42.9774 30.7863 42.8886 31.7396 42.2022C32.6932 41.5158 33.1617 40.3739 32.9625 39.2225L31.686 31.8471L37.0931 26.6234C37.9373 25.808 38.2352 24.6113 37.871 23.5002C37.5063 22.3898 36.5556 21.5957 35.3897 21.4281Z" fill="#FBAB00"/>
<path d="M72.4391 11.5574C72.0747 10.4468 71.124 9.65264 69.9579 9.48463L62.4856 8.40845L59.1444 1.69795C58.6227 0.650606 57.5666 0 56.3882 0C55.2095 0 54.1536 0.650606 53.6319 1.69795L50.2903 8.40845L42.8182 9.48463C41.6519 9.65221 40.7012 10.4466 40.3368 11.5574C39.9723 12.6683 40.2705 13.8648 41.1144 14.6808L46.5217 19.9043L45.2453 27.2795C45.046 28.4309 45.5146 29.5723 46.4676 30.2591C47.4212 30.9457 48.6611 31.0344 49.7047 30.4911L56.3879 27.0089L63.0712 30.4911C63.5249 30.7276 64.0157 30.8443 64.5044 30.8443C65.1392 30.8443 65.7695 30.647 66.3085 30.2594C67.2618 29.5728 67.7303 28.4311 67.5308 27.2799L66.2544 19.9045L71.6619 14.6808C72.5056 13.865 72.8036 12.6683 72.4391 11.5574Z" fill="#F7CB4F"/>
<path d="M66.3085 30.2588C67.2618 29.5722 67.7303 28.4306 67.5308 27.2794L66.2544 19.904L71.6619 14.6803C72.5056 13.8647 72.8038 12.668 72.4394 11.5571C72.0749 10.4465 71.1242 9.65238 69.9581 9.48436L69.8896 9.47461L61.3431 17.7252C60.9093 18.1443 60.7111 18.7485 60.8135 19.3403L62.3607 28.2799L62.7313 30.313L63.0712 30.4899C63.5249 30.7265 64.0158 30.8431 64.5044 30.8431C65.1393 30.8438 65.7697 30.6467 66.3085 30.2588Z" fill="#FBAB00"/>
<path d="M106.944 23.5008C106.58 22.3901 105.629 21.596 104.463 21.428L96.9905 20.3518L93.6489 13.6413C93.1272 12.594 92.0713 11.9434 90.8927 11.9434C89.714 11.9434 88.6581 12.594 88.1364 13.6413L84.7948 20.3518L77.3228 21.428C76.1564 21.5958 75.2057 22.3899 74.8413 23.5008C74.477 24.6116 74.7748 25.8084 75.6191 26.6239L81.0262 31.8477L79.7498 39.2229C79.5505 40.3743 80.0191 41.5157 80.9721 42.2025C81.9257 42.8891 83.1653 42.978 84.2092 42.4345L90.8924 38.9523L97.5757 42.4345C98.0294 42.671 98.5202 42.7876 99.0089 42.7876C99.6437 42.7876 100.274 42.5904 100.813 42.2027C101.766 41.5161 102.235 40.3745 102.035 39.2233L100.759 31.8479L106.166 26.6242C107.011 25.8081 107.308 24.6114 106.944 23.5008Z" fill="#F7CB4F"/>
<path d="M106.944 23.5006C106.58 22.39 105.629 21.5958 104.463 21.4278L104.33 21.4087L95.8478 29.6689C95.414 30.0882 95.2158 30.6922 95.3182 31.284L97.1139 42.1932L97.5757 42.4339C98.0293 42.6704 98.5202 42.787 99.0089 42.787C99.6437 42.787 100.274 42.5897 100.813 42.2021C101.766 41.5155 102.235 40.3739 102.035 39.2227L100.759 31.8473L106.166 26.6236C107.011 25.808 107.308 24.6113 106.944 23.5006Z" fill="#FBAB00"/>
<path d="M34.1698 65.3716H6.54632C5.63851 65.3716 4.90308 66.1007 4.90308 67.0002V108.594C4.90308 109.493 5.63873 110.222 6.54632 110.222H34.1698C35.0776 110.222 35.8131 109.493 35.8131 108.594V67.0002C35.8133 66.1005 35.0776 65.3716 34.1698 65.3716Z" fill="#546F7A"/>
<path d="M4.90308 103.976V108.594C4.90308 109.494 5.63873 110.222 6.54632 110.222H34.1698C35.0776 110.222 35.8131 109.493 35.8131 108.594V103.976H4.90308Z" fill="#465A65"/>
<path d="M25.4452 102.816C26.8902 102.816 28.0616 101.655 28.0616 100.222C28.0616 98.7904 26.8902 97.6294 25.4452 97.6294C24.0001 97.6294 22.8287 98.7904 22.8287 100.222C22.8287 101.655 24.0001 102.816 25.4452 102.816Z" fill="#353535"/>
<path d="M96.5244 73.4648H79.4057C76.3696 73.4648 73.8997 75.9127 73.8997 78.9216V79.8348C73.8997 82.8439 76.3696 85.2915 79.4057 85.2915H96.5244C99.5604 85.2915 102.03 82.8437 102.03 79.8348V78.9216C102.03 75.9125 99.5606 73.4648 96.5244 73.4648Z" fill="#FFC89F"/>
<path d="M96.5244 80.0289H79.4057C77.1493 80.0289 75.2068 78.6763 74.3569 76.7466C74.0636 77.4133 73.8997 78.1486 73.8997 78.9211V79.8342C73.8997 82.8434 76.3696 85.291 79.4057 85.291H96.5244C99.5604 85.291 102.03 82.8432 102.03 79.8342V78.9211C102.03 78.1484 101.866 77.4133 101.573 76.7466C100.724 78.6761 98.7808 80.0289 96.5244 80.0289Z" fill="#F7B081"/>
<path d="M98.5226 82.0342H79.4057C76.3696 82.0342 73.8997 84.4823 73.8997 87.491V88.4041C73.8997 91.4132 76.3696 93.8609 79.4057 93.8609H98.5226C101.559 93.8609 104.029 91.413 104.029 88.4041V87.491C104.029 84.482 101.559 82.0342 98.5226 82.0342Z" fill="#FFC89F"/>
<path d="M98.5226 88.6485H79.4057C77.1394 88.6485 75.1893 87.2844 74.3458 85.3415C74.0592 86.0016 73.8997 86.7281 73.8997 87.4912V88.4044C73.8997 91.4135 76.3696 93.8612 79.4057 93.8612H98.5226C101.559 93.8612 104.029 91.4133 104.029 88.4044V87.491C104.029 86.7279 103.869 86.0014 103.583 85.3413C102.739 87.2844 100.789 88.6485 98.5226 88.6485Z" fill="#F7B081"/>
<path d="M96.0639 90.6035H79.8666C76.5764 90.6035 73.9 93.2562 73.9 96.5169C73.9 99.7777 76.5766 102.43 79.8666 102.43H96.0639C99.3541 102.43 102.031 99.7775 102.031 96.5169C102.03 93.2562 99.3537 90.6035 96.0639 90.6035Z" fill="#FFC89F"/>
<path d="M96.0639 97.1143H79.8666C77.5408 97.1143 75.5231 95.7879 74.5391 93.8589C74.1312 94.6586 73.8997 95.5614 73.8997 96.517C73.8997 99.7779 76.5764 102.43 79.8664 102.43H96.0637C99.3539 102.43 102.03 99.7777 102.03 96.517C102.03 95.5614 101.799 94.6586 101.391 93.8589C100.407 95.7879 98.3894 97.1143 96.0639 97.1143Z" fill="#F7B081"/>
<path d="M91.6051 99.1729H79.8663C76.5761 99.1729 73.8997 101.826 73.8997 105.086C73.8997 108.347 76.5764 111 79.8663 111H91.6051C94.8953 111 97.5719 108.347 97.5719 105.086C97.5719 101.826 94.8953 99.1729 91.6051 99.1729Z" fill="#FFC89F"/>
<path d="M91.6051 105.688H79.8663C77.5399 105.688 75.5213 104.36 74.538 102.43C74.1307 103.23 73.8997 104.131 73.8997 105.086C73.8997 108.347 76.5764 111 79.8663 111H91.6051C94.8953 111 97.5719 108.347 97.5719 105.086C97.5719 104.131 97.3409 103.23 96.9336 102.43C95.9501 104.36 93.9317 105.688 91.6051 105.688Z" fill="#F7B081"/>
</svg>
