<svg width="112" height="111" viewBox="0 0 112 111" fill="none" xmlns="http://www.w3.org/2000/svg">
<path d="M100.975 8.47997V71.0846C100.975 73.7918 98.7602 75.9863 96.0288 75.9863H4.94591C2.21431 75.9863 0 73.7918 0 71.0846V8.47997C0 5.38164 2.53415 2.87012 5.66039 2.87012H95.3144C98.4406 2.87012 100.975 5.38164 100.975 8.47997Z" fill="#29ABE2"/>
<path d="M6.86993 69.1774V9.67871H94.1067V69.1774H6.86993Z" fill="#E6E6E6"/>
<path d="M62.5786 83.4784H38.3983V75.9858H62.5786V83.4784Z" fill="#2496B5"/>
<path d="M80.7557 88.3797H20.2214C20.2214 87.0267 20.7758 85.8008 21.6702 84.9144C22.5646 84.028 23.8016 83.4785 25.1668 83.4785H75.8106C78.5435 83.4785 80.7557 85.6738 80.7557 88.3797Z" fill="#29ABE2"/>
<path d="M46.6587 83.4785H41.2687L42.7751 88.3797H46.6587V83.4785Z" fill="#6EC6EB"/>
<path d="M57.4726 69.1774H12.3622V29.853H57.4726V69.1774Z" fill="#FCFAF9"/>
<path d="M88.8537 22.1974H62.0257V18.8481H88.8537V22.1974Z" fill="#FC7A51"/>
<path d="M88.8537 27.4742H62.0257V24.125H88.8537V27.4742Z" fill="#29ABE2"/>
<path d="M12.3622 24.125H57.4726V27.4742H12.3622V24.125Z" fill="#FC7A51"/>
<path d="M16.8752 62.6934H52.9595V66.0426H16.8752V62.6934Z" fill="#29ABE2"/>
<path d="M12.3622 18.8481H57.4726V22.1974H12.3622V18.8481Z" fill="#29ABE2"/>
<path d="M88.8537 33.2022H62.0257V29.853H88.8537V33.2022Z" fill="#29ABE2"/>
<path d="M70.3944 54.1407H62.0257V50.7915H70.3944V54.1407Z" fill="#29ABE2"/>
<path d="M70.3944 60.4395H62.0257V57.0903H70.3944V60.4395Z" fill="#29ABE2"/>
<path d="M88.8537 66.7374H62.0257V63.3882H88.8537V66.7374Z" fill="#29ABE2"/>
<path d="M84.1811 48.8018L83.4049 49.6519L86.7085 52.6144H75.8289L79.1327 49.6519L78.3565 48.8018L73.6841 52.9916L75.8391 61.7871H78.0108H84.5269H86.6985L88.8535 52.9916L84.1811 48.8018ZM80.6906 55.2828H78.2969L78.0905 53.7608H80.6906V55.2828ZM81.8473 53.7608H84.4476L84.2413 55.2828H81.8473V53.7608ZM77.1292 55.2828H75.4361L75.0631 53.7608H76.9228L77.1292 55.2828ZM75.717 56.4294H77.2845L77.5021 58.0346H76.11L75.717 56.4294ZM78.4522 56.4294H80.6906V58.0346H78.6698L78.4522 56.4294ZM81.8473 56.4294H84.0857L83.8681 58.0346H81.847V56.4294H81.8473ZM85.2534 56.4294H86.8209L86.4276 58.0346H85.0355L85.2534 56.4294ZM85.4085 55.2828L85.6148 53.7608H87.4747L87.1018 55.2828H85.4085ZM76.7487 60.6404L76.3912 59.1812H77.6577L77.8554 60.6404H76.7487ZM78.8251 59.181H80.6906V60.6402H79.0229L78.8251 59.181ZM81.8473 60.6404V59.1812H83.713L83.515 60.6404H81.8473ZM84.6825 60.6404L84.8802 59.1812H86.1467L85.7892 60.6404H84.6825Z" fill="#CCCCCC"/>
<path d="M26.9023 57.3256L20.4722 50.4219L17.7503 54.0829L15.645 52.5454L20.2457 46.3575L26.3685 52.9313L35.9847 35.7239L43.3143 47.3984L51.9087 32.2046L54.1897 33.4721L43.4315 52.4912L36.1159 40.8387L26.9023 57.3256Z" fill="#FC7A51"/>
<path d="M73.705 35.5811H62.0257V45.7506H73.705V35.5811Z" fill="#FC7A51"/>
<path d="M88.8537 35.5811H77.1741V45.7506H88.8537V35.5811Z" fill="#2BE0C6"/>
<path d="M94.1067 16.0042H6.86993V9.67871H94.1067V16.0042Z" fill="#CCCCCC"/>
<path d="M10.9416 14.3964C11.8082 14.3964 12.5107 13.7001 12.5107 12.8413C12.5107 11.9824 11.8082 11.2861 10.9416 11.2861C10.075 11.2861 9.37244 11.9824 9.37244 12.8413C9.37244 13.7001 10.075 14.3964 10.9416 14.3964Z" fill="#FC7A51"/>
<path d="M15.8234 14.3964C16.69 14.3964 17.3925 13.7001 17.3925 12.8413C17.3925 11.9824 16.69 11.2861 15.8234 11.2861C14.9568 11.2861 14.2543 11.9824 14.2543 12.8413C14.2543 13.7001 14.9568 14.3964 15.8234 14.3964Z" fill="#F9DE58"/>
<path d="M95.3144 2.87012H32.3934L34.4872 9.67819H94.1069V16.0037V59.5627H100.975V8.47997C100.975 5.38164 98.4406 2.87012 95.3144 2.87012Z" fill="#6EC6EB"/>
<path d="M77.6577 59.1813H76.3912L76.4848 59.5633H77.7095L77.6577 59.1813ZM80.6906 59.1813H78.8251L78.8769 59.5633H80.6906V59.1813ZM83.713 59.1813H81.8473V59.5633H83.6612L83.713 59.1813ZM86.1467 59.1813H84.8802L84.8284 59.5633H86.0531L86.1467 59.1813ZM77.2848 56.4298H75.7172L76.1105 58.0349H77.5026L77.2848 56.4298ZM80.6906 56.4298H78.4522L78.6698 58.0349H80.6906V56.4298ZM84.0859 56.4298H81.8476V58.0349H83.8686L84.0859 56.4298ZM86.8209 56.4298H85.2534L85.0358 58.0349H86.4279L86.8209 56.4298ZM76.9231 53.7612H75.0634L75.4363 55.2831H77.1294L76.9231 53.7612ZM80.6906 53.7612H78.0905L78.2969 55.2831H80.6906V53.7612ZM84.4476 53.7612H81.8473V55.2831H84.2413L84.4476 53.7612ZM87.4747 53.7612H85.6148L85.4084 55.2831H87.1018L87.4747 53.7612ZM62.0257 54.1409V50.7917H70.3945V54.1409H62.0257ZM62.0257 45.751V35.5815H73.7053V45.751H62.0257ZM77.1742 45.751V35.5815H88.8537V45.751H77.1742ZM62.0257 33.2025V29.8532H88.8537V33.2025H62.0257ZM62.0257 27.4742V24.1249H88.8537V27.4742H62.0257ZM62.0257 22.1976V18.8484H88.8537V22.1976H62.0257ZM94.1067 16.0044H36.4321L37.3067 18.8484H57.4724V22.1976H38.3365L38.9292 24.1249H57.4721V27.4742H39.959L40.6908 29.8532H57.4721V59.5633H62.0252V57.0902H70.3939V59.5633H75.2938L73.6839 52.9919L78.3562 48.8021L79.1324 49.6523L75.8286 52.6148H86.7082L83.4047 49.6523L84.1809 48.8021L88.8532 52.9919L87.2433 59.5633H94.1061V16.0044" fill="#EEEEEE"/>
<path d="M57.4726 29.853H40.6913L45.1105 44.2234L51.9088 32.2049L54.1898 33.4723L46.1663 47.6568L49.843 59.6126C50.0441 59.58 50.2507 59.5631 50.4612 59.5631H57.4726V29.853Z" fill="#FCFAF9"/>
<path d="M88.8537 18.8481H62.0257V22.1974H88.8537V18.8481Z" fill="#FDA589"/>
<path d="M88.8537 24.125H62.0257V27.4742H88.8537V24.125Z" fill="#6EC6EB"/>
<path d="M57.4726 24.125H38.9294L39.9595 27.4742H57.4726V24.125Z" fill="#FDA589"/>
<path d="M57.4726 18.8481H37.3069L38.3368 22.1974H57.4726V18.8481Z" fill="#6EC6EB"/>
<path d="M88.8537 29.853H62.0257V33.2022H88.8537V29.853Z" fill="#6EC6EB"/>
<path d="M70.3944 50.7915H62.0257V54.1407H70.3944V50.7915Z" fill="#6EC6EB"/>
<path d="M70.3944 57.0903H62.0257V59.5635H68.8462H70.3944V57.0903Z" fill="#6EC6EB"/>
<path d="M76.1103 58.0346L75.717 56.4294H77.2845L77.5021 58.0346H76.1103ZM78.6695 58.0346L78.452 56.4294H80.6903V58.0346H78.6695ZM81.8473 58.0346V56.4294H84.0857L83.8681 58.0346H81.8473ZM85.0355 58.0346L85.2531 56.4294H86.8207L86.4273 58.0346H85.0355ZM75.4361 55.2828L75.0631 53.7608H76.9228L77.1292 55.2828H75.4361ZM78.2966 55.2828L78.0903 53.7608H80.6903V55.2828H78.2966ZM81.8473 55.2828V53.7608H84.4476L84.2413 55.2828H81.8473ZM85.4084 55.2828L85.6148 53.7608H87.4747L87.1018 55.2828H85.4084ZM84.1811 48.8018L83.4049 49.6519L86.7085 52.6144H75.8289L79.1327 49.6519L78.3565 48.8018L73.6841 52.9916L75.2941 59.563H76.4845L76.3909 59.181H77.6574L77.7092 59.563H78.8767L78.8249 59.181H80.6903V59.563H81.8473V59.181H83.713L83.6612 59.563H84.8286L84.8804 59.181H86.147L86.0534 59.563H87.2438L88.8537 52.9916L84.1811 48.8018Z" fill="#DCDCDC"/>
<path d="M51.9087 32.2046L45.1105 44.2231L46.1662 47.6566L54.1897 33.4721L51.9087 32.2046Z" fill="#FDA589"/>
<path d="M73.705 35.5811H62.0257V45.7506H73.705V35.5811Z" fill="#FDA589"/>
<path d="M88.8537 35.5811H77.1741V45.7506H88.8537V35.5811Z" fill="#6FEAD8"/>
<path d="M94.1067 9.67871H34.4869L36.4321 16.0042H94.1067V9.67871Z" fill="#DCDCDC"/>
<path d="M112 63.3316V104.361C112 106.442 110.298 108.13 108.195 108.13H50.4612C48.3612 108.13 46.6587 106.443 46.6587 104.361V63.3316C46.6587 61.2503 48.3612 59.563 50.4612 59.563H108.195C110.297 59.563 112 61.2503 112 63.3316Z" fill="#808080"/>
<path d="M55.172 63.5156H105.557V104.178H55.172V63.5156Z" fill="#E6E6E6"/>
<path d="M52.642 83.8467C52.642 84.8425 51.9273 85.6724 50.9777 85.8595C50.8459 85.8854 50.7107 85.8989 50.5713 85.8989C49.4285 85.8989 48.5006 84.9809 48.5006 83.8467C48.5006 82.9937 49.0283 82.2612 49.7768 81.951C50.0205 81.8507 50.2891 81.7944 50.5713 81.7944C51.7155 81.7944 52.642 82.7143 52.642 83.8467Z" fill="#4D4D4D"/>
<path d="M50.5713 81.7944C50.2891 81.7944 50.0205 81.8507 49.7768 81.951L50.9777 85.8593C51.927 85.6724 52.642 84.8422 52.642 83.8464C52.642 82.7143 51.7155 81.7944 50.5713 81.7944Z" fill="#ADADAD"/>
<path d="M102.716 104.178H57.6055V76.4736H102.716V104.178Z" fill="#FCFAF9"/>
<path d="M57.6055 70.7451H102.716V74.0943H57.6055V70.7451Z" fill="#FC7A51"/>
<path d="M57.6055 65.4688H102.716V68.8179H57.6055V65.4688Z" fill="#29ABE2"/>
<path d="M61.4214 98.9355H98.9004V102.285H61.4214V98.9355Z" fill="#29ABE2"/>
<path d="M74.5733 96.9425L70.0906 92.1296L68.1932 94.6818L66.7256 93.6101L69.9326 89.2962L74.2012 93.8791L80.9048 81.8834L86.0144 90.0219L92.0058 79.4302L93.5962 80.3135L86.0962 93.5722L80.9963 85.4491L74.5733 96.9425Z" fill="#FC7A51"/>
<path d="M108.195 59.563H87.2438H86.0533H84.8286H83.6612H81.8473H80.6903H78.8767H77.7092H76.4845H75.2941H70.3942H68.846L70.0615 63.5156H105.557V104.178H82.5662L83.7815 108.13H108.195C110.297 108.13 112 106.442 112 104.361V63.3314C112 61.2503 110.297 59.563 108.195 59.563Z" fill="#A9A9A9"/>
<path d="M105.557 63.5156H70.0618L70.6622 65.4686H102.716V68.8178H71.6921L72.285 70.7449H102.716V74.0941H73.3148L74.0466 76.4732H102.716V104.178H82.5665H105.557V63.5156Z" fill="#EEEEEE"/>
<path d="M102.716 76.4736H74.0466L77.5541 87.8796L80.9048 81.8839L86.0144 90.0223L92.0058 79.4307L93.5962 80.314L86.0962 93.5727L80.9963 85.4495L78.294 90.2852L80.9542 98.9358H98.9004V102.285H81.9843L82.5665 104.178H102.716V76.4736Z" fill="#FCFAF9"/>
<path d="M102.716 70.7451H72.285L73.3148 74.0943H102.716V70.7451Z" fill="#FDA589"/>
<path d="M102.716 65.4688H70.6622L71.6921 68.8179H102.716V65.4688Z" fill="#6EC6EB"/>
<path d="M98.9004 98.9355H80.9542L81.9843 102.285H98.9004V98.9355Z" fill="#6EC6EB"/>
<path d="M92.0058 79.4302L86.0144 90.0219L80.9048 81.8834L77.5541 87.8792L78.294 90.2847L80.9963 85.4491L86.0962 93.5722L93.5962 80.3135L92.0058 79.4302Z" fill="#FDA589"/>
</svg>
