<svg width="112" height="111" viewBox="0 0 112 111" fill="none" xmlns="http://www.w3.org/2000/svg">
<path d="M81.963 111H20.4417C17.2058 111 14.5825 108.4 14.5825 105.193V5.8069C14.5827 2.59983 17.206 0 20.4417 0H81.9628C85.1987 0 87.822 2.59983 87.822 5.8069V105.193C87.822 108.4 85.199 111 81.963 111Z" fill="#B6C4CF"/>
<path d="M81.963 0H74.301C77.537 0 80.1602 2.59983 80.1602 5.8069V105.193C80.1602 108.4 77.537 111 74.301 111H81.963C85.1989 111 87.8222 108.4 87.8222 105.193V5.8069C87.822 2.59983 85.1987 0 81.963 0Z" fill="#9FACBA"/>
<path d="M22.2447 91.346V9.15676C22.2447 8.53997 22.7491 8.04004 23.3715 8.04004H79.0335C79.6558 8.04004 80.1603 8.53997 80.1603 9.15676V91.346C80.1603 91.9628 79.6558 92.4627 79.0335 92.4627H23.3715C22.7491 92.4627 22.2447 91.9628 22.2447 91.346Z" fill="#596C76"/>
<path d="M79.0333 8.04004H71.3679C71.9902 8.04004 72.4946 8.53998 72.4946 9.15676V91.346C72.4946 91.9628 71.9902 92.4627 71.3679 92.4627H79.0333C79.6556 92.4627 80.1601 91.9628 80.1601 91.346V9.15655C80.1601 8.53998 79.6556 8.04004 79.0333 8.04004Z" fill="#465A61"/>
<path d="M59.9911 104.579H42.4136C40.7958 104.579 39.4841 103.279 39.4841 101.676C39.4841 100.072 40.7958 98.772 42.4136 98.772H59.9911C61.6089 98.772 62.9206 100.072 62.9206 101.676C62.9206 103.279 61.6089 104.579 59.9911 104.579Z" fill="#F5F8F9"/>
<path d="M2.7208 35.4705H30.5093C31.243 35.4705 31.8377 34.881 31.8377 34.1539V24.9502L35.9413 22.2101C36.267 21.9927 36.267 21.5177 35.9413 21.3002L31.8377 18.5601V9.35665C31.8377 8.62951 31.243 8.04004 30.5093 8.04004H2.7208C1.98712 8.04004 1.39233 8.62951 1.39233 9.35665V34.1539C1.39233 34.881 1.98712 35.4705 2.7208 35.4705Z" fill="#FFE177"/>
<path d="M109.279 35.4707H81.4907C80.7571 35.4707 80.1623 36.0602 80.1623 36.7873V45.991L76.0587 48.7311C75.733 48.9485 75.733 49.4235 76.0587 49.641L80.1623 52.3811V61.5848C80.1623 62.3119 80.7571 62.9014 81.4907 62.9014H109.279C110.013 62.9014 110.608 62.3119 110.608 61.5848V36.7875C110.608 36.0602 110.013 35.4707 109.279 35.4707Z" fill="#FFE177"/>
<path d="M2.7208 92.4628H30.5093C31.243 92.4628 31.8377 91.8734 31.8377 91.1462V81.9426L35.9413 79.2025C36.267 78.985 36.267 78.51 35.9413 78.2926L31.8377 75.5525V66.3488C31.8377 65.6217 31.243 65.0322 30.5093 65.0322H2.7208C1.98712 65.0322 1.39233 65.6217 1.39233 66.3488V91.146C1.39233 91.8734 1.98712 92.4628 2.7208 92.4628Z" fill="#FFE177"/>
<path d="M21.8874 29.1458H9.71837C8.97155 29.1458 8.36627 28.5459 8.36627 27.8057V15.7453C8.36627 15.0052 8.97155 14.4053 9.71837 14.4053H21.8874C22.6342 14.4053 23.2395 15.0052 23.2395 15.7453V27.8057C23.2395 28.5457 22.6342 29.1458 21.8874 29.1458Z" fill="#26A6FE"/>
<path d="M96.9347 41.8687L98.5438 45.1003C98.7326 45.4793 99.0975 45.742 99.5194 45.8027L103.118 46.3209C104.181 46.4739 104.605 47.7684 103.836 48.5114L101.232 51.0269C100.927 51.322 100.788 51.7471 100.859 52.1636L101.474 55.7153C101.656 56.7644 100.545 57.5644 99.594 57.069L96.3756 55.3921C95.998 55.1955 95.5471 55.1955 95.1696 55.3921L91.9511 57.069C91.0004 57.5644 89.8894 56.7644 90.071 55.7153L90.6856 52.1636C90.7578 51.7469 90.6185 51.322 90.3129 51.0269L87.7091 48.5114C86.94 47.7684 87.3644 46.4739 88.4273 46.3209L92.0257 45.8027C92.4477 45.742 92.8125 45.4793 93.0013 45.1003L94.6105 41.8687C95.086 40.9142 96.4593 40.9142 96.9347 41.8687Z" fill="#FEB137"/>
<path d="M15.0244 85.7435C15.5091 86.117 16.1774 86.1164 16.6613 85.7417L22.5618 81.1756C24.225 79.8939 24.8095 77.6114 23.9741 75.6603C23.0672 73.5419 20.7628 72.4428 18.5935 73.0938C17.3541 73.4656 16.3712 74.348 15.8289 75.4719C15.2867 74.348 14.3038 73.4656 13.0646 73.0938C10.7852 72.4098 8.35666 73.6581 7.55691 75.9904C6.90066 77.9043 7.61444 80.0335 9.19819 81.2538L15.0244 85.7435Z" fill="#FD4755"/>
<path d="M46.8593 56.4971H37.7523C33.6295 56.4971 30.2872 53.1846 30.2872 49.0986C30.2872 45.0127 33.6295 41.7002 37.7523 41.7002H46.8593V56.4971Z" fill="#FE646F"/>
<path d="M61.63 36.7324L46.8593 41.7003V56.4973L61.63 61.4652C62.1224 61.6309 62.6332 61.268 62.6332 60.7528V37.445C62.6332 36.9297 62.1224 36.5668 61.63 36.7324Z" fill="#B3DAFE"/>
<path d="M37.7523 56.4976C37.7068 56.4976 37.6617 56.495 37.6165 56.4941V67.9652C37.6165 69.4427 38.824 70.6412 40.3147 70.6431H40.3928C41.8865 70.6453 43.0983 69.4455 43.0983 67.9652V56.4976H37.7523Z" fill="#0182FC"/>
<path d="M70.5733 50.8612H68.3668C67.4332 50.8612 66.6768 50.1113 66.6768 49.1862C66.6768 48.2609 67.4334 47.5112 68.3668 47.5112H70.5733C71.507 47.5112 72.2634 48.2611 72.2634 49.1862C72.2634 50.1113 71.5068 50.8612 70.5733 50.8612Z" fill="#FE646F"/>
<path d="M68.691 43.3143C68.1995 43.3143 67.7121 43.1029 67.3781 42.6956C66.7897 41.9775 66.8997 40.9226 67.6242 40.3392L69.1845 39.0829C69.9095 38.4997 70.9737 38.6089 71.5621 39.3267C72.1506 40.0448 72.0405 41.0997 71.316 41.6831L69.7557 42.9394C69.4424 43.1914 69.0653 43.3143 68.691 43.3143Z" fill="#FE646F"/>
<path d="M70.2492 59.6644C69.8749 59.6644 69.498 59.5419 69.1847 59.2896L67.6244 58.0334C66.8999 57.4502 66.7896 56.3953 67.3781 55.6773C67.9665 54.9592 69.0305 54.8495 69.7554 55.4332L71.3158 56.6893C72.0403 57.2725 72.1505 58.3274 71.5621 59.0454C71.2281 59.453 70.7407 59.6644 70.2492 59.6644Z" fill="#FE646F"/>
</svg>
