<svg width="13" height="13" viewBox="0 0 13 13" fill="none" xmlns="http://www.w3.org/2000/svg">
<path d="M6.5 0C2.91027 0 0 2.91027 0 6.5C0 10.0897 2.91027 13 6.5 13C10.0897 13 13 10.0897 13 6.5C13 2.91027 10.0897 0 6.5 0ZM5.50507 8.12955C5.7902 8.48077 6.15247 8.65627 6.5923 8.65627C7.04253 8.65627 7.38617 8.50568 7.62277 8.2043C7.75363 8.04223 7.86197 7.79913 7.9482 7.475H9.25318C9.14052 8.16032 8.85278 8.71758 8.39042 9.14702C7.9274 9.57623 7.33503 9.79095 6.6118 9.79095C5.71718 9.79095 5.01388 9.50105 4.50233 8.92082C3.99035 8.3382 3.73425 7.53892 3.73425 6.52383C3.73425 5.4262 4.02545 4.58012 4.60763 3.98602C5.1142 3.4684 5.75835 3.2097 6.5403 3.2097C7.5868 3.2097 8.35185 3.55658 8.83567 4.25057C9.10303 4.64013 9.24647 5.031 9.26597 5.42338H7.95232C7.86847 5.12178 7.76143 4.89472 7.63078 4.7411C7.39678 4.4681 7.04968 4.33138 6.59013 4.33138C6.12213 4.33138 5.75315 4.52422 5.48275 4.90945C5.21278 5.29468 5.0778 5.84003 5.0778 6.54507C5.0778 7.2501 5.22037 7.77812 5.50507 8.12955Z" fill="white"/>
</svg>
