<svg width="380" height="202" viewBox="0 0 380 202" fill="none" xmlns="http://www.w3.org/2000/svg">
<rect y="9" width="380" height="151" fill="#E94D35"/>
<g filter="url(#filter0_d)">
<rect x="25" width="141" height="199" fill="#EDE7E3"/>
</g>
<path fill-rule="evenodd" clip-rule="evenodd" d="M131.631 9H130.431L134.973 13.5414V12.3417L131.631 9ZM134.973 9.1417V9H134.831L134.973 9.1417ZM126.032 9H127.231L134.973 16.7413V17.9412L126.032 9ZM122.832 9H121.632L134.973 22.3411V21.1412L122.832 9ZM117.232 9H118.432L134.973 25.541V26.741L117.232 9ZM114.032 9H112.832L134.973 31.1406V29.9409L114.032 9ZM108.432 9H109.632L134.973 34.3406V35.5405L108.432 9ZM105.232 9H104.032L134.973 39.941V38.7404L105.232 9ZM99.6319 9H100.832L134.973 43.141V44.3409L99.6319 9ZM96.432 9H95.2323L134.973 48.7405V47.5408L96.432 9ZM90.8324 9H92.0323L134.973 51.9405V53.1404L90.8324 9ZM87.6324 9H86.4318L134.973 57.5409V56.3404L87.6324 9ZM82.032 9H83.2319L134.973 60.7409V61.9408L82.032 9ZM78.832 9H77.6323L134.973 66.3405V65.1408L78.832 9ZM73.2324 9H74.4324L134.973 69.5404V70.7404L73.2324 9ZM70.0325 9H68.8326L134.973 75.1402V73.9403L70.0325 9ZM64.4321 9H65.6326L134.973 78.3402V79.5407L64.4321 9ZM61.2321 9H60.0322L134.973 83.9406V82.7407L61.2321 9ZM55.6325 9H56.8322L134.973 87.1406V88.3403L55.6325 9ZM52.4326 9H51.2327L134.973 92.7401V91.5402L52.4326 9ZM46.8328 9H48.0327L134.973 95.9401V97.14L46.8328 9ZM43.6329 9H42.433L134.973 101.54V100.34L43.6329 9ZM38.0333 9H39.233L134.973 104.74V105.94L38.0333 9ZM36 10.1667V11.3673L131.957 107.324H133.157L36 10.1667ZM36 15.7671V14.5672L128.757 107.324H127.557L36 15.7671ZM36 18.9671V20.167L123.157 107.324H124.357L36 18.9671ZM36 24.5667V23.3669L119.957 107.324H118.757L36 24.5667ZM36 27.7666V28.9672L114.357 107.324H115.557L36 27.7666ZM36 33.367V32.1672L111.157 107.324H109.957L36 33.367ZM36 36.567V37.7669L105.557 107.324H106.757L36 36.567ZM36 42.1666V40.9669L102.357 107.324H101.157L36 42.1666ZM36 45.3665V46.5664L96.7574 107.324H97.9573L36 45.3665ZM36 49.7664L93.5574 107.324H92.3575L36 50.9663V49.7664ZM36 54.1662V55.3668L87.957 107.324H89.1575L36 54.1662ZM36 58.5668L84.757 107.324H83.5573L36 59.7665V58.5668ZM36 62.9665V64.1664L79.1574 107.324H80.3573L36 62.9665ZM36 67.3663L75.9575 107.324H74.7576L36 68.5662V67.3663ZM36 71.7662V72.9659L70.3579 107.324H71.5576L36 71.7662ZM36 76.1659L67.1579 107.324H65.9573L36 77.3664V76.1659ZM36 80.5664V81.7663L61.5575 107.324H62.7574L36 80.5664ZM36 84.9663L58.3575 107.324H57.1576L36 86.1661V84.9663ZM36 89.3661V90.5658L52.758 107.324H53.9577L36 89.3661ZM36 93.7658L49.558 107.324H48.3572L36 94.9665V93.7658ZM36 98.1665V99.3662L43.9576 107.324H45.1573L36 98.1665ZM36 102.566L40.7576 107.324H39.5577L36 103.766V102.566ZM36 106.966V107.324H36.3578L36 106.966Z" fill="url(#paint0_linear)"/>
<rect x="45" y="179" width="66" height="1.5" fill="#F7A837"/>
<defs>
<filter id="filter0_d" x="25" y="0" width="143.819" height="201.819" filterUnits="userSpaceOnUse" color-interpolation-filters="sRGB">
<feFlood flood-opacity="0" result="BackgroundImageFix"/>
<feColorMatrix in="SourceAlpha" type="matrix" values="0 0 0 0 0 0 0 0 0 0 0 0 0 0 0 0 0 0 127 0"/>
<feOffset dx="1.40966" dy="1.40966"/>
<feGaussianBlur stdDeviation="0.70483"/>
<feColorMatrix type="matrix" values="0 0 0 0 0 0 0 0 0 0 0 0 0 0 0 0 0 0 0.25 0"/>
<feBlend mode="normal" in2="BackgroundImageFix" result="effect1_dropShadow"/>
<feBlend mode="normal" in="SourceGraphic" in2="effect1_dropShadow" result="shape"/>
</filter>
<linearGradient id="paint0_linear" x1="85.4864" y1="9" x2="70.5594" y2="126.307" gradientUnits="userSpaceOnUse">
<stop stop-color="#E1E1E1"/>
<stop offset="0.140625" stop-color="#DCDCDC" stop-opacity="0.58"/>
<stop offset="0.92877" stop-color="#C4C4C4" stop-opacity="0"/>
</linearGradient>
</defs>
</svg>
