<svg width="220" height="234" viewBox="0 0 220 234" fill="none" xmlns="http://www.w3.org/2000/svg">
<path fill-rule="evenodd" clip-rule="evenodd" d="M192.387 96.5347L191.058 96.5321L191.058 103.183L192.387 101.029L192.387 96.5347ZM109.545 232.909L109.552 232.919L109.552 96.3775L108.222 96.3749L108.222 230.747L109.545 232.909ZM114.425 96.3867L113.095 96.3842L113.095 229.54L114.425 227.385L114.425 96.3867ZM117.968 96.3934L117.968 221.642L119.298 219.488L119.298 96.396L117.968 96.3934ZM124.17 211.591L122.841 213.744L122.841 96.4027L124.17 96.4052L124.17 211.591ZM127.713 205.848L129.043 203.694L129.043 96.4145L127.713 96.4119L127.713 205.848ZM133.915 195.797L132.586 197.95L132.586 96.4212L133.915 96.4237L133.915 195.797ZM137.458 190.054L138.788 187.9L138.788 96.433L137.458 96.4304L137.458 190.054ZM143.661 180.002L142.331 182.156L142.331 96.4397L143.661 96.4422L143.661 180.002ZM147.204 174.258L148.533 172.106L148.533 96.4514L147.204 96.4489L147.204 174.258ZM153.406 164.208L152.076 166.362L152.076 96.4582L153.406 96.4607L153.406 164.208ZM156.949 158.465L158.279 156.31L158.279 96.4699L156.949 96.4674L156.949 158.465ZM163.15 148.414L161.822 150.567L161.822 96.4767L163.151 96.4792L163.15 148.414ZM166.694 142.671L168.022 140.518L168.022 96.4884L166.694 96.4859L166.694 142.671ZM172.896 132.619L171.566 134.775L171.566 96.4952L172.896 96.4977L172.896 132.619ZM176.44 126.875L177.768 124.722L177.768 96.5069L176.44 96.5044L176.44 126.875ZM182.641 116.825L181.312 118.979L181.312 96.5136L182.641 96.5162L182.641 116.825ZM186.185 111.081L187.514 108.927L187.514 96.5254L186.185 96.5229L186.185 111.081ZM104.679 96.3682L103.349 96.3657L103.349 222.781L104.679 224.954L104.679 96.3682ZM99.8057 96.359L99.8056 216.989L98.4774 214.818L98.4774 96.3565L99.8057 96.359ZM94.9337 96.3497L93.6055 96.3472L93.6055 206.854L94.9337 209.025L94.9337 96.3497ZM90.0617 96.3405L90.0617 201.062L88.7325 198.889L88.7325 96.338L90.0617 96.3405ZM85.1887 96.3312L83.8595 96.3287L83.8595 190.924L85.1887 193.096L85.1887 96.3312ZM80.3157 96.322L80.3157 185.131L78.9875 182.96L78.9875 96.3195L80.3157 96.322ZM75.4438 96.3127L74.1145 96.3102L74.1145 174.995L75.4437 177.167L75.4438 96.3127ZM70.5708 96.3035L70.5707 169.202L69.2415 167.029L69.2415 96.301L70.5708 96.3035ZM65.6978 96.2943L64.3685 96.2917L64.3685 159.064L65.6978 161.237L65.6978 96.2943ZM60.8248 96.285L60.8248 153.272L59.4966 151.101L59.4966 96.2825L60.8248 96.285ZM55.9528 96.2758L54.6226 96.2732L54.6225 143.134L55.9528 145.308L55.9528 96.2758ZM51.0788 96.2665L51.0788 137.341L49.7496 135.168L49.7496 96.264L51.0788 96.2665ZM46.2058 96.2573L44.8776 96.2547L44.8776 127.205L46.2058 129.376L46.2058 96.2573ZM41.3338 96.248L41.3338 121.412L40.0046 119.24L40.0046 96.2455L41.3338 96.248ZM36.4608 96.2388L35.1336 96.2363L35.1336 111.278L36.4608 113.447L36.4608 96.2388ZM31.5899 96.2295L31.5899 105.485L30.2606 103.312L30.2606 96.227L31.5899 96.2295ZM26.7169 96.6491C26.5687 96.9029 26.5476 97.2306 26.7169 97.5195L26.7169 96.6491Z" fill="#C4C4C4"/>
<path d="M110.583 114.302L40.4699 0.00011506L180.695 0.000127319L110.583 114.302Z" fill="#E94D35"/>
<path d="M110.156 179.083L43.6168 70.6063C43.4124 70.2731 43.6522 69.8448 44.043 69.8448L177.122 69.8449C177.513 69.8449 177.753 70.2731 177.548 70.6063L111.009 179.083C110.814 179.401 110.352 179.401 110.156 179.083Z" stroke="#F7A837" stroke-width="3"/>
</svg>
