<svg width="56" height="56" viewBox="0 0 56 56" fill="none" xmlns="http://www.w3.org/2000/svg">
<path d="M21.6517 3.50439H13.7781C13.1742 3.50439 12.6846 3.99396 12.6846 4.59793C12.6846 5.20189 13.1742 5.69146 13.7781 5.69146H21.6517C22.2555 5.69146 22.7452 5.20189 22.7452 4.59793C22.7452 3.99396 22.2555 3.50439 21.6517 3.50439Z" fill="#F7A837"/>
<path d="M18.4887 49.9464C18.2853 49.7429 18.0033 49.626 17.7156 49.626C17.4279 49.626 17.1459 49.743 16.9424 49.9464C16.739 50.1499 16.6221 50.432 16.6221 50.7196C16.6221 51.0073 16.739 51.2893 16.9424 51.4928C17.1459 51.6962 17.4279 51.8131 17.7156 51.8131C18.0033 51.8131 18.2853 51.6961 18.4887 51.4928C18.6921 51.2893 18.8091 51.0073 18.8091 50.7196C18.8091 50.4309 18.6922 50.1498 18.4887 49.9464Z" fill="#F7A837"/>
<path d="M48.9599 34.7665L44.9365 27.7979C46.5862 26.2693 47.0263 23.747 45.8554 21.7189C45.197 20.5788 44.1343 19.7632 42.8625 19.4225C41.9511 19.1781 41.0105 19.2003 40.1308 19.4742L36.1082 12.5069C35.9265 12.1923 35.6005 11.9884 35.238 11.9629C34.8753 11.937 34.5241 12.0936 34.3002 12.3795L21.7759 28.3732L16.5198 31.4078C13.5205 33.1393 12.4893 36.9882 14.2209 39.9875C15.0598 41.4404 16.4141 42.4797 18.0347 42.9138C18.5758 43.0588 19.1249 43.1306 19.6704 43.1306C20.7587 43.1306 21.8328 42.8452 22.8006 42.2863L23.4266 41.9249L25.6098 45.7064H2.18706V9.19098H33.2439V9.519C33.2439 10.123 33.7335 10.6125 34.3374 10.6125C34.9413 10.6125 35.4309 10.123 35.4309 9.519V4.29853C35.4309 1.93122 33.505 0.00512695 31.1375 0.00512695H4.29341C1.92598 0.00512695 0 1.93111 0 4.29853V51.7016C0 54.069 1.92598 55.9951 4.29341 55.9951H31.1377C33.5051 55.9951 35.4312 54.0691 35.4312 51.7016V38.2061L48.1668 36.3958C48.5264 36.3447 48.8372 36.1185 48.9962 35.7917C49.155 35.4653 49.1415 35.081 48.9599 34.7665ZM2.18706 4.29853C2.18706 3.13708 3.13195 2.1923 4.2933 2.1923H31.1376C32.299 2.1923 33.2439 3.13708 33.2439 4.29853V7.00381H2.18706V4.29853ZM42.2965 21.535C43.004 21.7246 43.5951 22.1783 43.9613 22.8125C44.5228 23.7852 44.4183 24.9624 43.7907 25.8135L41.2764 21.4585C41.6138 21.4201 41.9587 21.4445 42.2965 21.535ZM21.7071 40.3923C20.7601 40.939 19.6567 41.0842 18.6007 40.8012C17.5446 40.5182 16.6619 39.8409 16.1151 38.8938C14.9866 36.939 15.6587 34.4304 17.6134 33.3017L22.1061 30.7079L26.1994 37.7986L21.7071 40.3923ZM25.3207 40.8314L27.2929 39.6928L29.8764 44.1675L27.9043 45.3061L25.3207 40.8314ZM33.2439 51.7015C33.2439 52.863 32.299 53.8078 31.1376 53.8078H4.29341C3.13206 53.8078 2.18717 52.863 2.18717 51.7015V47.8934H33.244V51.7015H33.2439ZM33.2439 45.7064H31.585L31.9167 45.5147C32.4398 45.2129 32.619 44.544 32.3169 44.0209L29.4505 39.056L33.2439 38.5168V45.7064ZM28.2726 37.0144L23.8225 29.3069L31.7761 19.1501L41.0422 35.1994L28.2726 37.0144ZM43.376 34.8676L33.2298 17.2937L35.0238 15.0027L46.2564 34.4581L43.376 34.8676Z" fill="#F7A837"/>
<path d="M55.8528 15.9841C55.5508 15.4611 54.8822 15.2818 54.359 15.5839L48.9972 18.6796C48.4741 18.9815 48.2949 19.6503 48.597 20.1734C48.7996 20.5241 49.167 20.7202 49.545 20.7202C49.7305 20.7202 49.9185 20.673 50.0907 20.5736L55.4526 17.4778C55.9756 17.1759 56.1549 16.5071 55.8528 15.9841Z" fill="#F7A837"/>
<path d="M45.9554 11.1828C45.3719 11.0264 44.7726 11.3728 44.6161 11.9561L43.8344 14.8736C43.678 15.4571 44.0243 16.0567 44.6077 16.213C44.7026 16.2384 44.7977 16.2505 44.8914 16.2505C45.3742 16.2505 45.8161 15.9283 45.947 15.4397L46.7287 12.5222C46.885 11.9387 46.5389 11.3391 45.9554 11.1828Z" fill="#F7A837"/>
<path d="M54.3079 25.4883L51.2929 24.6804C50.7094 24.524 50.11 24.8704 49.9536 25.4537C49.7972 26.0371 50.1435 26.6367 50.7269 26.7931L53.7419 27.601C53.8367 27.6264 53.9319 27.6385 54.0256 27.6385C54.5084 27.6385 54.9503 27.3163 55.0812 26.8277C55.2375 26.2442 54.8913 25.6445 54.3079 25.4883Z" fill="#F7A837"/>
<path d="M20.7409 12.3805H5.65115C5.04729 12.3805 4.55762 12.8701 4.55762 13.474C4.55762 14.078 5.04729 14.5676 5.65115 14.5676H20.741C21.3448 14.5676 21.8345 14.078 21.8345 13.474C21.8345 12.8701 21.3447 12.3805 20.7409 12.3805Z" fill="#F7A837"/>
<path d="M21.5151 17.9502C21.3117 17.7457 21.0296 17.6298 20.742 17.6298C20.4532 17.6298 20.1722 17.7457 19.9688 17.9502C19.7643 18.1537 19.6484 18.4357 19.6484 18.7234C19.6484 19.0111 19.7644 19.2931 19.9688 19.4966C20.1722 19.6999 20.4532 19.8169 20.742 19.8169C21.0296 19.8169 21.3117 19.6999 21.5151 19.4966C21.7185 19.2931 21.8355 19.0111 21.8355 18.7234C21.8355 18.4357 21.7186 18.1537 21.5151 17.9502Z" fill="#F7A837"/>
<path d="M16.2208 17.6295H5.65115C5.04729 17.6295 4.55762 18.1191 4.55762 18.723C4.55762 19.327 5.04729 19.8166 5.65115 19.8166H16.2208C16.8247 19.8166 17.3144 19.327 17.3144 18.723C17.3144 18.1191 16.8247 17.6295 16.2208 17.6295Z" fill="#F7A837"/>
<path d="M18.1425 22.8787H9.85134C9.24748 22.8787 8.75781 23.3682 8.75781 23.9722C8.75781 24.5762 9.24737 25.0657 9.85134 25.0657H18.1424C18.7463 25.0657 19.2359 24.5762 19.2359 23.9722C19.2359 23.3682 18.7464 22.8787 18.1425 22.8787Z" fill="#F7A837"/>
<path d="M5.69311 22.8787H5.64236C5.0385 22.8787 4.54883 23.3682 4.54883 23.9722C4.54883 24.5762 5.0385 25.0657 5.64236 25.0657H5.69311C6.29697 25.0657 6.78664 24.5762 6.78664 23.9722C6.78664 23.3682 6.29697 22.8787 5.69311 22.8787Z" fill="#F7A837"/>
</svg>
