<svg width="184" height="184" viewBox="0 0 184 184" fill="none" xmlns="http://www.w3.org/2000/svg">
<g filter="url(#filter0_d)">
<circle cx="89" cy="88" r="84" fill="#19839B"/>
</g>
<g clip-path="url(#clip0)">
<path d="M54.4791 78.3333C54.7388 78.593 55.0797 78.7235 55.4206 78.7235C55.7615 78.7235 56.1024 78.5937 56.3627 78.3333C56.8827 77.8133 56.8827 76.9698 56.3627 76.4498L53.1288 73.2158L56.3627 69.9826C56.8827 69.4619 56.8827 68.619 56.3627 68.099C55.8427 67.579 54.9992 67.579 54.4791 68.099L50.3038 72.2744C50.0538 72.5243 49.9136 72.8631 49.9136 73.2158C49.9136 73.5692 50.0538 73.908 50.3038 74.158L54.4791 78.3333Z" fill="#F2F2F2"/>
<path d="M67.6956 73.216L64.4617 76.45C63.9417 76.97 63.9417 77.8135 64.4624 78.3335C64.7221 78.5932 65.0629 78.7237 65.4038 78.7237C65.7447 78.7237 66.0856 78.5932 66.3453 78.3335L70.5214 74.1575C71.0414 73.6375 71.0414 72.7939 70.5214 72.2746L66.3453 68.0985C65.8253 67.5785 64.9824 67.5785 64.4624 68.0985C63.9417 68.6192 63.9417 69.4621 64.4624 69.9821L67.6956 73.216Z" fill="#F2F2F2"/>
<path d="M58.4276 78.6312C58.5873 78.6937 58.7525 78.7235 58.9143 78.7235C59.4461 78.7235 59.9481 78.4028 60.1543 77.8786L63.4347 69.5271C63.7041 68.8426 63.3667 68.0699 62.6821 67.8005C61.9983 67.5318 61.2248 67.8685 60.9561 68.5531L57.675 76.9045C57.4063 77.5891 57.743 78.3625 58.4276 78.6312Z" fill="#F2F2F2"/>
<path d="M51.9991 86.537H60.9713C61.7065 86.537 62.3029 85.9406 62.3029 85.2047C62.3029 84.4694 61.7065 83.873 60.9713 83.873H51.9991C51.2632 83.873 50.6675 84.4694 50.6675 85.2047C50.6675 85.9406 51.2632 86.537 51.9991 86.537Z" fill="#F2F2F2"/>
<path d="M81.6354 83.873H65.8614C65.1262 83.873 64.5298 84.4694 64.5298 85.2047C64.5298 85.9406 65.1262 86.537 65.8614 86.537H81.6354C82.3713 86.537 82.9677 85.9406 82.9677 85.2047C82.9677 84.4694 82.3713 83.873 81.6354 83.873Z" fill="#F2F2F2"/>
<path d="M51.9991 92.1547H55.8211C56.5563 92.1547 57.1527 91.5583 57.1527 90.8224C57.1527 90.0871 56.5563 89.4907 55.8211 89.4907H51.9991C51.2632 89.4907 50.6675 90.0871 50.6675 90.8224C50.6675 91.5583 51.2632 92.1547 51.9991 92.1547Z" fill="#F2F2F2"/>
<path d="M76.7633 89.4907C76.0273 89.4907 75.4316 90.0871 75.4316 90.8224C75.4316 91.5583 76.0273 92.1547 76.7633 92.1547H79.0905C79.8264 92.1547 80.4228 91.5583 80.4228 90.8224C80.4228 90.0871 79.8264 89.4907 79.0905 89.4907H76.7633Z" fill="#F2F2F2"/>
<path d="M73.2583 90.8224C73.2583 90.0871 72.6619 89.4907 71.9267 89.4907H60.4947C59.7588 89.4907 59.1631 90.0871 59.1631 90.8224C59.1631 91.5583 59.7588 92.1547 60.4947 92.1547H71.9267C72.6619 92.1547 73.2583 91.5583 73.2583 90.8224Z" fill="#F2F2F2"/>
<path d="M81.9824 90.8224C81.9824 91.5583 82.5788 92.1547 83.314 92.1547H87.6734C88.4094 92.1547 89.0057 91.5583 89.0057 90.8224C89.0057 90.0871 88.4094 89.4907 87.6734 89.4907H83.314C82.5788 89.4907 81.9824 90.0871 81.9824 90.8224Z" fill="#F2F2F2"/>
<path d="M74.7293 74.2845H79.3275C80.0634 74.2845 80.6598 73.6882 80.6598 72.9522C80.6598 72.217 80.0634 71.6206 79.3275 71.6206H74.7293C73.9934 71.6206 73.397 72.217 73.397 72.9522C73.397 73.6882 73.9934 74.2845 74.7293 74.2845Z" fill="#F2F2F2"/>
<path d="M84.4778 74.2845H112.534C113.27 74.2845 113.866 73.6882 113.866 72.9522C113.866 72.217 113.27 71.6206 112.534 71.6206H84.4778C83.7419 71.6206 83.1455 72.217 83.1455 72.9522C83.1455 73.6882 83.7419 74.2845 84.4778 74.2845V74.2845Z" fill="#F2F2F2"/>
<path d="M108.273 77.4802H96.9078C96.1726 77.4802 95.5762 78.0766 95.5762 78.8125C95.5762 79.5478 96.1726 80.1442 96.9078 80.1442H108.273C109.008 80.1442 109.605 79.5478 109.605 78.8125C109.605 78.0766 109.008 77.4802 108.273 77.4802Z" fill="#F2F2F2"/>
<path d="M92.646 77.4802H88.7393C88.0034 77.4802 87.4077 78.0766 87.4077 78.8125C87.4077 79.5478 88.0034 80.1442 88.7393 80.1442H92.646C93.382 80.1442 93.9777 79.5478 93.9777 78.8125C93.9777 78.0766 93.382 77.4802 92.646 77.4802Z" fill="#F2F2F2"/>
<path d="M74.7293 80.1442H84.2999C85.0351 80.1442 85.6315 79.5478 85.6315 78.8125C85.6315 78.0766 85.0351 77.4802 84.2999 77.4802H74.7293C73.9934 77.4802 73.397 78.0766 73.397 78.8125C73.397 79.5478 73.9934 80.1442 74.7293 80.1442Z" fill="#F2F2F2"/>
<path d="M71.9434 95.0608H62.972C62.236 95.0608 61.6396 95.6572 61.6396 96.3924C61.6396 97.1277 62.236 97.724 62.972 97.724H71.9434C72.6787 97.724 73.275 97.1277 73.275 96.3924C73.275 95.6572 72.6787 95.0608 71.9434 95.0608Z" fill="#F2F2F2"/>
<path d="M58.8919 95.0608H51.9991C51.2632 95.0608 50.6675 95.6572 50.6675 96.3924C50.6675 97.1277 51.2632 97.724 51.9991 97.724H58.8919C59.6278 97.724 60.2235 97.1277 60.2235 96.3924C60.2235 95.6572 59.6278 95.0608 58.8919 95.0608Z" fill="#F2F2F2"/>
<path d="M88.207 95.0608H76.4869C75.751 95.0608 75.1553 95.6572 75.1553 96.3924C75.1553 97.1277 75.751 97.724 76.4869 97.724H88.207C88.9422 97.724 89.5386 97.1277 89.5386 96.3924C89.5386 95.6572 88.9422 95.0608 88.207 95.0608V95.0608Z" fill="#F2F2F2"/>
<path d="M104.056 88.2195H97.6475C96.9123 88.2195 96.3159 88.8159 96.3159 89.5511C96.3159 90.287 96.9123 90.8834 97.6475 90.8834H104.056C104.792 90.8834 105.388 90.287 105.388 89.5511C105.388 88.8159 104.792 88.2195 104.056 88.2195V88.2195Z" fill="#F2F2F2"/>
<path d="M115.177 90.8834H124.224C124.96 90.8834 125.556 90.287 125.556 89.5511C125.556 88.8159 124.96 88.2195 124.224 88.2195H115.177C114.441 88.2195 113.845 88.8159 113.845 89.5511C113.845 90.287 114.442 90.8834 115.177 90.8834Z" fill="#F2F2F2"/>
<path d="M110.653 88.2195H108.58C107.844 88.2195 107.248 88.8159 107.248 89.5511C107.248 90.287 107.844 90.8834 108.58 90.8834H110.653C111.389 90.8834 111.985 90.287 111.985 89.5511C111.985 88.8159 111.389 88.2195 110.653 88.2195Z" fill="#F2F2F2"/>
<path d="M97.6475 105.396H104.056C104.792 105.396 105.388 104.801 105.388 104.065C105.388 103.33 104.792 102.733 104.056 102.733H97.6475C96.9123 102.733 96.3159 103.33 96.3159 104.065C96.3159 104.801 96.9123 105.396 97.6475 105.396V105.396Z" fill="#F2F2F2"/>
<path d="M115.177 105.396H124.224C124.96 105.396 125.556 104.801 125.556 104.065C125.556 103.33 124.96 102.733 124.224 102.733H115.177C114.441 102.733 113.845 103.33 113.845 104.065C113.845 104.801 114.442 105.396 115.177 105.396Z" fill="#F2F2F2"/>
<path d="M108.58 105.396H110.653C111.389 105.396 111.986 104.801 111.986 104.065C111.986 103.33 111.389 102.733 110.653 102.733H108.58C107.844 102.733 107.249 103.33 107.249 104.065C107.249 104.801 107.844 105.396 108.58 105.396Z" fill="#F2F2F2"/>
<path d="M104.056 117.247H97.6475C96.9123 117.247 96.3159 117.843 96.3159 118.579C96.3159 119.314 96.9123 119.91 97.6475 119.91H104.056C104.792 119.91 105.388 119.314 105.388 118.579C105.388 117.843 104.792 117.247 104.056 117.247V117.247Z" fill="#F2F2F2"/>
<path d="M124.224 117.247H115.177C114.441 117.247 113.845 117.843 113.845 118.579C113.845 119.314 114.441 119.91 115.177 119.91H124.224C124.96 119.91 125.556 119.314 125.556 118.579C125.556 117.843 124.96 117.247 124.224 117.247V117.247Z" fill="#F2F2F2"/>
<path d="M110.653 117.247H108.58C107.844 117.247 107.248 117.843 107.248 118.579C107.248 119.314 107.844 119.91 108.58 119.91H110.653C111.389 119.91 111.985 119.314 111.985 118.579C111.985 117.843 111.389 117.247 110.653 117.247Z" fill="#F2F2F2"/>
<path d="M129.139 45.1775H49.8618C46.6299 45.1775 44 47.8067 44 51.0393V115.48C44 118.712 46.6299 121.341 49.8618 121.341H54.8738C55.609 121.341 56.2054 120.745 56.2054 120.01C56.2054 119.274 55.609 118.678 54.8738 118.678H49.8618C48.0983 118.678 46.6639 117.244 46.6639 115.48V110.428H95.1849V112.723H94.1289C92.6841 112.723 91.5094 113.898 91.5094 115.343V118.678H62.9711C62.2359 118.678 61.6395 119.274 61.6395 120.01C61.6395 120.745 62.2359 121.341 62.9711 121.341H75.7764V126.118H71.7551C69.0724 126.118 66.8903 128.301 66.8903 130.983V133.86C66.8903 135.084 67.8859 136.079 69.1099 136.079H109.789C111.013 136.079 112.009 135.084 112.009 133.86V130.983C112.009 128.301 109.827 126.118 107.144 126.118H103.123V124.434H127.744C129.188 124.434 130.363 123.259 130.363 121.815V121.188C132.958 120.585 134.899 118.256 134.899 115.48L135 51.0386C135 47.8067 132.371 45.1775 129.139 45.1775V45.1775ZM94.1734 107.257V100.873H127.699V107.257H94.1734ZM97.8482 98.2092V95.4071H124.024V98.2092H97.8482ZM124.024 109.92V112.723H97.8482V109.92H124.024ZM78.4396 121.341H91.5094V121.815C91.5094 123.259 92.6841 124.434 94.1289 124.434H100.459V126.118H78.4396V121.341ZM107.145 128.782C108.358 128.782 109.345 129.769 109.345 130.983V133.416H69.5536V130.983C69.5536 129.769 70.5415 128.782 71.7551 128.782H107.145ZM127.699 121.77H94.1734V115.387H127.699V121.77ZM132.236 115.48C132.236 116.77 131.466 117.882 130.363 118.386V115.342C130.363 113.898 129.188 112.723 127.744 112.723H126.688V110.428H132.236V115.48ZM132.236 107.765H130.32C130.347 107.614 130.363 100.829 130.363 100.829C130.363 99.3839 129.188 98.2092 127.744 98.2092H126.688V95.4071H127.744C129.188 95.4071 130.363 94.2317 130.363 92.7876V86.3148C130.363 84.8707 129.188 83.6953 127.744 83.6953H120.221C119.485 83.6953 118.89 84.2917 118.89 85.0276C118.89 85.7629 119.485 86.3593 120.221 86.3593H127.699V92.7432H94.1734V86.3593H111.934C112.67 86.3593 113.266 85.7629 113.266 85.0276C113.266 84.2917 112.67 83.6953 111.934 83.6953H94.1289C92.6841 83.6953 91.5094 84.8707 91.5094 86.3148V92.7876C91.5094 94.2317 92.6841 95.4071 94.1289 95.4071H95.1849V98.2092H94.1289C92.6841 98.2092 91.5094 99.3846 91.5094 100.829C91.5094 100.829 91.5261 107.614 91.5532 107.765H46.6639V63.294H132.236V107.765ZM132.236 60.63H46.7618V51.0386C46.7618 49.2758 48.1962 47.8414 49.9597 47.8414H129.038C130.801 47.8414 132.236 49.2758 132.236 51.0393V60.63Z" fill="#F2F2F2"/>
<path d="M53.8217 50.2896C51.6666 50.2896 49.9136 52.0426 49.9136 54.1976C49.9136 56.3527 51.6666 58.1064 53.8217 58.1064C55.9767 58.1064 57.7304 56.3527 57.7304 54.1976C57.7304 52.0426 55.9767 50.2896 53.8217 50.2896ZM53.8217 55.4425C53.1357 55.4425 52.5768 54.8843 52.5768 54.1976C52.5768 53.5117 53.1357 52.9528 53.8217 52.9528C54.5083 52.9528 55.0665 53.5117 55.0665 54.1976C55.0665 54.8843 54.5083 55.4425 53.8217 55.4425Z" fill="#F2F2F2"/>
<path d="M63.7726 50.2896C61.6175 50.2896 59.8638 52.0426 59.8638 54.1976C59.8638 56.3527 61.6175 58.1064 63.7726 58.1064C65.9276 58.1064 67.6806 56.3527 67.6806 54.1976C67.6806 52.0426 65.9269 50.2896 63.7726 50.2896ZM63.7726 55.4425C63.0859 55.4425 62.5277 54.8843 62.5277 54.1976C62.5277 53.5117 63.0859 52.9528 63.7726 52.9528C64.4585 52.9528 65.0174 53.5117 65.0174 54.1976C65.0174 54.8843 64.4585 55.4425 63.7726 55.4425Z" fill="#F2F2F2"/>
<path d="M73.7235 50.2896C71.5685 50.2896 69.8154 52.0426 69.8154 54.1976C69.8154 56.3527 71.5685 58.1064 73.7235 58.1064C75.8786 58.1064 77.6323 56.3527 77.6323 54.1976C77.6323 52.0426 75.8786 50.2896 73.7235 50.2896ZM73.7235 55.4425C73.0376 55.4425 72.4787 54.8843 72.4787 54.1976C72.4787 53.5117 73.0376 52.9528 73.7235 52.9528C74.4102 52.9528 74.9684 53.5117 74.9684 54.1976C74.9684 54.8843 74.4102 55.4425 73.7235 55.4425Z" fill="#F2F2F2"/>
</g>
<defs>
<filter id="filter0_d" x="0" y="0" width="184" height="184" filterUnits="userSpaceOnUse" color-interpolation-filters="sRGB">
<feFlood flood-opacity="0" result="BackgroundImageFix"/>
<feColorMatrix in="SourceAlpha" type="matrix" values="0 0 0 0 0 0 0 0 0 0 0 0 0 0 0 0 0 0 127 0"/>
<feOffset dx="3" dy="4"/>
<feGaussianBlur stdDeviation="4"/>
<feColorMatrix type="matrix" values="0 0 0 0 0 0 0 0 0 0 0 0 0 0 0 0 0 0 0.25 0"/>
<feBlend mode="normal" in2="BackgroundImageFix" result="effect1_dropShadow"/>
<feBlend mode="normal" in="SourceGraphic" in2="effect1_dropShadow" result="shape"/>
</filter>
<clipPath id="clip0">
<rect width="91" height="91" fill="white" transform="translate(44 45)"/>
</clipPath>
</defs>
</svg>
