<svg width="56" height="56" viewBox="0 0 56 56" fill="none" xmlns="http://www.w3.org/2000/svg">
<g clip-path="url(#clip0)">
<path d="M6.44923 20.5129C6.60902 20.6727 6.8188 20.753 7.02858 20.753C7.23836 20.753 7.44814 20.6731 7.60835 20.5129C7.92836 20.1929 7.92836 19.6738 7.60835 19.3538L5.61823 17.3637L7.60835 15.374C7.92836 15.0535 7.92836 14.5349 7.60835 14.2149C7.28834 13.8949 6.76924 13.8949 6.44923 14.2149L3.87976 16.7843C3.72595 16.9381 3.63965 17.1466 3.63965 17.3637C3.63965 17.5811 3.72595 17.7896 3.87976 17.9434L6.44923 20.5129Z" fill="#F7A837"/>
<path d="M14.5816 17.3636L12.5915 19.3537C12.2715 19.6737 12.2715 20.1928 12.5919 20.5129C12.7517 20.6726 12.9615 20.753 13.1713 20.753C13.3811 20.753 13.5908 20.6726 13.7506 20.5129L16.3205 17.943C16.6405 17.623 16.6405 17.1038 16.3205 16.7843L13.7506 14.2144C13.4306 13.8944 12.912 13.8944 12.5919 14.2144C12.2715 14.5348 12.2715 15.0535 12.5919 15.3735L14.5816 17.3636Z" fill="#F7A837"/>
<path d="M8.87844 20.6961C8.97671 20.7345 9.07839 20.7529 9.17794 20.7529C9.50521 20.7529 9.81411 20.5555 9.941 20.233L11.9598 15.0936C12.1255 14.6723 11.9179 14.1968 11.4966 14.031C11.0758 13.8657 10.5998 14.0729 10.4345 14.4942L8.4153 19.6335C8.24996 20.0548 8.45717 20.5307 8.87844 20.6961Z" fill="#F7A837"/>
<path d="M4.922 25.5612H10.4433C10.8958 25.5612 11.2628 25.1942 11.2628 24.7413C11.2628 24.2889 10.8958 23.9219 10.4433 23.9219H4.922C4.46912 23.9219 4.10254 24.2889 4.10254 24.7413C4.10254 25.1942 4.46912 25.5612 4.922 25.5612Z" fill="#F7A837"/>
<path d="M23.1603 23.9219H13.4533C13.0008 23.9219 12.6338 24.2889 12.6338 24.7413C12.6338 25.1942 13.0008 25.5612 13.4533 25.5612H23.1603C23.6132 25.5612 23.9802 25.1942 23.9802 24.7413C23.9802 24.2889 23.6132 23.9219 23.1603 23.9219Z" fill="#F7A837"/>
<path d="M4.922 29.0183H7.274C7.72645 29.0183 8.09346 28.6513 8.09346 28.1984C8.09346 27.7459 7.72645 27.3789 7.274 27.3789H4.922C4.46912 27.3789 4.10254 27.7459 4.10254 28.1984C4.10254 28.6513 4.46912 29.0183 4.922 29.0183Z" fill="#F7A837"/>
<path d="M20.1622 27.3789C19.7094 27.3789 19.3428 27.7459 19.3428 28.1984C19.3428 28.6513 19.7094 29.0183 20.1622 29.0183H21.5944C22.0473 29.0183 22.4143 28.6513 22.4143 28.1984C22.4143 27.7459 22.0473 27.3789 21.5944 27.3789H20.1622Z" fill="#F7A837"/>
<path d="M18.005 28.1984C18.005 27.7459 17.638 27.3789 17.1856 27.3789H10.1505C9.69763 27.3789 9.33105 27.7459 9.33105 28.1984C9.33105 28.6513 9.69763 29.0183 10.1505 29.0183H17.1856C17.638 29.0183 18.005 28.6513 18.005 28.1984Z" fill="#F7A837"/>
<path d="M23.374 28.1984C23.374 28.6513 23.741 29.0183 24.1935 29.0183H26.8762C27.3291 29.0183 27.6961 28.6513 27.6961 28.1984C27.6961 27.7459 27.3291 27.3789 26.8762 27.3789H24.1935C23.741 27.3789 23.374 27.7459 23.374 28.1984Z" fill="#F7A837"/>
<path d="M18.9107 18.0212H21.7404C22.1932 18.0212 22.5603 17.6542 22.5603 17.2013C22.5603 16.7488 22.1932 16.3818 21.7404 16.3818H18.9107C18.4578 16.3818 18.0908 16.7488 18.0908 17.2013C18.0908 17.6542 18.4578 18.0212 18.9107 18.0212Z" fill="#F7A837"/>
<path d="M24.9097 18.0212H42.1752C42.6281 18.0212 42.9947 17.6542 42.9947 17.2013C42.9947 16.7488 42.6281 16.3818 42.1752 16.3818H24.9097C24.4568 16.3818 24.0898 16.7488 24.0898 17.2013C24.0898 17.6542 24.4568 18.0212 24.9097 18.0212V18.0212Z" fill="#F7A837"/>
<path d="M39.5527 19.9878H32.5587C32.1063 19.9878 31.7393 20.3548 31.7393 20.8077C31.7393 21.2601 32.1063 21.6271 32.5587 21.6271H39.5527C40.0052 21.6271 40.3722 21.2601 40.3722 20.8077C40.3722 20.3548 40.0052 19.9878 39.5527 19.9878Z" fill="#F7A837"/>
<path d="M29.9365 19.9878H27.5324C27.0795 19.9878 26.7129 20.3548 26.7129 20.8077C26.7129 21.2601 27.0795 21.6271 27.5324 21.6271H29.9365C30.3894 21.6271 30.7559 21.2601 30.7559 20.8077C30.7559 20.3548 30.3894 19.9878 29.9365 19.9878Z" fill="#F7A837"/>
<path d="M18.9107 21.6271H24.8003C25.2528 21.6271 25.6198 21.2601 25.6198 20.8077C25.6198 20.3548 25.2528 19.9878 24.8003 19.9878H18.9107C18.4578 19.9878 18.0908 20.3548 18.0908 20.8077C18.0908 21.2601 18.4578 21.6271 18.9107 21.6271Z" fill="#F7A837"/>
<path d="M17.1963 30.8066H11.6754C11.2225 30.8066 10.8555 31.1736 10.8555 31.6261C10.8555 32.0786 11.2225 32.4456 11.6754 32.4456H17.1963C17.6487 32.4456 18.0157 32.0786 18.0157 31.6261C18.0157 31.1736 17.6487 30.8066 17.1963 30.8066Z" fill="#F7A837"/>
<path d="M9.16372 30.8066H4.922C4.46912 30.8066 4.10254 31.1736 4.10254 31.6261C4.10254 32.0786 4.46912 32.4456 4.922 32.4456H9.16372C9.6166 32.4456 9.98318 32.0786 9.98318 31.6261C9.98318 31.1736 9.6166 30.8066 9.16372 30.8066Z" fill="#F7A837"/>
<path d="M27.2047 30.8066H19.9923C19.5394 30.8066 19.1729 31.1736 19.1729 31.6261C19.1729 32.0786 19.5394 32.4456 19.9923 32.4456H27.2047C27.6571 32.4456 28.0241 32.0786 28.0241 31.6261C28.0241 31.1736 27.6571 30.8066 27.2047 30.8066V30.8066Z" fill="#F7A837"/>
<path d="M36.9577 26.5964H33.0138C32.5613 26.5964 32.1943 26.9634 32.1943 27.4159C32.1943 27.8688 32.5613 28.2358 33.0138 28.2358H36.9577C37.4106 28.2358 37.7772 27.8688 37.7772 27.4159C37.7772 26.9634 37.4106 26.5964 36.9577 26.5964V26.5964Z" fill="#F7A837"/>
<path d="M43.8009 28.2358H49.3684C49.8213 28.2358 50.1883 27.8688 50.1883 27.4159C50.1883 26.9634 49.8213 26.5964 49.3684 26.5964H43.8009C43.348 26.5964 42.9814 26.9634 42.9814 27.4159C42.9814 27.8688 43.3485 28.2358 43.8009 28.2358Z" fill="#F7A837"/>
<path d="M41.0175 26.5964H39.7418C39.2889 26.5964 38.9219 26.9634 38.9219 27.4159C38.9219 27.8688 39.2889 28.2358 39.7418 28.2358H41.0175C41.4704 28.2358 41.837 27.8688 41.837 27.4159C41.837 26.9634 41.4704 26.5964 41.0175 26.5964Z" fill="#F7A837"/>
<path d="M33.0138 37.167H36.9577C37.4106 37.167 37.7772 36.8004 37.7772 36.3475C37.7772 35.8951 37.4106 35.5281 36.9577 35.5281H33.0138C32.5613 35.5281 32.1943 35.8951 32.1943 36.3475C32.1943 36.8004 32.5613 37.167 33.0138 37.167V37.167Z" fill="#F7A837"/>
<path d="M43.8009 37.167H49.3684C49.8213 37.167 50.1883 36.8004 50.1883 36.3475C50.1883 35.8951 49.8213 35.5281 49.3684 35.5281H43.8009C43.348 35.5281 42.9814 35.8951 42.9814 36.3475C42.9814 36.8004 43.3485 37.167 43.8009 37.167Z" fill="#F7A837"/>
<path d="M39.7413 37.167H41.0171C41.47 37.167 41.837 36.8004 41.837 36.3475C41.837 35.8951 41.47 35.5281 41.0171 35.5281H39.7413C39.2885 35.5281 38.9219 35.8951 38.9219 36.3475C38.9219 36.8004 39.2885 37.167 39.7413 37.167Z" fill="#F7A837"/>
<path d="M36.9577 44.4597H33.0138C32.5613 44.4597 32.1943 44.8267 32.1943 45.2792C32.1943 45.7316 32.5613 46.0986 33.0138 46.0986H36.9577C37.4106 46.0986 37.7772 45.7316 37.7772 45.2792C37.7772 44.8267 37.4106 44.4597 36.9577 44.4597V44.4597Z" fill="#F7A837"/>
<path d="M49.3684 44.4597H43.8009C43.348 44.4597 42.9814 44.8267 42.9814 45.2792C42.9814 45.7316 43.348 46.0986 43.8009 46.0986H49.3684C49.8213 46.0986 50.1883 45.7316 50.1883 45.2792C50.1883 44.8267 49.8213 44.4597 49.3684 44.4597V44.4597Z" fill="#F7A837"/>
<path d="M41.0175 44.4597H39.7418C39.2889 44.4597 38.9219 44.8267 38.9219 45.2792C38.9219 45.7316 39.2889 46.0986 39.7418 46.0986H41.0175C41.4704 46.0986 41.837 45.7316 41.837 45.2792C41.837 44.8267 41.4704 44.4597 41.0175 44.4597Z" fill="#F7A837"/>
<path d="M52.3934 0.109375H3.60725C1.61841 0.109375 0 1.72736 0 3.71663V43.3725C0 45.3613 1.61841 46.9793 3.60725 46.9793H6.69155C7.14401 46.9793 7.51102 46.6127 7.51102 46.1599C7.51102 45.7074 7.14401 45.3404 6.69155 45.3404H3.60725C2.52204 45.3404 1.63935 44.4577 1.63935 43.3725V40.2634H31.4984V41.6759H30.8486C29.9595 41.6759 29.2366 42.3988 29.2366 43.2879V45.3404H11.6745C11.2221 45.3404 10.8551 45.7074 10.8551 46.1599C10.8551 46.6127 11.2221 46.9793 11.6745 46.9793H19.5547V49.9188H17.0801C15.4292 49.9188 14.0864 51.262 14.0864 52.9125V54.683C14.0864 55.4363 14.699 56.0489 15.4523 56.0489H40.4856C41.2388 56.0489 41.8515 55.4363 41.8515 54.683V52.9125C41.8515 51.262 40.5086 49.9188 38.8578 49.9188H36.3831V48.8827H51.5346C52.4233 48.8827 53.1462 48.1598 53.1462 47.2707V46.8849C54.7437 46.514 55.9378 45.0806 55.9378 43.3725L55.9998 3.7162C56.0002 1.72736 54.3822 0.109375 52.3934 0.109375V0.109375ZM30.8759 38.3122V34.3836H51.5073V38.3122H30.8759ZM33.1373 32.7443V31.0199H49.2454V32.7443H33.1373ZM49.2454 39.9511V41.6759H33.1373V39.9511H49.2454ZM21.1936 46.9793H29.2366V47.2711C29.2366 48.1598 29.9595 48.8827 30.8486 48.8827H34.7442V49.9188H21.1936V46.9793ZM38.8582 51.5581C39.605 51.5581 40.2126 52.1657 40.2126 52.9125V54.41H15.7253V52.9125C15.7253 52.1657 16.3333 51.5581 17.0801 51.5581H38.8582ZM51.5073 47.2434H30.8759V43.3152H51.5073V47.2434ZM54.2989 43.3725C54.2989 44.1663 53.8255 44.8503 53.1466 45.1609V43.2875C53.1466 42.3988 52.4233 41.6759 51.5346 41.6759H50.8848V40.2634H54.2989V43.3725ZM54.2989 38.6245H53.1197C53.1364 38.5318 53.1466 34.3563 53.1466 34.3563C53.1466 33.4672 52.4233 32.7443 51.5346 32.7443H50.8848V31.0199H51.5346C52.4233 31.0199 53.1466 30.2966 53.1466 29.4079V25.4247C53.1466 24.536 52.4233 23.8127 51.5346 23.8127H46.9054C46.4525 23.8127 46.0859 24.1797 46.0859 24.6325C46.0859 25.085 46.4525 25.452 46.9054 25.452H51.5073V29.3805H30.8759V25.452H41.8058C42.2586 25.452 42.6252 25.085 42.6252 24.6325C42.6252 24.1797 42.2586 23.8127 41.8058 23.8127H30.8486C29.9595 23.8127 29.2366 24.536 29.2366 25.4247V29.4079C29.2366 30.2966 29.9595 31.0199 30.8486 31.0199H31.4984V32.7443H30.8486C29.9595 32.7443 29.2366 33.4676 29.2366 34.3563C29.2366 34.3563 29.2468 38.5318 29.2635 38.6245H1.63935V11.258H54.2989V38.6245ZM54.2989 9.61863H1.69959V3.7162C1.69959 2.63142 2.58229 1.74872 3.66749 1.74872H52.331C53.4162 1.74872 54.2989 2.63142 54.2989 3.71663V9.61863Z" fill="#F7A837"/>
<path d="M6.04463 3.25513C4.71845 3.25513 3.63965 4.33393 3.63965 5.66011C3.63965 6.98628 4.71845 8.06551 6.04463 8.06551C7.3708 8.06551 8.45003 6.98628 8.45003 5.66011C8.45003 4.33393 7.3708 3.25513 6.04463 3.25513ZM6.04463 6.42616C5.6225 6.42616 5.27857 6.08265 5.27857 5.66011C5.27857 5.23799 5.6225 4.89405 6.04463 4.89405C6.46717 4.89405 6.81068 5.23799 6.81068 5.66011C6.81068 6.08265 6.46717 6.42616 6.04463 6.42616Z" fill="#F7A837"/>
<path d="M12.1681 3.25513C10.8419 3.25513 9.7627 4.33393 9.7627 5.66011C9.7627 6.98628 10.8419 8.06551 12.1681 8.06551C13.4943 8.06551 14.5731 6.98628 14.5731 5.66011C14.5731 4.33393 13.4939 3.25513 12.1681 3.25513ZM12.1681 6.42616C11.7456 6.42616 11.402 6.08265 11.402 5.66011C11.402 5.23799 11.7456 4.89405 12.1681 4.89405C12.5902 4.89405 12.9342 5.23799 12.9342 5.66011C12.9342 6.08265 12.5902 6.42616 12.1681 6.42616Z" fill="#F7A837"/>
<path d="M18.2917 3.25513C16.9655 3.25513 15.8867 4.33393 15.8867 5.66011C15.8867 6.98628 16.9655 8.06551 18.2917 8.06551C19.6179 8.06551 20.6971 6.98628 20.6971 5.66011C20.6971 4.33393 19.6179 3.25513 18.2917 3.25513ZM18.2917 6.42616C17.8696 6.42616 17.5256 6.08265 17.5256 5.66011C17.5256 5.23799 17.8696 4.89405 18.2917 4.89405C18.7142 4.89405 19.0577 5.23799 19.0577 5.66011C19.0577 6.08265 18.7142 6.42616 18.2917 6.42616Z" fill="#F7A837"/>
</g>
<defs>
<clipPath id="clip0">
<rect width="56" height="56" fill="white"/>
</clipPath>
</defs>
</svg>
