<svg width="56" height="56" viewBox="0 0 56 56" fill="none" xmlns="http://www.w3.org/2000/svg">
<g clip-path="url(#clip0)">
<path d="M48.1299 0H45.7222C44.6638 0 44.6638 1.64086 45.7222 1.64086H48.1299C50.6163 1.64086 52.6393 3.6565 52.6393 6.13398V25.1212C52.6393 27.5988 50.6164 29.6144 48.1299 29.6144H45.3991C45.219 29.6144 45.0438 29.6737 44.9006 29.7832L39.8899 33.616V30.4348C39.8899 29.9817 39.5227 29.6144 39.0695 29.6144H29.0843C28.2666 29.6144 27.4807 29.3986 26.7876 28.9882V19.7784C26.7876 18.0533 25.909 16.5292 24.5747 15.6275V6.13398C24.5747 3.6565 26.5977 1.64086 29.0843 1.64086H40.5808C41.639 1.64086 41.639 0 40.5808 0H29.0843C25.6929 0 22.9339 2.75173 22.9339 6.13398V14.9064C22.5582 14.8167 22.1668 14.7678 21.764 14.7678H6.74513C3.97524 14.7678 1.72168 17.0155 1.72168 19.7784V21.55C1.72168 22.6082 3.36254 22.6082 3.36254 21.55V19.7784C3.36254 17.9203 4.8799 16.4086 6.74513 16.4086H21.7642C23.6294 16.4086 25.1468 17.9203 25.1468 19.7784V29.3149C25.137 29.3873 25.1374 29.4603 25.1468 29.5321V34.7514C25.1468 34.8545 25.1406 34.9573 25.1313 35.0594H23.4394C21.575 35.0594 20.0208 36.405 19.6985 38.1736C19.6239 38.2017 19.5523 38.241 19.4859 38.2921L15.8164 41.1255V38.9416C15.8164 38.4885 15.4491 38.1212 14.9959 38.1212H6.74513C4.8799 38.1212 3.36254 36.6095 3.36254 34.7514V26.4726C3.36254 25.4143 1.72168 25.4143 1.72168 26.4726V34.7515C1.72168 37.5144 3.97524 39.7621 6.74513 39.7621H14.1756V42.7956C14.1756 43.4536 14.9747 43.8484 15.4975 43.445L19.6363 40.2494V49.4792C19.6363 51.5713 21.3425 53.2732 23.4395 53.2732H28.4742V55.1877C28.4742 55.8455 29.2733 56.2408 29.796 55.8371L33.1166 53.2732H34.0976C36.1947 53.2732 37.9008 51.5712 37.9008 49.4792V48.0226C37.9008 46.9643 36.26 46.9643 36.26 48.0226V49.4792C36.26 50.6665 35.29 51.6324 34.0976 51.6324H32.8367C32.6552 51.6324 32.4789 51.6925 32.3354 51.8033L30.1149 53.5176V52.4527C30.1149 51.9996 29.7477 51.6322 29.2945 51.6322H23.4394C22.2471 51.6322 21.277 50.6663 21.277 49.4791V38.8535C21.277 37.6662 22.247 36.7004 23.4394 36.7004H34.0976C35.2899 36.7004 36.26 37.6663 36.26 38.8535V42.8812C36.26 43.9394 37.9008 43.9394 37.9008 42.8812V38.8537C37.9008 36.7616 36.1947 35.0597 34.0976 35.0597H26.7783C26.7845 34.9571 26.7877 30.8133 26.7877 30.8133C27.5111 31.1042 28.2867 31.2554 29.0844 31.2554H38.2491V35.2766C38.2491 35.933 39.0448 36.3283 39.5681 35.9282L45.6771 31.2554H48.13C51.5212 31.2554 54.2803 28.5036 54.2803 25.1213V6.13398C54.2801 2.75173 51.5211 0 48.1299 0V0Z" fill="#F7A837"/>
<path d="M40.6565 6.06154C39.6148 5.79561 38.5533 6.61867 38.5533 7.69507C38.5533 8.87113 38.1247 10.0045 37.347 10.8859L35.0866 13.4438C34.9402 13.2192 34.6873 13.0705 34.3993 13.0705H29.9864C29.5332 13.0705 29.166 13.4379 29.166 13.891V23.8198C29.166 24.2729 29.5332 24.6403 29.9864 24.6403H34.3993C34.7308 24.6403 35.0157 24.4432 35.1451 24.1604C36.0385 24.7062 37.0738 25.0014 38.1271 25.0014H45.9258C47.1175 25.0014 48.1006 23.9673 48.0447 22.7786C48.0199 22.2523 48.047 15.1842 48.047 15.0272C48.047 13.8576 47.0954 12.9059 45.9282 12.9059L41.8727 12.8938L42.0407 12.4961C42.808 10.6788 42.6817 8.57151 41.7031 6.85878C41.4747 6.45863 41.1029 6.17563 40.6565 6.06154C41.1029 6.17563 40.21 5.94755 40.6565 6.06154C41.1029 6.17563 39.6149 5.79561 40.6565 6.06154ZM33.5788 22.9994H30.8069V14.7114H33.5788V22.9994ZM45.9258 14.5467C46.1907 14.5467 46.4062 14.7622 46.4062 15.0271C46.4062 15.1832 46.4046 15.6069 46.4024 16.1813C46.3903 19.3527 46.3822 22.3564 46.4056 22.8557C46.4141 23.0358 46.3265 23.1559 46.2735 23.2115C46.1819 23.3075 46.0584 23.3604 45.9258 23.3604H38.1271C37.1975 23.3604 36.2877 23.0382 35.5651 22.4533L35.2197 22.1737V15.771L38.577 11.9719C39.6198 10.7901 40.1941 9.27117 40.1941 7.69496C40.1941 7.64858 40.2575 7.63655 40.2785 7.67265C41.0051 8.9441 41.0987 10.5085 40.5291 11.8576L39.8816 13.3912C39.7747 13.6442 39.8016 13.9337 39.9529 14.1628C40.1044 14.3919 40.3604 14.5299 40.6349 14.5308L45.9258 14.5467Z" fill="#F7A837"/>
<path d="M8.74621 28.4961C8.29301 28.4961 7.92578 28.8634 7.92578 29.3165C7.92578 29.7696 8.29301 30.1369 8.74621 30.1369H11.1646L10.7128 32.8694C10.6389 33.3164 10.9415 33.7388 11.3884 33.8127C11.4338 33.8202 11.4788 33.8239 11.5232 33.8239C11.9175 33.8239 12.2652 33.5389 12.3317 33.1371L12.8277 30.1371H14.8069L14.3551 32.8695C14.2812 33.3165 14.5837 33.7389 15.0307 33.8128C15.0761 33.8204 15.1211 33.824 15.1655 33.824C15.5597 33.824 15.9075 33.539 15.974 33.1372L16.47 30.1372H19.7619C20.2151 30.1372 20.5823 29.7698 20.5823 29.3167C20.5823 28.8636 20.2151 28.4963 19.7619 28.4963H16.7413L17.0722 26.4949H19.7619C20.2151 26.4949 20.5823 26.1276 20.5823 25.6745C20.5823 25.2214 20.2151 24.854 19.7619 24.854H17.3435L17.7952 22.1216C17.8692 21.6746 17.5666 21.2522 17.1196 21.1783C16.6721 21.1041 16.2503 21.4069 16.1764 21.8539L15.6804 24.8539H13.7012L14.153 22.1214C14.2269 21.6745 13.9243 21.2521 13.4774 21.1782C13.0293 21.104 12.6081 21.4068 12.5341 21.8538L12.0381 24.8538H8.74621C8.29301 24.8538 7.92578 25.2211 7.92578 25.6742C7.92578 26.1273 8.29301 26.4947 8.74621 26.4947H11.7668L11.4359 28.4961H8.74621ZM13.43 26.4947H15.4092L15.0783 28.4961H13.0991L13.43 26.4947Z" fill="#F7A837"/>
<path d="M28.7578 40.9337C28.0954 40.3883 27.214 40.1732 26.3299 40.3881C25.197 40.6632 24.0537 41.7223 24.0537 43.4681C24.0537 44.5547 24.4503 45.4979 25.266 46.3515C25.9323 47.0489 26.8938 47.712 28.3835 48.5018C28.5037 48.5656 28.6358 48.5975 28.7678 48.5975C28.8998 48.5975 29.0319 48.5656 29.1521 48.5018C31.751 47.1241 33.4818 45.7408 33.4818 43.4681C33.4818 41.7128 32.298 40.6645 31.1246 40.4043C30.2432 40.2087 29.3886 40.4163 28.7578 40.9337ZM31.8408 43.4681C31.8408 44.6939 31.0277 45.6005 28.7677 46.8446C26.5077 45.6004 25.6945 44.6938 25.6945 43.4681C25.6945 42.556 26.2226 42.1027 26.7169 41.9826C26.8081 41.9605 26.9056 41.948 27.006 41.948C27.3778 41.948 27.7866 42.1198 28.0386 42.6084C28.1822 42.8865 28.4726 43.0589 28.784 43.0524C29.0967 43.0462 29.3789 42.8626 29.5111 42.5791C29.7766 42.01 30.3349 41.91 30.769 42.0063C31.2873 42.1211 31.8408 42.5655 31.8408 43.4681Z" fill="#F7A837"/>
</g>
<defs>
<clipPath id="clip0">
<rect width="56" height="56" fill="white"/>
</clipPath>
</defs>
</svg>
