<svg width="184" height="184" viewBox="0 0 184 184" fill="none" xmlns="http://www.w3.org/2000/svg">
<g filter="url(#filter0_d)">
<path d="M89 172C135.392 172 173 134.392 173 88C173 41.6081 135.392 4 89 4C42.6081 4 5 41.6081 5 88C5 134.392 42.6081 172 89 172Z" fill="#19839B"/>
</g>
<path d="M126.961 37H122.36C120.338 37 120.338 40.1352 122.36 40.1352H126.961C131.712 40.1352 135.577 43.9865 135.577 48.7203V84.9994C135.577 89.7333 131.712 93.5846 126.961 93.5846H121.743C121.399 93.5846 121.064 93.6979 120.791 93.9072L111.217 101.231V95.1523C111.217 94.2865 110.515 93.5846 109.649 93.5846H90.5701C89.0077 93.5846 87.5061 93.1723 86.1818 92.3882V74.7909C86.1818 71.4947 84.503 68.5825 81.9537 66.8596V48.7203C81.9537 43.9865 85.819 40.1352 90.5701 40.1352H112.537C114.559 40.1352 114.559 37 112.537 37H90.5701C84.0902 37 78.8184 42.2578 78.8184 48.7203V65.4818C78.1007 65.3104 77.3528 65.217 76.5832 65.217H47.8864C42.5939 65.217 38.288 69.5118 38.288 74.7909V78.1759C38.288 80.1979 41.4232 80.1979 41.4232 78.1759V74.7909C41.4232 71.2406 44.3225 68.3522 47.8864 68.3522H76.5834C80.1473 68.3522 83.0468 71.2406 83.0468 74.7909V93.0124C83.028 93.1507 83.0288 93.2901 83.0468 93.4275V103.4C83.0468 103.597 83.0349 103.793 83.0171 103.989H79.7843C76.2221 103.989 73.2524 106.56 72.6366 109.939C72.4941 109.992 72.3572 110.068 72.2303 110.165L65.2189 115.579V111.406C65.2189 110.541 64.5172 109.839 63.6513 109.839H47.8864C44.3225 109.839 41.4232 106.95 41.4232 103.4V87.5815C41.4232 85.5595 38.288 85.5595 38.288 87.5815V103.4C38.288 108.679 42.5939 112.974 47.8864 112.974H62.0839V118.77C62.0839 120.028 63.6107 120.782 64.6096 120.011L72.5177 113.905V131.541C72.5177 135.538 75.7777 138.79 79.7845 138.79H89.4044V142.448C89.4044 143.705 90.9312 144.46 91.9299 143.689L98.2748 138.79H100.149C104.156 138.79 107.416 135.538 107.416 131.541V128.757C107.416 126.735 104.281 126.735 104.281 128.757V131.541C104.281 133.809 102.427 135.655 100.149 135.655H97.7399C97.3931 135.655 97.0562 135.77 96.782 135.981L92.5394 139.257V137.222C92.5394 136.356 91.8377 135.654 90.9718 135.654H79.7843C77.5062 135.654 75.6527 133.809 75.6527 131.54V111.238C75.6527 108.969 77.506 107.124 79.7843 107.124H100.149C102.427 107.124 104.281 108.97 104.281 111.238V118.934C104.281 120.956 107.416 120.956 107.416 118.934V111.238C107.416 107.241 104.156 103.989 100.149 103.989H86.164C86.176 103.793 86.182 95.8754 86.182 95.8754C87.5642 96.4312 89.0461 96.7201 90.5703 96.7201H108.082V104.403C108.082 105.658 109.602 106.413 110.602 105.649L122.274 96.7201H126.961C133.441 96.7201 138.712 91.4623 138.712 84.9996V48.7203C138.712 42.2578 133.44 37 126.961 37Z" fill="#F2F2F2"/>
<path d="M112.682 48.582C110.692 48.0739 108.664 49.6465 108.664 51.7032C108.664 53.9503 107.845 56.1159 106.359 57.7999L102.04 62.6873C101.76 62.2582 101.277 61.9742 100.727 61.9742H92.2949C91.4289 61.9742 90.7273 62.676 90.7273 63.5418V82.513C90.7273 83.3787 91.4289 84.0806 92.2949 84.0806H100.727C101.36 84.0806 101.904 83.7042 102.152 83.1637C103.859 84.2066 105.837 84.7706 107.849 84.7706H122.75C125.027 84.7706 126.906 82.7947 126.799 80.5236C126.752 79.5178 126.803 66.0128 126.803 65.7128C126.803 63.478 124.985 61.6596 122.755 61.6596L115.006 61.6364L115.327 60.8766C116.793 57.4043 116.552 53.3778 114.682 50.1053C114.246 49.3407 113.535 48.8 112.682 48.582C113.535 48.8 111.829 48.3642 112.682 48.582C113.535 48.8 110.692 48.0739 112.682 48.582ZM99.1589 80.9454H93.8625V65.1094H99.1589V80.9454ZM122.75 64.7946C123.257 64.7946 123.668 65.2064 123.668 65.7126C123.668 66.0109 123.665 66.8204 123.661 67.9179C123.638 73.9777 123.622 79.7168 123.667 80.6707C123.683 81.015 123.516 81.2445 123.415 81.3507C123.24 81.5342 123.004 81.6351 122.75 81.6351H107.849C106.073 81.6351 104.335 81.0196 102.954 79.902L102.294 79.3677V67.1339L108.709 59.875C110.702 57.6168 111.799 54.7147 111.799 51.703C111.799 51.6144 111.92 51.5914 111.96 51.6604C113.348 54.0897 113.527 57.0788 112.439 59.6566L111.202 62.5868C110.998 63.0702 111.049 63.6235 111.338 64.0612C111.627 64.4989 112.117 64.7626 112.641 64.7643L122.75 64.7946Z" fill="#F2F2F2"/>
<path d="M51.7109 91.4479C50.845 91.4479 50.1433 92.1498 50.1433 93.0155C50.1433 93.8812 50.845 94.5831 51.7109 94.5831H56.3318L55.4686 99.8041C55.3273 100.658 55.9054 101.465 56.7595 101.606C56.8462 101.621 56.9321 101.628 57.017 101.628C57.7703 101.628 58.4347 101.083 58.5618 100.316L59.5095 94.5833H63.2912L62.4279 99.8043C62.2866 100.658 62.8648 101.465 63.7188 101.607C63.8056 101.621 63.8915 101.628 63.9763 101.628C64.7296 101.628 65.3941 101.083 65.5211 100.316L66.4688 94.5835H72.7587C73.6246 94.5835 74.3263 93.8817 74.3263 93.0159C74.3263 92.1502 73.6246 91.4483 72.7587 91.4483H66.9872L67.6194 87.6242H72.7587C73.6246 87.6242 74.3263 86.9223 74.3263 86.0566C74.3263 85.1908 73.6246 84.489 72.7587 84.489H68.1378L69.001 79.268C69.1423 78.414 68.5642 77.607 67.7102 77.4657C66.8551 77.3239 66.0491 77.9025 65.9078 78.7565L64.9601 84.4888H61.1784L62.0417 79.2678C62.183 78.4137 61.6048 77.6067 60.7508 77.4654C59.8947 77.3237 59.09 77.9023 58.9485 78.7563L58.0008 84.4885H51.7109C50.845 84.4885 50.1433 85.1904 50.1433 86.0562C50.1433 86.9219 50.845 87.6238 51.7109 87.6238H57.4824L56.8502 91.4479H51.7109ZM60.6603 87.6238H64.442L63.8097 91.4479H60.028L60.6603 87.6238Z" fill="#F2F2F2"/>
<path d="M89.9479 115.213C88.6821 114.17 86.998 113.759 85.3088 114.17C83.144 114.696 80.9596 116.719 80.9596 120.055C80.9596 122.131 81.7173 123.933 83.2759 125.564C84.549 126.897 86.3862 128.164 89.2326 129.673C89.4623 129.795 89.7146 129.856 89.9669 129.856C90.2192 129.856 90.4714 129.795 90.7011 129.673C95.6669 127.04 98.974 124.397 98.974 120.055C98.974 116.701 96.712 114.698 94.4701 114.201C92.7859 113.827 91.153 114.224 89.9479 115.213ZM95.8385 120.055C95.8385 122.397 94.2849 124.129 89.9667 126.506C85.6484 124.129 84.0946 122.397 84.0946 120.055C84.0946 118.312 85.1037 117.446 86.0483 117.217C86.2224 117.174 86.4088 117.151 86.6005 117.151C87.3109 117.151 88.092 117.479 88.5736 118.412C88.848 118.944 89.4027 119.273 89.9978 119.261C90.5954 119.249 91.1344 118.898 91.3871 118.356C91.8944 117.269 92.9612 117.078 93.7906 117.262C94.7809 117.481 95.8385 118.33 95.8385 120.055Z" fill="#F2F2F2"/>
<defs>
<filter id="filter0_d" x="0" y="0" width="184" height="184" filterUnits="userSpaceOnUse" color-interpolation-filters="sRGB">
<feFlood flood-opacity="0" result="BackgroundImageFix"/>
<feColorMatrix in="SourceAlpha" type="matrix" values="0 0 0 0 0 0 0 0 0 0 0 0 0 0 0 0 0 0 127 0"/>
<feOffset dx="3" dy="4"/>
<feGaussianBlur stdDeviation="4"/>
<feColorMatrix type="matrix" values="0 0 0 0 0 0 0 0 0 0 0 0 0 0 0 0 0 0 0.25 0"/>
<feBlend mode="normal" in2="BackgroundImageFix" result="effect1_dropShadow"/>
<feBlend mode="normal" in="SourceGraphic" in2="effect1_dropShadow" result="shape"/>
</filter>
</defs>
</svg>
