<svg width="184" height="184" viewBox="0 0 184 184" fill="none" xmlns="http://www.w3.org/2000/svg">
<g filter="url(#filter0_d)">
<path d="M89 172C135.392 172 173 134.392 173 88C173 41.6081 135.392 4 89 4C42.6081 4 5 41.6081 5 88C5 134.392 42.6081 172 89 172Z" fill="#19839B"/>
</g>
<path d="M87.2114 44.5083H72.5891C71.4676 44.5083 70.5582 45.4175 70.5582 46.5391C70.5582 47.6608 71.4676 48.57 72.5891 48.57H87.2114C88.3329 48.57 89.2423 47.6608 89.2423 46.5391C89.2423 45.4175 88.3329 44.5083 87.2114 44.5083Z" fill="#F2F2F2"/>
<path d="M81.3358 130.758C80.9582 130.38 80.4344 130.163 79.9001 130.163C79.3659 130.163 78.8421 130.38 78.4642 130.758C78.0864 131.136 77.8693 131.659 77.8693 132.194C77.8693 132.728 78.0864 133.252 78.4642 133.63C78.8421 134.007 79.3659 134.224 79.9001 134.224C80.4344 134.224 80.9582 134.007 81.3358 133.63C81.7136 133.252 81.931 132.728 81.931 132.194C81.931 131.657 81.7138 131.135 81.3358 130.758Z" fill="#F2F2F2"/>
<path d="M137.925 102.566L130.453 89.6246C133.517 86.7859 134.335 82.1017 132.16 78.3351C130.937 76.2177 128.964 74.703 126.602 74.0703C124.909 73.6165 123.162 73.6577 121.529 74.1664L114.058 61.2271C113.721 60.6429 113.115 60.2641 112.442 60.2168C111.768 60.1686 111.116 60.4595 110.7 60.9905L87.441 90.693L77.6796 96.3287C72.1095 99.5444 70.1944 106.692 73.4103 112.262C74.9683 114.961 77.4834 116.891 80.4931 117.697C81.4979 117.966 82.5176 118.1 83.5308 118.1C85.5519 118.1 87.5466 117.57 89.344 116.532L90.5065 115.861L94.5611 122.883H51.0617V55.069H108.739V55.6781C108.739 56.7998 109.648 57.709 110.769 57.709C111.891 57.709 112.8 56.7998 112.8 55.6781V45.983C112.8 41.5866 109.223 38.0095 104.827 38.0095H54.9735C50.5768 38.0095 47 41.5863 47 45.983V134.017C47 138.414 50.5768 141.991 54.9735 141.991H104.827C109.224 141.991 112.801 138.414 112.801 134.017V108.954L136.453 105.592C137.12 105.497 137.698 105.077 137.993 104.47C138.288 103.864 138.263 103.15 137.925 102.566ZM51.0617 45.983C51.0617 43.826 52.8165 42.0714 54.9733 42.0714H104.827C106.984 42.0714 108.739 43.826 108.739 45.983V51.0071H51.0617V45.983ZM125.551 77.9937C126.864 78.3457 127.962 79.1882 128.642 80.3662C129.685 82.1725 129.491 84.3588 128.326 85.9393L123.656 77.8515C124.283 77.7802 124.923 77.8255 125.551 77.9937ZM87.3132 113.014C85.5545 114.03 83.5052 114.299 81.5442 113.774C79.5829 113.248 77.9435 111.99 76.928 110.231C74.8322 106.601 76.0804 101.942 79.7106 99.846L88.0542 95.0289L95.656 108.197L87.3132 113.014ZM94.0242 113.83L97.6868 111.715L102.485 120.025L98.8223 122.14L94.0242 113.83ZM108.739 134.017C108.739 136.174 106.984 137.929 104.827 137.929H54.9735C52.8167 137.929 51.0619 136.174 51.0619 134.017V126.945H108.739V134.017ZM108.739 122.883H105.658L106.274 122.527C107.245 121.967 107.578 120.725 107.017 119.753L101.694 110.533L108.739 109.531V122.883ZM99.5062 106.741L91.2418 92.4271L106.013 73.5645L123.221 103.37L99.5062 106.741ZM127.556 102.754L108.712 70.1169L112.044 65.8622L132.905 101.994L127.556 102.754Z" fill="#F2F2F2"/>
<path d="M150.727 67.6847C150.167 66.7135 148.925 66.3804 147.953 66.9415L137.996 72.6907C137.024 73.2513 136.691 74.4934 137.252 75.4648C137.629 76.1162 138.311 76.4804 139.013 76.4804C139.358 76.4804 139.707 76.3927 140.026 76.208L149.984 70.4588C150.956 69.8981 151.288 68.656 150.727 67.6847Z" fill="#F2F2F2"/>
<path d="M132.346 58.768C131.262 58.4775 130.149 59.1208 129.859 60.2041L128.407 65.6222C128.116 66.7059 128.759 67.8194 129.843 68.1097C130.019 68.1568 130.196 68.1794 130.37 68.1794C131.266 68.1794 132.087 67.581 132.33 66.6736L133.782 61.2555C134.072 60.1718 133.429 59.0583 132.346 58.768Z" fill="#F2F2F2"/>
<path d="M147.856 85.3356L142.257 83.8351C141.173 83.5447 140.06 84.188 139.77 85.2712C139.479 86.3547 140.122 87.4682 141.206 87.7587L146.805 89.2592C146.981 89.3063 147.158 89.3289 147.332 89.3289C148.229 89.3289 149.049 88.7304 149.293 87.8231C149.583 86.7394 148.94 85.6257 147.856 85.3356Z" fill="#F2F2F2"/>
<path d="M85.519 60.9924H57.4953C56.3738 60.9924 55.4644 61.9016 55.4644 63.0233C55.4644 64.1449 56.3738 65.0541 57.4953 65.0541H85.5192C86.6407 65.0541 87.55 64.1449 87.55 63.0233C87.55 61.9016 86.6405 60.9924 85.519 60.9924Z" fill="#F2F2F2"/>
<path d="M86.9555 71.3361C86.5777 70.9563 86.0538 70.741 85.5196 70.741C84.9834 70.741 84.4615 70.9563 84.0837 71.3361C83.7039 71.7139 83.4888 72.2378 83.4888 72.772C83.4888 73.3062 83.7041 73.8301 84.0837 74.2079C84.4615 74.5855 84.9834 74.8029 85.5196 74.8029C86.0538 74.8029 86.5777 74.5855 86.9555 74.2079C87.3331 73.8301 87.5505 73.3062 87.5505 72.772C87.5505 72.2378 87.3333 71.7139 86.9555 71.3361Z" fill="#F2F2F2"/>
<path d="M77.1247 70.7407H57.4953C56.3738 70.7407 55.4644 71.6499 55.4644 72.7716C55.4644 73.8932 56.3738 74.8024 57.4953 74.8024H77.1247C78.2461 74.8024 79.1555 73.8932 79.1555 72.7716C79.1555 71.6499 78.2461 70.7407 77.1247 70.7407Z" fill="#F2F2F2"/>
<path d="M80.6941 80.489H65.2963C64.1748 80.489 63.2654 81.3982 63.2654 82.5199C63.2654 83.6415 64.1746 84.5507 65.2963 84.5507H80.6939C81.8154 84.5507 82.7248 83.6415 82.7248 82.5199C82.7248 81.3982 81.8156 80.489 80.6941 80.489Z" fill="#F2F2F2"/>
<path d="M57.5724 80.489H57.4782C56.3567 80.489 55.4473 81.3982 55.4473 82.5199C55.4473 83.6415 56.3567 84.5507 57.4782 84.5507H57.5724C58.6939 84.5507 59.6033 83.6415 59.6033 82.5199C59.6033 81.3982 58.6939 80.489 57.5724 80.489Z" fill="#F2F2F2"/>
<defs>
<filter id="filter0_d" x="0" y="0" width="184" height="184" filterUnits="userSpaceOnUse" color-interpolation-filters="sRGB">
<feFlood flood-opacity="0" result="BackgroundImageFix"/>
<feColorMatrix in="SourceAlpha" type="matrix" values="0 0 0 0 0 0 0 0 0 0 0 0 0 0 0 0 0 0 127 0"/>
<feOffset dx="3" dy="4"/>
<feGaussianBlur stdDeviation="4"/>
<feColorMatrix type="matrix" values="0 0 0 0 0 0 0 0 0 0 0 0 0 0 0 0 0 0 0.25 0"/>
<feBlend mode="normal" in2="BackgroundImageFix" result="effect1_dropShadow"/>
<feBlend mode="normal" in="SourceGraphic" in2="effect1_dropShadow" result="shape"/>
</filter>
</defs>
</svg>
