<svg width="184" height="184" viewBox="0 0 184 184" fill="none" xmlns="http://www.w3.org/2000/svg">
<g filter="url(#filter0_d)">
<path d="M89 172C135.392 172 173 134.392 173 88C173 41.6081 135.392 4 89 4C42.6081 4 5 41.6081 5 88C5 134.392 42.6081 172 89 172Z" fill="#19839B"/>
</g>
<path d="M142.564 76.6337L124.655 53.3695C123.992 52.509 122.783 52.2968 121.866 52.8796L110.304 60.2333H95.2234C95.0283 60.2333 94.834 60.2749 94.6463 60.3296L82.9537 63.6954L70.8212 60.377L59.0324 52.8796C58.1311 52.3066 56.9442 52.5009 56.2739 53.3319L36.4653 77.868C35.7535 78.7496 35.871 80.037 36.7298 80.7758L47.1121 89.7107L56.4266 102.263C53.7024 105.165 53.7555 109.742 56.5899 112.577C57.8462 113.833 59.4438 114.542 61.0871 114.707C61.03 115.079 61.0006 115.457 61.0006 115.841C61.0006 117.822 61.772 119.684 63.1721 121.084C64.5729 122.485 66.435 123.256 68.4154 123.256C68.4424 123.256 68.4685 123.254 68.4946 123.254C68.4938 123.304 68.4914 123.354 68.4914 123.405C68.4914 125.385 69.2628 127.247 70.6628 128.648C72.0637 130.048 73.9258 130.819 75.9062 130.819C76.2973 130.819 76.6842 130.788 77.0638 130.729C77.2246 132.378 77.9357 133.983 79.1961 135.243C80.641 136.689 82.5398 137.411 84.4387 137.411C86.3375 137.411 88.2363 136.689 89.6821 135.243L90.816 134.109L91.2919 134.493C92.7254 135.882 94.5867 136.575 96.4479 136.575C98.3467 136.575 100.246 135.853 101.69 134.407C103.166 132.932 103.888 130.985 103.858 129.048C105.794 129.077 107.742 128.356 109.217 126.881C110.691 125.407 111.413 123.462 111.385 121.525C113.402 121.557 115.315 120.782 116.743 119.355C118.218 117.88 118.941 115.933 118.91 113.995C120.848 114.025 122.795 113.303 124.27 111.828C126.787 109.31 127.111 105.419 125.245 102.546L132.045 88.3025L142.27 79.5039C143.115 78.7766 143.244 77.5161 142.564 76.6337ZM58.3613 57.4259L66.8383 62.8162L48.3978 85.282L41.0083 78.9219L58.3613 57.4259ZM59.5573 105.058L62.1157 102.5C62.1933 102.422 62.2749 102.349 62.3582 102.28C62.8586 101.872 63.4643 101.629 64.106 101.571C64.1239 101.569 64.1427 101.569 64.1606 101.568C64.2521 101.561 64.3435 101.556 64.4358 101.557C65.3125 101.569 66.1272 101.927 66.7313 102.565C67.9167 103.818 67.853 105.865 66.5893 107.129L64.1084 109.61C62.8537 110.865 60.812 110.865 59.5573 109.61C58.3026 108.354 58.3026 106.313 59.5573 105.058ZM66.1395 118.116C65.5313 117.509 65.1966 116.701 65.1966 115.841C65.1966 114.981 65.5313 114.173 66.1395 113.565L71.1004 108.604C72.0506 107.654 73.5445 107.394 74.7593 107.972C76.0115 108.569 76.716 109.928 76.5324 111.296C76.4344 112.026 76.0948 112.713 75.574 113.235L70.6914 118.116C70.0832 118.724 69.2751 119.059 68.4154 119.059C67.5558 119.059 66.7476 118.724 66.1395 118.116ZM73.6303 125.68C73.0221 125.072 72.6874 124.264 72.6874 123.405C72.6874 122.545 73.0221 121.737 73.6303 121.129L78.5904 116.168C79.6067 115.152 81.237 114.933 82.4811 115.657C83.6174 116.319 84.2125 117.617 84.0174 118.91C83.9105 119.621 83.5725 120.289 83.0639 120.798L78.1822 125.68C77.574 126.288 76.7658 126.623 75.9062 126.623C75.0466 126.623 74.2384 126.288 73.6303 125.68ZM82.1627 132.276C80.908 131.021 80.908 128.979 82.1627 127.725L84.7211 125.166C84.7987 125.089 84.8795 125.016 84.9628 124.947C84.9652 124.946 84.9668 124.944 84.9685 124.943C85.3848 124.605 85.8738 124.378 86.3954 124.28C86.4077 124.278 86.4199 124.276 86.4322 124.275C86.522 124.258 86.6134 124.245 86.7048 124.237C86.7416 124.234 86.7783 124.234 86.8159 124.232C86.891 124.227 86.9653 124.223 87.0412 124.223C87.9171 124.236 88.7326 124.593 89.3367 125.232C89.411 125.31 89.4804 125.392 89.5441 125.476C90.509 126.737 90.3792 128.61 89.1816 129.809L86.7138 132.277C85.4591 133.531 83.4174 133.531 82.1627 132.276ZM121.302 108.861C120.048 110.116 118.006 110.115 116.751 108.861C116.706 108.815 116.657 108.772 116.608 108.732L103.117 95.0994C102.302 94.2757 100.974 94.2692 100.15 95.0847C99.3264 95.8994 99.3198 97.2276 100.135 98.0513L113.772 111.83C113.773 111.832 113.775 111.834 113.776 111.835C115.031 113.09 115.031 115.133 113.776 116.387C113.168 116.995 112.36 117.33 111.501 117.33C110.64 117.33 109.832 116.995 109.225 116.387L100.102 107.17C99.2872 106.346 97.959 106.34 97.1353 107.154C96.3116 107.97 96.3051 109.298 97.1198 110.122L106.103 119.198C106.149 119.255 106.198 119.31 106.25 119.362C107.505 120.617 107.505 122.659 106.25 123.914C104.994 125.169 102.952 125.168 101.697 123.913L96.7181 118.882C95.9026 118.058 94.5744 118.051 93.7507 118.866C92.927 119.681 92.9205 121.009 93.7352 121.833L98.5753 126.723C98.621 126.78 98.67 126.836 98.7231 126.888C99.9778 128.143 99.9778 130.185 98.7231 131.44C97.4684 132.695 95.4267 132.695 94.172 131.44C94.0275 131.295 93.8577 131.184 93.696 131.06C93.5589 130.956 93.523 130.883 93.5915 130.717C93.6609 130.548 93.7646 130.395 93.834 130.225C93.9107 130.036 93.9728 129.841 94.0332 129.645C94.3548 128.608 94.4495 127.493 94.305 126.417C94.0275 124.352 92.8919 122.489 91.1711 121.311C90.2413 120.675 89.1653 120.258 88.0502 120.101C88.5906 117.717 87.9416 115.133 86.2534 113.349C84.864 111.881 82.9872 111.057 80.9684 111.03C80.8949 111.029 80.8214 111.029 80.7472 111.03C80.7921 109.103 80.0916 107.189 78.7634 105.785C77.3732 104.318 75.4964 103.494 73.4784 103.466C72.8784 103.458 72.2727 103.522 71.6882 103.656C71.4384 101.918 70.5624 100.31 69.2359 99.1599C67.9175 98.0187 66.2595 97.3852 64.4937 97.3607C62.6349 97.3337 60.8087 98.0195 59.4283 99.266L51.3179 88.3376L70.7208 64.6995L76.9046 66.391L68.8285 80.6419C67.8522 82.3652 67.6056 84.3653 68.1338 86.2739C68.662 88.1833 69.9012 89.7719 71.6245 90.7483C71.7323 90.8095 71.8408 90.8675 71.951 90.923C71.9592 90.9271 71.9674 90.9311 71.9763 90.9352C72.2661 91.0797 72.5641 91.2038 72.8662 91.3083C74.2727 91.7956 75.7919 91.8487 77.2573 91.4438C79.1659 90.9156 80.7545 89.6756 81.7309 87.9531L86.9791 78.6917L96.35 79.3562L121.303 104.309C122.557 105.564 122.557 107.606 121.302 108.861ZM122.172 99.2432L98.7631 75.8353C98.719 75.7904 98.6725 75.7479 98.6243 75.7079C98.2872 75.4271 97.8692 75.2573 97.4284 75.2263L85.9546 74.4124C85.1611 74.3577 84.3725 74.7797 83.9807 75.4712L78.0802 85.8845C77.6565 86.6323 76.9667 87.1702 76.1381 87.3996C75.3103 87.629 74.4417 87.5213 73.6931 87.0976C72.9453 86.6739 72.4074 85.9841 72.178 85.1555C71.9486 84.3269 72.0555 83.4583 72.48 82.7105L80.3569 68.809L83.5489 67.8906C83.5701 67.8841 83.5905 67.8759 83.6117 67.8694L95.5246 64.4293H109.918L127.888 87.2723L122.172 99.2432ZM130.636 83.9791L114.019 62.8431L122.5 57.4495L138.028 77.619L130.636 83.9791Z" fill="#F2F2F2"/>
<path d="M100.824 56.2937C101.361 56.2937 101.898 56.0888 102.308 55.679L116.639 41.3473C117.459 40.5276 117.459 39.1995 116.639 38.3798C115.82 37.5602 114.492 37.5602 113.672 38.3798L99.3402 52.7116C98.5206 53.5312 98.5206 54.8594 99.3402 55.679C99.75 56.0888 100.287 56.2937 100.824 56.2937Z" fill="#F2F2F2"/>
<path d="M76.6924 55.679C77.1022 56.0888 77.6393 56.2937 78.1765 56.2937C78.7128 56.2937 79.25 56.0888 79.6598 55.679C80.4794 54.8594 80.4794 53.5312 79.6598 52.7116L65.328 38.3798C64.5084 37.5602 63.1802 37.5602 62.3606 38.3798C61.541 39.1995 61.541 40.5276 62.3606 41.3473L76.6924 55.679Z" fill="#F2F2F2"/>
<path d="M89.5 56.2938C90.6584 56.2938 91.598 55.3541 91.598 54.1958V42.3351C91.598 41.1767 90.6584 40.2371 89.5 40.2371C88.3416 40.2371 87.402 41.1767 87.402 42.3351V54.1958C87.402 55.3541 88.3416 56.2938 89.5 56.2938Z" fill="#F2F2F2"/>
<path d="M87.5636 34.7307C87.8967 35.538 88.7269 36.0679 89.6028 36.0221C90.4682 35.9772 91.2282 35.3927 91.496 34.569C91.7645 33.7388 91.4723 32.7927 90.7768 32.2637C90.0673 31.7233 89.0779 31.6931 88.3359 32.1837C87.5081 32.7306 87.1873 33.8196 87.5636 34.7307Z" fill="#F2F2F2"/>
<defs>
<filter id="filter0_d" x="0" y="0" width="184" height="184" filterUnits="userSpaceOnUse" color-interpolation-filters="sRGB">
<feFlood flood-opacity="0" result="BackgroundImageFix"/>
<feColorMatrix in="SourceAlpha" type="matrix" values="0 0 0 0 0 0 0 0 0 0 0 0 0 0 0 0 0 0 127 0"/>
<feOffset dx="3" dy="4"/>
<feGaussianBlur stdDeviation="4"/>
<feColorMatrix type="matrix" values="0 0 0 0 0 0 0 0 0 0 0 0 0 0 0 0 0 0 0.25 0"/>
<feBlend mode="normal" in2="BackgroundImageFix" result="effect1_dropShadow"/>
<feBlend mode="normal" in="SourceGraphic" in2="effect1_dropShadow" result="shape"/>
</filter>
</defs>
</svg>
