<svg width="56" height="56" viewBox="0 0 56 56" fill="none" xmlns="http://www.w3.org/2000/svg">
<g clip-path="url(#clip0)">
<path d="M55.7719 23.8826L46.399 11.7069C46.0521 11.2566 45.4193 11.1455 44.9395 11.4505L38.888 15.2992H30.9955C30.8934 15.2992 30.7917 15.321 30.6934 15.3496L24.574 17.1111L18.2242 15.3744L12.0544 11.4505C11.5827 11.1506 10.9615 11.2523 10.6107 11.6872L0.243594 24.5285C-0.128965 24.99 -0.0674416 25.6637 0.382021 26.0504L5.81574 30.7266L10.6906 37.2959C9.26489 38.8148 9.29267 41.2104 10.7761 42.6942C11.4336 43.3513 12.2697 43.7226 13.1298 43.8089C13.0999 44.0037 13.0845 44.2015 13.0845 44.4023C13.0845 45.4388 13.4882 46.4134 14.2209 47.1461C14.9541 47.8793 15.9287 48.283 16.9652 48.283C16.9792 48.283 16.9929 48.2822 17.0066 48.2817C17.0062 48.3082 17.0049 48.3343 17.0049 48.3608C17.0049 49.3973 17.4086 50.3718 18.1414 51.105C18.8745 51.8377 19.8491 52.2414 20.8856 52.2414C21.0902 52.2414 21.2927 52.2248 21.4914 52.194C21.5756 53.0571 21.9477 53.897 22.6074 54.5567C23.3636 55.3133 24.3574 55.6915 25.3511 55.6915C26.3449 55.6915 27.3387 55.3133 28.0953 54.5567L28.6888 53.9632L28.9379 54.1641C29.6881 54.8908 30.6622 55.254 31.6364 55.254C32.6301 55.254 33.6239 54.8758 34.3801 54.1192C35.1522 53.3472 35.5303 52.3282 35.5145 51.3143C36.5279 51.3297 37.5473 50.952 38.3193 50.1804C39.0905 49.4088 39.4686 48.3907 39.4537 47.3772C40.5094 47.3939 41.5109 46.9885 42.2581 46.2412C43.0302 45.4692 43.4083 44.4502 43.3925 43.4363C44.4067 43.4517 45.4253 43.074 46.1973 42.302C47.515 40.9844 47.6846 38.9477 46.7075 37.4442L50.2668 29.9896L55.6181 25.3847C56.0603 25.0041 56.1278 24.3444 55.7719 23.8826ZM11.7032 13.8299L16.1397 16.651L6.48865 28.4088L2.62122 25.0801L11.7032 13.8299ZM12.3291 38.7588L13.6681 37.4198C13.7087 37.3793 13.7514 37.3408 13.795 37.3049C14.0569 37.0913 14.3739 36.964 14.7097 36.9336C14.7191 36.9328 14.7289 36.9328 14.7383 36.9324C14.7862 36.9285 14.834 36.9259 14.8823 36.9264C15.3412 36.9328 15.7676 37.1203 16.0837 37.454C16.7041 38.1098 16.6708 39.1814 16.0094 39.8428L14.711 41.1412C14.0543 41.7978 12.9858 41.7978 12.3291 41.1412C11.6724 40.4841 11.6724 39.4155 12.3291 38.7588ZM15.774 45.5931C15.4557 45.2752 15.2805 44.8522 15.2805 44.4023C15.2805 43.9524 15.4557 43.5295 15.774 43.2112L18.3704 40.6148C18.8677 40.1175 19.6495 39.9812 20.2853 40.2841C20.9407 40.5964 21.3094 41.3078 21.2133 42.0234C21.162 42.4054 20.9843 42.7651 20.7117 43.0381L18.1563 45.5931C17.838 45.9114 17.415 46.0865 16.9652 46.0865C16.5153 46.0865 16.0923 45.9114 15.774 45.5931ZM19.6944 49.5515C19.3761 49.2336 19.2009 48.8107 19.2009 48.3608C19.2009 47.9109 19.3761 47.4879 19.6944 47.1696L22.2903 44.5732C22.8223 44.0417 23.6755 43.9272 24.3266 44.3062C24.9213 44.6523 25.2328 45.3316 25.1307 46.0084C25.0747 46.3805 24.8978 46.7304 24.6317 46.9966L22.0767 49.5515C21.7584 49.8698 21.3355 50.045 20.8856 50.045C20.4357 50.045 20.0127 49.8698 19.6944 49.5515ZM24.16 53.0037C23.5033 52.347 23.5033 51.2784 24.16 50.6218L25.499 49.2828C25.5396 49.2422 25.5819 49.2042 25.6254 49.1683C25.6267 49.1674 25.6276 49.1666 25.6284 49.1657C25.8463 48.9888 26.1022 48.8705 26.3752 48.8188C26.3817 48.8179 26.3881 48.8171 26.3945 48.8162C26.4415 48.8077 26.4893 48.8008 26.5372 48.7966C26.5564 48.7948 26.5756 48.7948 26.5953 48.7936C26.6346 48.7914 26.6735 48.7889 26.7132 48.7893C27.1716 48.7957 27.5985 48.9828 27.9146 49.3169C27.9535 49.358 27.9898 49.4007 28.0231 49.4447C28.5281 50.1048 28.4602 51.0853 27.8334 51.7125L26.5419 53.0041C25.8852 53.6608 24.8167 53.6603 24.16 53.0037ZM44.6443 40.749C43.9876 41.4061 42.9191 41.4056 42.2624 40.749C42.2385 40.725 42.2133 40.7028 42.1876 40.6819L35.127 33.5469C34.7001 33.1158 34.005 33.1124 33.5739 33.5392C33.1428 33.9656 33.1394 34.6607 33.5658 35.0918L40.7029 42.3033C40.7038 42.3041 40.7047 42.305 40.7055 42.3058C41.3622 42.9625 41.3622 44.0315 40.7055 44.6882C40.3872 45.0065 39.9642 45.1816 39.5143 45.1816C39.064 45.1816 38.6411 45.0065 38.3232 44.6882L33.5487 39.8641C33.1223 39.433 32.4272 39.4296 31.9961 39.856C31.565 40.2828 31.5616 40.978 31.988 41.409L36.6894 46.1592C36.7133 46.1891 36.739 46.2177 36.7663 46.245C37.423 46.9017 37.423 47.9707 36.7663 48.6274C36.1092 49.284 35.0402 49.2836 34.3835 48.6269L31.7778 45.9938C31.351 45.5627 30.6558 45.5589 30.2247 45.9857C29.7936 46.4121 29.7902 47.1072 30.2166 47.5383L32.7498 50.0975C32.7737 50.1274 32.7993 50.1565 32.8271 50.1838C33.4838 50.8405 33.4838 51.9095 32.8271 52.5662C32.1704 53.2233 31.1019 53.2228 30.4452 52.5662C30.3696 52.4905 30.2807 52.4324 30.1961 52.3675C30.1243 52.3128 30.1055 52.2748 30.1414 52.1876C30.1777 52.0992 30.232 52.0193 30.2683 51.9304C30.3085 51.8313 30.3409 51.7292 30.3726 51.6266C30.5409 51.084 30.5905 50.5004 30.5148 49.9373C30.3696 48.8568 29.7753 47.8818 28.8746 47.2649C28.388 46.9321 27.8249 46.7137 27.2413 46.6317C27.5241 45.3841 27.1845 44.0315 26.3009 43.0979C25.5737 42.3298 24.5915 41.8987 23.5349 41.8841C23.4965 41.8837 23.458 41.8837 23.4191 41.8841C23.4426 40.8758 23.0761 39.8739 22.3809 39.1395C21.6533 38.3713 20.6711 37.9402 19.6149 37.9257C19.3009 37.9214 18.9839 37.9548 18.678 38.0253C18.5472 37.1156 18.0888 36.274 17.3945 35.672C16.7045 35.0747 15.8368 34.7431 14.9127 34.7303C13.9398 34.7162 12.9841 35.0751 12.2616 35.7275L8.01691 30.008L18.1717 17.6366L21.4081 18.5219L17.1813 25.9803C16.6704 26.8822 16.5413 27.929 16.8178 28.9279C17.0942 29.9272 17.7427 30.7586 18.6447 31.2696C18.7011 31.3017 18.7579 31.332 18.8156 31.3611C18.8198 31.3632 18.8241 31.3653 18.8288 31.3675C18.9805 31.4431 19.1364 31.508 19.2945 31.5627C20.0306 31.8178 20.8257 31.8456 21.5927 31.6337C22.5916 31.3572 23.423 30.7082 23.934 29.8067L26.6807 24.9596L31.5851 25.3074L44.6447 38.3666C45.301 39.0237 45.301 40.0923 44.6443 40.749ZM45.0993 35.7156L32.848 23.4647C32.825 23.4412 32.8006 23.419 32.7754 23.3981C32.5989 23.2511 32.3802 23.1622 32.1495 23.146L26.1445 22.72C25.7292 22.6914 25.3165 22.9123 25.1115 23.2742L22.0233 28.7241C21.8016 29.1155 21.4406 29.397 21.0069 29.5171C20.5737 29.6371 20.1191 29.5807 19.7273 29.359C19.3359 29.1373 19.0544 28.7762 18.9343 28.3426C18.8143 27.9089 18.8702 27.4543 19.0924 27.063L23.2149 19.7874L24.8854 19.3067C24.8965 19.3033 24.9072 19.2991 24.9183 19.2956L31.1531 17.4952H38.6863L48.0909 29.4504L45.0993 35.7156ZM49.5294 27.7269L40.8324 16.6651L45.2711 13.8423L53.3977 24.3982L49.5294 27.7269Z" fill="#F7A837"/>
<path d="M33.9252 13.2375C34.2063 13.2375 34.4874 13.1303 34.7019 12.9158L42.2026 5.41504C42.6316 4.98608 42.6316 4.29095 42.2026 3.862C41.7737 3.43304 41.0786 3.43304 40.6496 3.862L33.1489 11.3627C32.7199 11.7917 32.7199 12.4868 33.1489 12.9158C33.3633 13.1303 33.6445 13.2375 33.9252 13.2375Z" fill="#F7A837"/>
<path d="M21.2971 12.9158C21.5115 13.1303 21.7927 13.2375 22.0738 13.2375C22.3545 13.2375 22.6356 13.1303 22.8501 12.9158C23.2791 12.4868 23.2791 11.7917 22.8501 11.3627L15.3494 3.862C14.9204 3.43304 14.2253 3.43304 13.7963 3.862C13.3674 4.29095 13.3674 4.98608 13.7963 5.41504L21.2971 12.9158Z" fill="#F7A837"/>
<path d="M27.9974 13.2379C28.6037 13.2379 29.0955 12.7461 29.0955 12.1398V5.93237C29.0955 5.32611 28.6037 4.83435 27.9974 4.83435C27.3912 4.83435 26.8994 5.32611 26.8994 5.93237V12.1398C26.8994 12.7461 27.3912 13.2379 27.9974 13.2379Z" fill="#F7A837"/>
<path d="M26.9842 1.95263C27.1585 2.37517 27.593 2.65246 28.0514 2.62853C28.5043 2.60503 28.9021 2.29912 29.0422 1.86803C29.1828 1.43352 29.0298 0.938345 28.6658 0.661489C28.2945 0.378653 27.7767 0.362844 27.3883 0.619619C26.9551 0.905874 26.7872 1.47582 26.9842 1.95263Z" fill="#F7A837"/>
</g>
<defs>
<clipPath id="clip0">
<rect width="56" height="56" fill="white"/>
</clipPath>
</defs>
</svg>
