<svg width="21" height="21" viewBox="0 0 21 21" fill="none" xmlns="http://www.w3.org/2000/svg">
<path d="M2.52393 5.04787C3.91786 5.04787 5.04787 3.91786 5.04787 2.52393C5.04787 1.13 3.91786 0 2.52393 0C1.13 0 0 1.13 0 2.52393C0 3.91786 1.13 5.04787 2.52393 5.04787Z" fill="white"/>
<path d="M7.43095 6.96029V20.963H11.7786V14.0384C11.7786 12.2112 12.1224 10.4417 14.3879 10.4417C16.6223 10.4417 16.65 12.5307 16.65 14.1537V20.9642H21V13.2851C21 9.51306 20.1879 6.61423 15.7791 6.61423C13.6623 6.61423 12.2435 7.77584 11.6633 8.87515H11.6044V6.96029H7.43095ZM0.345947 6.96029H4.70054V20.963H0.345947V6.96029Z" fill="white"/>
</svg>
