<svg width="142" height="142" viewBox="0 0 142 142" fill="none" xmlns="http://www.w3.org/2000/svg">
<path d="M71 142C110.212 142 142 110.212 142 71C142 31.7878 110.212 0 71 0C31.7878 0 0 31.7878 0 71C0 110.212 31.7878 142 71 142Z" fill="#19839B"/>
<path d="M104.312 104.875H100.885V55.115C100.885 52.7989 99.0008 50.9147 96.6848 50.9147H89.0248C86.7087 50.9147 84.8245 52.799 84.8245 55.115V104.875H76.1226V77.6601C76.1226 75.344 74.2384 73.4598 71.9223 73.4598H64.2623C61.9462 73.4598 60.062 75.3442 60.062 77.6601V104.875H51.3602V90.7806C51.3602 88.4645 49.4758 86.5803 47.1598 86.5803H39.4997C37.1836 86.5803 35.2994 88.4647 35.2994 90.7806V104.875H31.6875C30.8245 104.875 30.125 105.575 30.125 106.437C30.125 107.3 30.8245 108 31.6875 108H104.312C105.175 108 105.875 107.3 105.875 106.437C105.875 105.575 105.175 104.875 104.312 104.875ZM48.2348 104.875H38.4242V90.7806C38.4242 90.1876 38.9066 89.7053 39.4995 89.7053H47.1595C47.7525 89.7053 48.2348 90.1876 48.2348 90.7806V104.875ZM72.9975 104.875H63.1869V77.6601C63.1869 77.0672 63.6692 76.5848 64.2622 76.5848H71.9222C72.515 76.5848 72.9975 77.0672 72.9975 77.6601V104.875ZM97.7601 104.875H87.9495V55.115C87.9495 54.522 88.4319 54.0397 89.0248 54.0397H96.6848C97.2778 54.0397 97.7601 54.522 97.7601 55.115V104.875Z" fill="#F2F2F2"/>
<path d="M100.882 29.6431C100.904 29.2167 100.754 28.7831 100.428 28.4575C100.102 28.1319 99.6687 27.9817 99.2423 28.0038C99.2171 28.0027 99.1923 28 99.1667 28H89.7135C88.8506 28 88.151 28.6995 88.151 29.5625C88.151 30.4255 88.8506 31.125 89.7135 31.125H95.5506L80.1042 46.5716L74.2792 40.7466C73.9862 40.4536 73.5887 40.2889 73.1743 40.2889C72.7599 40.2889 72.3624 40.4536 72.0695 40.7466L43.9806 68.8356C43.3704 69.4458 43.3704 70.4352 43.9806 71.0455C44.2857 71.3503 44.6856 71.5028 45.0854 71.5028C45.4853 71.5028 45.8853 71.3503 46.1903 71.0452L73.1743 44.0609L78.9993 49.8859C79.6095 50.4961 80.5988 50.4961 81.2092 49.8859L97.7604 33.3348V38.6177C97.7604 39.4806 98.4599 40.1802 99.3229 40.1802C100.186 40.1802 100.885 39.4806 100.885 38.6177V29.7188C100.885 29.6933 100.883 29.6684 100.882 29.6431Z" fill="#F2F2F2"/>
<path d="M39.8188 76.9547C40.6818 76.9547 41.3813 76.2552 41.3813 75.3922C41.3813 74.5293 40.6818 73.8297 39.8188 73.8297C38.9559 73.8297 38.2563 74.5293 38.2563 75.3922C38.2563 76.2552 38.9559 76.9547 39.8188 76.9547Z" fill="#F2F2F2"/>
</svg>
