<svg width="142" height="142" viewBox="0 0 142 142" fill="none" xmlns="http://www.w3.org/2000/svg">
<path d="M71 142C110.212 142 142 110.212 142 71C142 31.7878 110.212 0 71 0C31.7878 0 0 31.7878 0 71C0 110.212 31.7878 142 71 142Z" fill="#19839B"/>
<path d="M52.752 82.6887H82.1249C82.9578 82.6887 83.6322 82.007 83.6322 81.165C83.6322 80.3237 82.9578 79.6412 82.1249 79.6412H52.752C51.9198 79.6412 51.2446 80.3237 51.2446 81.165C51.2446 82.007 51.9198 82.6887 52.752 82.6887Z" fill="#F2F2F2"/>
<path d="M101.99 66.4379C101.99 61.4548 97.982 57.401 93.0565 57.401C88.1301 57.401 84.123 61.4548 84.123 66.4379C84.123 71.421 88.1301 75.4748 93.0565 75.4748C97.982 75.4748 101.99 71.421 101.99 66.4379ZM93.0557 60.4485C96.2156 60.4485 98.804 62.9666 98.9665 66.1236C98.7239 66.1538 98.479 66.1728 98.2325 66.1728C95.0725 66.1728 92.4834 63.6539 92.3224 60.4969C92.5626 60.4659 92.8076 60.4485 93.0557 60.4485ZM87.1377 66.4379C87.1377 64.5181 88.0367 62.8071 89.4294 61.7103C90.1485 65.9681 93.8211 69.2203 98.2325 69.2203C98.2537 69.2203 98.2749 69.2187 98.2961 69.2187C97.3037 71.1242 95.3285 72.4273 93.0557 72.4273C89.7929 72.4273 87.1377 69.7401 87.1377 66.4379Z" fill="#F2F2F2"/>
<path d="M129.535 90.4931L121.903 86.2877C120.888 85.7282 119.251 85.3068 118.094 85.3068H91.8782V80.4674C92.2691 80.4864 92.6617 80.4991 93.0558 80.4991C102.028 80.4991 110.381 75.6057 114.855 67.7291C115.307 66.9331 115.307 65.9435 114.855 65.1459C110.382 57.2701 102.028 52.3774 93.0558 52.3774C92.6617 52.3774 92.2691 52.3901 91.8782 52.4084V33.476C91.8782 32.076 90.7508 30.9364 89.3659 30.9364H61.6911C60.8582 30.9364 60.1838 31.6189 60.1838 32.4601C60.1838 33.3022 60.8582 33.9839 61.6911 33.9839H88.8635V52.737C87.784 52.9227 86.7233 53.179 85.6855 53.5028V52.1711C85.6855 50.7704 84.5589 49.6315 83.1732 49.6315H51.7049C50.3193 49.6315 49.1927 50.7704 49.1927 52.1711V73.3979C49.1927 74.7978 50.3193 75.9374 51.7049 75.9374H78.7163C81.735 78.058 85.1971 79.5079 88.8635 80.1396V85.3068H70.736C69.5859 85.3068 68.5802 85.9338 68.0299 86.8655H52.7522C51.9201 86.8655 51.2449 87.548 51.2449 88.3892C51.2449 89.2313 51.9201 89.913 52.7522 89.913H67.5839V94.0905H52.7522C51.9201 94.0905 51.2449 94.7723 51.2449 95.6143C51.2449 96.4555 51.9201 97.138 52.7522 97.138H67.6075C67.7912 98.7165 69.1235 99.9466 70.736 99.9466H88.8635V105.799H46.0147V33.9839H54.4559C55.2888 33.9839 55.9632 33.3022 55.9632 32.4601C55.9632 31.6189 55.2888 30.9364 54.4559 30.9364H45.5122C44.1266 30.9364 43 32.076 43 33.476V106.306C43 107.707 44.1266 108.845 45.5122 108.845H89.3659C90.7508 108.845 91.8782 107.707 91.8782 106.306V99.9466H118.094C119.251 99.9466 120.888 99.5244 121.903 98.9649L129.536 94.7596C130.413 94.2755 130.916 93.4985 130.916 92.6263C130.916 91.7549 130.413 90.9772 129.535 90.4931ZM77.1211 96.8991H70.736C70.6646 96.8991 70.5986 96.8349 70.5986 96.765V88.4884C70.5986 88.4186 70.6638 88.3543 70.736 88.3543H77.1211V96.8991ZM52.2074 72.89V52.679H82.6708V54.6607C77.9517 56.8328 73.9179 60.462 71.2581 65.1459C70.8051 65.9435 70.8051 66.9339 71.2581 67.7299C72.3391 69.6338 73.6487 71.3615 75.1379 72.89H52.2074ZM74.0019 66.4379C77.9689 59.6374 85.2458 55.4249 93.0566 55.4249C100.867 55.4249 108.143 59.6382 112.111 66.4379C108.143 73.2376 100.866 77.4517 93.0566 77.4517C85.2466 77.4517 77.9697 73.2392 74.0019 66.4379ZM115.924 91.1026H109.725C108.892 91.1026 108.218 91.7851 108.218 92.6263C108.218 93.4684 108.892 94.1501 109.725 94.1501H115.924V96.8991H80.1358V94.1501H102.691C103.523 94.1501 104.198 93.4684 104.198 92.6263C104.198 91.7851 103.523 91.1026 102.691 91.1026H80.1358V88.3543H115.924V91.1026ZM122.177 95.3437L120.46 96.2897C120.097 96.4896 119.495 96.6833 118.939 96.796V88.4567C119.496 88.5702 120.097 88.763 120.46 88.963L122.177 89.909V95.3437ZM125.191 93.6826V91.5708L127.108 92.6263L125.191 93.6826Z" fill="#F2F2F2"/>
</svg>
