<svg width="142" height="142" viewBox="0 0 142 142" fill="none" xmlns="http://www.w3.org/2000/svg">
<path d="M71 142C110.212 142 142 110.212 142 71C142 31.7878 110.212 0 71 0C31.7878 0 0 31.7878 0 71C0 110.212 31.7878 142 71 142Z" fill="#19839B"/>
<path d="M108.413 100.541L107.329 99.4568C106.894 99.0219 106.189 99.022 105.755 99.4567C105.32 99.8914 105.32 100.596 105.754 101.031L106.681 101.958L101.958 106.681L93.9285 98.6515L98.6517 93.9284L102.398 97.6744C102.833 98.109 103.537 98.109 103.972 97.6744C104.407 97.2394 104.407 96.5347 103.972 96.0999L99.4409 91.5688C99.4402 91.5681 99.4396 91.5673 99.439 91.5666L96.2902 88.4178C96.2893 88.4169 96.2884 88.4163 96.2875 88.4154L93.5086 85.6365C93.1301 85.2579 92.6269 85.0493 92.0915 85.0493C91.5561 85.0493 91.0529 85.2579 90.6745 85.6362L90.517 85.7939L86.5334 81.8092C89.3807 78.2518 91.4372 74.036 92.4353 69.4298H100.279C100.894 69.4298 101.393 68.9315 101.393 68.3165C101.393 67.7016 100.894 67.2033 100.279 67.2033H92.83C92.9281 66.4952 93.0014 65.7795 93.0491 65.0567H105.586C106.201 65.0567 106.699 64.5584 106.699 63.9434C106.699 63.3285 106.201 62.8301 105.586 62.8301H93.1148C93.1095 62.1098 93.0796 61.394 93.025 60.6834H100.28C100.895 60.6834 101.393 60.1851 101.393 59.5702C101.393 58.9552 100.895 58.4569 100.28 58.4569H92.7707C91.9929 53.3389 89.9129 48.5515 86.6397 44.4163C86.258 43.9344 85.558 43.853 85.0757 44.2343C84.5938 44.616 84.5123 45.3162 84.8938 45.7983C88.817 50.7545 90.8906 56.723 90.8906 63.0586C90.8906 78.4053 78.4053 90.8906 63.0586 90.8906C47.7119 90.8906 35.2266 78.4053 35.2266 63.0586C35.2266 47.7119 47.7119 35.2266 63.0586 35.2266C69.9963 35.2266 76.6423 37.7942 81.772 42.4565C82.2268 42.8704 82.9313 42.8365 83.3445 42.3815C83.7581 41.9266 83.7245 41.2224 83.2694 40.8089C77.7291 35.7733 70.5514 33 63.0586 33C46.4842 33 33 46.4842 33 63.0586C33 77.6919 43.5115 89.9141 57.3798 92.5767V100.088C57.3798 100.702 57.8781 101.201 58.4931 101.201C59.1081 101.201 59.6064 100.702 59.6064 100.088V92.9178C60.3149 92.9992 61.0306 93.0562 61.7531 93.0872V105.323C61.7531 105.938 62.2514 106.436 62.8664 106.436C63.4813 106.436 63.9796 105.938 63.9796 105.323V93.1017C64.7016 93.0799 65.4177 93.0339 66.1264 92.9618V100.088C66.1264 100.702 66.6247 101.201 67.2396 101.201C67.8546 101.201 68.3529 100.702 68.3529 100.088V92.6502C73.3795 91.7533 77.9761 89.6016 81.8094 86.5334L85.794 90.5172L85.6367 90.6745C85.258 91.053 85.0495 91.5562 85.0495 92.0916C85.0495 92.627 85.258 93.1302 85.6364 93.5086L88.4163 96.2884C88.4169 96.289 88.4174 96.2896 88.418 96.2902L91.5668 99.439C91.5674 99.4396 91.5682 99.4402 91.5688 99.4409L100.541 108.413C100.919 108.792 101.423 109 101.958 109C102.493 109 102.996 108.792 103.375 108.413L108.413 103.375C108.792 102.996 109 102.493 109 101.958C109 101.423 108.792 100.919 108.413 100.541ZM85.075 83.4996L88.9424 87.3679L87.3681 88.9422L83.4998 85.0748C84.0439 84.5694 84.5694 84.0439 85.075 83.4996ZM92.3541 97.0772L90.7796 95.5029L95.5027 90.7797L97.0771 92.3542L92.3541 97.0772ZM92.0916 87.3684L93.9284 89.2051L89.2053 93.9282L87.3685 92.0915L92.0916 87.3684Z" fill="#F2F2F2"/>
<path d="M47.5551 83.4379C52.0141 86.7894 57.3706 88.5967 63.0586 88.6641C77.1775 88.6641 88.664 77.1775 88.664 63.0586C88.664 48.9397 77.1775 37.4531 63.0586 37.4531C56.2448 37.4531 49.836 40.1201 45.0132 44.9627C40.2106 49.7847 37.5258 56.2072 37.4531 63.0467C37.3863 69.3433 39.6742 75.3954 43.8951 80.0881C44.3063 80.5451 45.0102 80.5825 45.4674 80.1714C45.9246 79.7602 45.9618 79.0561 45.5506 78.5991C41.7037 74.3223 39.6186 68.8074 39.6796 63.0705C39.746 56.8149 42.2004 50.9421 46.5907 46.5341C50.9928 42.1139 56.8411 39.6797 63.0586 39.6797C75.9498 39.6797 86.4375 50.1674 86.4375 63.0586C86.4375 75.9498 75.9498 86.4375 63.0718 86.4376C57.8736 86.3759 52.9707 84.723 48.8929 81.6581C48.4017 81.2884 47.7034 81.3877 47.3341 81.8791C46.9645 82.3706 47.0635 83.0686 47.5551 83.4379Z" fill="#F2F2F2"/>
<path d="M67.2893 43.168H59.5706C58.6293 43.168 57.8636 43.9338 57.8636 44.875V48.8086H50.6643C49.7231 48.8086 48.9573 49.5744 48.9573 50.5156V62.4648H47.4673C46.8523 62.4648 46.354 62.9631 46.354 63.5781C46.354 64.1931 46.8523 64.6914 47.4673 64.6914H79.3926C80.0076 64.6914 80.5059 64.1931 80.5059 63.5781C80.5059 62.9631 80.0076 62.4648 79.3926 62.4648H77.9026V56.1562C77.9026 55.215 77.1368 54.4492 76.1956 54.4492H68.9964V44.875C68.9964 43.9338 68.2306 43.168 67.2893 43.168ZM51.1839 51.0352H57.8636V62.4648H51.1839V51.0352ZM60.0901 45.3945H66.7698V62.4648H60.0901V45.3945ZM75.6761 56.6758V62.4648H68.9964V56.6758H75.6761Z" fill="#F2F2F2"/>
<path d="M75.8982 74.1251H70.657L68.276 68.0387C68.1077 67.6087 67.6954 67.3303 67.2294 67.3309C66.7675 67.3351 66.356 67.6241 66.1954 68.0572L62.9416 76.8312L60.6676 70.3856C60.5221 69.973 60.1483 69.6838 59.7122 69.6467C59.2767 69.609 58.859 69.8314 58.6456 70.2131L56.4617 74.1249H51.2344C50.6194 74.1249 50.1211 74.6232 50.1211 75.2382C50.1211 75.8532 50.6194 76.3515 51.2344 76.3515H57.1152C57.5186 76.3515 57.8906 76.1331 58.0873 75.7809L59.388 73.4512L61.8656 80.4737C62.0216 80.9159 62.4377 81.2128 62.9066 81.2167H62.9157C63.3807 81.2167 63.7974 80.9272 63.9593 80.4904L67.267 71.571L68.8601 75.6439C69.0271 76.0706 69.4385 76.3516 69.8968 76.3516H75.8982C76.5131 76.3516 77.0114 75.8533 77.0114 75.2383C77.0114 74.6234 76.5131 74.1251 75.8982 74.1251Z" fill="#F2F2F2"/>
</svg>
