<svg width="20" height="20" viewBox="0 0 20 20" fill="none" xmlns="http://www.w3.org/2000/svg">
<path d="M2.40375 4.80749C3.7313 4.80749 4.80749 3.7313 4.80749 2.40375C4.80749 1.07619 3.7313 0 2.40375 0C1.07619 0 0 1.07619 0 2.40375C0 3.7313 1.07619 4.80749 2.40375 4.80749Z" fill="#2FA6C1"/>
<path d="M7.07709 6.6289V19.9649H11.2177V13.3699C11.2177 11.6297 11.5451 9.94448 13.7028 9.94448C15.8308 9.94448 15.8571 11.9341 15.8571 13.4798V19.966H20V12.6525C20 9.06011 19.2266 6.29932 15.0277 6.29932C13.0118 6.29932 11.6605 7.40561 11.1079 8.45258H11.0518V6.6289H7.07709ZM0.329468 6.6289H4.4767V19.9649H0.329468V6.6289Z" fill="#2FA6C1"/>
</svg>
