<svg width="74" height="86" viewBox="0 0 74 86" fill="none" xmlns="http://www.w3.org/2000/svg">
<g clip-path="url(#clip0)">
<path d="M60.9304 29.7227C60.5546 28.4394 59.2126 27.7019 57.9261 28.0776C56.6421 28.452 55.9056 29.7958 56.2802 31.0792C56.8086 32.8857 57.076 34.7641 57.076 36.6627C57.076 40.1875 56.1452 43.6505 54.3832 46.6774C52.6692 49.6211 50.2135 52.1008 47.2811 53.8481L46.2671 54.4507C45.533 54.8881 45.084 55.6773 45.084 56.5308V59.5879H39.4222V49.7484C42.0179 48.8054 43.882 46.3206 43.882 43.4022V38.1162C43.882 34.391 40.8512 31.3603 37.1268 31.3603H36.8758C33.1513 31.3603 30.1205 34.391 30.1205 38.1162V43.4022C30.1205 46.3206 31.9834 48.8054 34.579 49.7471V59.5879H28.9185V56.5308C28.9185 55.6773 28.4682 54.8881 27.7355 54.4507L26.7214 53.8481C23.7877 52.1008 21.3321 49.6211 19.6193 46.6774C17.8573 43.6505 16.9252 40.1875 16.9252 36.6627C16.9252 25.6319 25.9306 16.6585 37.0006 16.6585C42.255 16.6585 47.2281 18.6768 51.0031 22.3428C51.9616 23.2732 53.4953 23.2505 54.4274 22.2924C55.3594 21.3343 55.3367 19.8013 54.3769 18.8697C49.6939 14.3224 43.5226 11.8175 37.0006 11.8175C23.2605 11.8175 12.082 22.963 12.082 36.6627C12.082 41.041 13.2411 45.3461 15.4319 49.1117C17.5256 52.7084 20.511 55.7454 24.0753 57.9061V59.9812C22.7876 60.6103 21.8971 61.9277 21.8971 63.4543V74.5217C21.8971 76.6522 23.6313 78.3869 25.7629 78.3869H29.3637V81.7894C29.3637 84.1116 31.2518 86 33.5751 86H40.4275C42.7494 86 44.64 84.1116 44.64 81.7894V78.3869H48.2397C50.3712 78.3869 52.1067 76.6522 52.1067 74.5217V63.4543C52.1067 61.9277 51.215 60.6103 49.9272 59.9812V57.9061C53.4915 55.7454 56.4769 52.7084 58.5706 49.1117C60.7614 45.3461 61.9205 41.041 61.9205 36.6627C61.9192 34.3052 61.5863 31.9705 60.9304 29.7227ZM34.9637 38.1162C34.9637 37.0598 35.8214 36.2013 36.8758 36.2013H37.1268C38.1812 36.2013 39.0388 37.0598 39.0388 38.1162V43.4022C39.0388 44.4586 38.1812 45.3171 37.1268 45.3171H36.8758C35.8214 45.3171 34.9637 44.4586 34.9637 43.4022V38.1162ZM39.7956 81.1591H34.2057V78.3869H39.7956V81.1591ZM47.2622 73.5459H26.7391V64.4288H47.2622V73.5459Z" fill="#F7A837"/>
<path d="M37.0007 8.85491C38.3389 8.85491 39.4223 7.77074 39.4223 6.43443V2.42048C39.4223 1.08291 38.3389 0 37.0007 0C35.6625 0 34.5791 1.08291 34.5791 2.42048V6.43443C34.5791 7.77074 35.6637 8.85491 37.0007 8.85491Z" fill="#F7A837"/>
<path d="M22.2161 10.1358C22.6184 11.0346 23.5013 11.5679 24.4271 11.5679C24.7575 11.5679 25.0943 11.4998 25.4159 11.3574C26.6355 10.8102 27.1829 9.37939 26.6368 8.15907L24.9946 4.49432C24.4485 3.27399 23.0157 2.72813 21.7948 3.27399C20.5752 3.81986 20.0278 5.25198 20.5752 6.4723L22.2161 10.1358Z" fill="#F7A837"/>
<path d="M9.44084 15.8591L12.4388 18.538C12.9005 18.9503 13.4781 19.1545 14.052 19.1545C14.7179 19.1545 15.3801 18.8822 15.8581 18.3477C16.7498 17.3505 16.664 15.8201 15.6676 14.9288L12.6696 12.2498C11.672 11.3586 10.1408 11.4443 9.25039 12.4415C8.35868 13.4374 8.44444 14.9678 9.44084 15.8591Z" fill="#F7A837"/>
<path d="M3.11181 28.9524L6.94476 30.1816C7.1907 30.2597 7.43917 30.2975 7.68511 30.2975C8.70925 30.2975 9.66024 29.6433 9.98943 28.6158C10.3981 27.3426 9.69681 25.9798 8.42295 25.5713L4.59 24.3434C3.31613 23.935 1.95272 24.6359 1.54407 25.9092C1.13668 27.1824 1.83794 28.5452 3.11181 28.9524Z" fill="#F7A837"/>
<path d="M2.41947 43.4954C2.50776 43.4954 2.59478 43.4904 2.68433 43.4803L6.68629 43.0454C8.01566 42.9017 8.97673 41.7078 8.83169 40.3778C8.6879 39.0491 7.49476 38.0872 6.16287 38.2334L2.16091 38.6684C0.83029 38.8121 -0.129524 40.0072 0.0142591 41.3359C0.150475 42.5764 1.19984 43.4954 2.41947 43.4954Z" fill="#F7A837"/>
<path d="M5.79878 52.7388C4.64347 53.4107 4.25248 54.8932 4.92599 56.048C5.37626 56.8195 6.18724 57.2507 7.02093 57.2507C7.43462 57.2507 7.85336 57.1448 8.23804 56.9216L11.714 54.897C12.8706 54.2238 13.2616 52.7425 12.5881 51.5878C11.9146 50.4317 10.4326 50.0409 9.27605 50.7141L5.79878 52.7388Z" fill="#F7A837"/>
<path d="M48.5851 11.356C48.9067 11.4997 49.2422 11.5678 49.5739 11.5678C50.4984 11.5678 51.3825 11.0346 51.7849 10.1357L53.427 6.47096C53.9731 5.25063 53.427 3.81852 52.2061 3.27265C50.9865 2.72678 49.5524 3.27265 49.0063 4.49297L47.3654 8.15773C46.818 9.37805 47.3642 10.8102 48.5851 11.356Z" fill="#F7A837"/>
<path d="M59.9491 19.1545C60.5229 19.1545 61.1006 18.9503 61.5622 18.538L64.5602 15.8591C65.5566 14.9678 65.6424 13.4374 64.7507 12.4415C63.859 11.4443 62.3278 11.3586 61.3314 12.2498L58.3334 14.9288C57.337 15.8201 57.2513 17.3505 58.143 18.3477C58.621 18.8822 59.2844 19.1545 59.9491 19.1545Z" fill="#F7A837"/>
<path d="M64.0115 28.6158C64.3419 29.6433 65.2929 30.2975 66.317 30.2975C66.5617 30.2975 66.8114 30.2597 67.0574 30.1816L70.8903 28.9524C72.1629 28.5452 72.8642 27.1824 72.4568 25.9092C72.0482 24.6359 70.6835 23.935 69.4109 24.3434L65.5779 25.5713C64.3041 25.9798 63.6028 27.3426 64.0115 28.6158Z" fill="#F7A837"/>
<path d="M71.8401 38.6683L67.8381 38.2334C66.5063 38.0846 65.3131 39.0491 65.1681 40.3778C65.0243 41.7078 65.9841 42.9016 67.3147 43.0466L71.3167 43.4815C71.4062 43.4904 71.4945 43.4954 71.5816 43.4954C72.8012 43.4954 73.8506 42.5764 73.9855 41.3372C74.1305 40.0072 73.1707 38.8133 71.8401 38.6683Z" fill="#F7A837"/>
<path d="M68.2013 52.7386L64.7253 50.714C63.57 50.042 62.0868 50.4316 61.4133 51.5864C60.7397 52.7424 61.1307 54.2237 62.2873 54.8969L65.7633 56.9215C66.1467 57.1446 66.5667 57.2505 66.9804 57.2505C67.8141 57.2505 68.6251 56.8194 69.0754 56.0478C69.7476 54.8931 69.3566 53.4105 68.2013 52.7386Z" fill="#F7A837"/>
</g>
<defs>
<clipPath id="clip0">
<rect width="74" height="86" fill="white"/>
</clipPath>
</defs>
</svg>
