<svg width="76" height="76" viewBox="0 0 76 76" fill="none" xmlns="http://www.w3.org/2000/svg">
<path d="M34.1406 20.0391C34.1406 19.2947 33.7686 18.5994 33.1491 18.1864L19.7897 9.28019C19.1066 8.82478 18.228 8.78218 17.504 9.16975C16.7801 9.55717 16.3281 10.3117 16.3281 11.1328V28.9453C16.3281 29.7665 16.7801 30.521 17.504 30.9084C17.8333 31.0846 18.1943 31.1719 18.5545 31.1719C18.9865 31.1719 19.4173 31.0463 19.7897 30.798L33.1491 21.8917C33.7686 21.4788 34.1406 20.7835 34.1406 20.0391ZM20.7812 24.7849V15.2932L27.9 20.0391L20.7812 24.7849Z" fill="#F7A837"/>
<path d="M62.7166 37.638C59.6416 34.5631 54.6382 34.5632 51.5633 37.638C51.5446 37.6567 51.5261 37.6754 51.5075 37.6942C51.4889 37.6754 51.4704 37.6565 51.4517 37.6378C48.3767 34.5629 43.3734 34.5629 40.2984 37.6378C37.2235 40.7129 37.2235 45.7161 40.2984 48.7911L49.933 58.4258C50.3678 58.8608 50.9376 59.0781 51.5075 59.0781C52.0773 59.0781 52.6472 58.8608 53.0818 58.4259L62.7165 48.7913C65.7915 45.7164 65.7915 40.713 62.7166 37.638C62.7166 37.6381 62.7166 37.6381 62.7166 37.638ZM59.5678 45.6425L51.5075 53.7028L43.4472 45.6426C42.1084 44.3039 42.1086 42.1257 43.4472 40.7871C44.1166 40.1176 44.9957 39.783 45.875 39.783C46.7542 39.783 47.6336 40.1178 48.3029 40.7871C48.8712 41.3556 49.2131 42.0779 49.2916 42.876C49.4035 44.0159 50.3622 44.8848 51.5075 44.8848C52.6528 44.8848 53.6114 44.0159 53.7234 42.876C53.8017 42.0779 54.1437 41.3554 54.7121 40.7871C56.0509 39.4483 58.2292 39.4485 59.5676 40.7871C60.9064 42.1255 60.9064 44.3039 59.5678 45.6425Z" fill="#F7A837"/>
<path d="M69.3203 27.0156H48.9844V6.67969C48.9844 2.99651 45.9879 0 42.3047 0H6.67969C2.99651 0 0 2.99651 0 6.67969V46.7578C0 47.6274 0.506172 48.4173 1.29616 48.7807C1.59377 48.9176 1.91098 48.9845 2.22612 48.9844C2.74787 48.9844 3.26399 48.8011 3.67561 48.4484L13.4409 40.0781H27.0156V60.4141C27.0156 64.0972 30.0121 67.0938 33.6953 67.0938H62.5591L72.3244 75.464C72.7359 75.8168 73.2521 76 73.7739 76C74.089 76 74.4064 75.9331 74.7038 75.7963C75.4938 75.433 76 74.643 76 73.7734V33.6953C76 30.0121 73.0035 27.0156 69.3203 27.0156ZM12.6172 35.625C12.0856 35.625 11.5717 35.8151 11.1681 36.161L4.45312 41.9168V6.67969C4.45312 5.45196 5.45196 4.45312 6.67969 4.45312H42.3047C43.5324 4.45312 44.5312 5.45196 44.5312 6.67969V27.0156H33.6953C30.0121 27.0156 27.0156 30.0121 27.0156 33.6953V35.625H12.6172ZM71.5469 68.9324L64.8319 63.1768C64.4283 62.8308 63.9144 62.6406 63.3828 62.6406H33.6953C32.4676 62.6406 31.4688 61.6418 31.4688 60.4141V33.6953C31.4688 32.4676 32.4676 31.4688 33.6953 31.4688H69.3203C70.548 31.4688 71.5469 32.4676 71.5469 33.6953V68.9324Z" fill="#F7A837"/>
</svg>
