<svg width="86" height="86" viewBox="0 0 86 86" fill="none" xmlns="http://www.w3.org/2000/svg">
<path d="M23.006 54.1253C23.8091 53.6621 24.0841 52.634 23.6208 51.8309C23.157 51.0284 22.1295 50.7528 21.3264 51.2161C20.5233 51.6799 20.2477 52.7081 20.7116 53.5105C21.1748 54.3136 22.2029 54.5892 23.006 54.1253Z" fill="#F7A837"/>
<path d="M16.1228 65.7184L24.5816 80.3704C26.4069 83.5356 30.513 84.7074 33.7602 82.8302C36.9732 80.9734 38.0775 76.868 36.2187 73.6523L31.1796 64.9232L35.5435 62.4037C36.3466 61.9391 36.6222 60.9123 36.1583 60.1092L33.9741 56.3259C34.2345 56.2754 35.947 55.9395 66.1466 50.0153C69.88 49.8126 72.1168 45.7295 70.231 42.4652L64.6487 32.7965L68.2161 27.3933C68.5664 26.8619 68.5874 26.1788 68.2692 25.6277L64.9098 19.8091C64.5916 19.258 63.9873 18.9352 63.3542 18.9726L56.892 19.3604L50.6948 8.6261C49.7972 7.07108 48.1891 6.12953 46.3939 6.10722C46.3723 6.10657 46.3513 6.10657 46.3296 6.10657C44.5948 6.10657 43.0201 6.97003 42.0871 8.42992L20.1449 36.3823L5.88002 44.618C0.269473 47.856 -1.67398 55.0537 1.57648 60.6794C4.54611 65.8234 10.8068 67.8469 16.1228 65.7184ZM33.3101 75.3327C34.2378 76.9375 33.6886 78.9912 32.0792 79.921C30.4644 80.8546 28.4081 80.2812 27.4909 78.6914L19.0924 64.1431L24.911 60.7837C34.6308 77.6212 33.1539 75.063 33.3101 75.3327ZM29.4999 62.0133L27.8202 59.104L30.7295 57.4243L32.4092 60.3336L29.4999 62.0133ZM62.5196 22.3877L64.841 26.4085L62.7709 29.5435L58.7698 22.6128L62.5196 22.3877ZM44.8966 10.2717C45.3474 9.53418 46.0626 9.45807 46.3526 9.46594C46.6393 9.46922 47.3538 9.55846 47.7849 10.3051L67.3218 44.1449C67.9582 45.2466 67.1846 46.6317 65.9085 46.6631C65.6795 46.6684 65.5738 46.7097 64.9873 46.8193L44.3212 11.0242C44.7549 10.4665 44.8107 10.4127 44.8966 10.2717ZM42.0858 13.8718L61.5026 47.503L32.1986 53.2507L23.2884 37.8179L42.0858 13.8718ZM4.48575 58.9997C3.74826 57.7235 3.35852 56.2748 3.35852 54.809C3.35852 51.8131 4.96866 49.0232 7.55971 47.5273L20.6514 39.9687L29.0498 54.515L15.9581 62.0743C11.9472 64.3891 6.80122 63.0099 4.48575 58.9997Z" fill="#F7A837"/>
<path d="M17.8022 55.1903C17.3383 54.3872 16.3108 54.1116 15.5077 54.5755L12.5985 56.2552C11.7967 56.7184 10.7672 56.4422 10.304 55.6404C9.8401 54.8373 8.81261 54.5617 8.00951 55.0256C7.20641 55.4895 6.93083 56.517 7.39471 57.3201C8.77718 59.715 11.861 60.5594 14.2782 59.1645L17.1874 57.4848C17.9905 57.0209 18.2661 55.9941 17.8022 55.1903Z" fill="#F7A837"/>
<path d="M83.5032 9.69956L74.1435 14.9079C73.3332 15.3593 73.0412 16.3822 73.4926 17.1925C73.9427 18.0022 74.965 18.2955 75.7773 17.8434L85.1363 12.6351C85.9473 12.1837 86.2386 11.1608 85.7872 10.3504C85.3364 9.53947 84.3135 9.24815 83.5032 9.69956Z" fill="#F7A837"/>
<path d="M82.522 27.0961L76.0323 25.3574C75.136 25.1172 74.2148 25.6487 73.9746 26.545C73.7345 27.4412 74.2666 28.3618 75.1629 28.6019L81.6533 30.3407C82.5548 30.5828 83.4714 30.0428 83.7103 29.1531C83.9504 28.2568 83.4183 27.3356 82.522 27.0961Z" fill="#F7A837"/>
<path d="M66.2129 3.59697L64.4722 10.0874C64.2321 10.9837 64.7636 11.9042 65.6598 12.145C66.5554 12.3845 67.4766 11.8543 67.7174 10.9574L69.4575 4.46699C69.6976 3.57072 69.1662 2.64952 68.2699 2.40937C67.3743 2.16923 66.4531 2.70069 66.2129 3.59697Z" fill="#F7A837"/>
</svg>
