<svg width="126" height="106" viewBox="0 0 126 106" fill="none" xmlns="http://www.w3.org/2000/svg">
<path d="M46 92C71.4051 92 92 71.4051 92 46C92 20.5949 71.4051 0 46 0C20.5949 0 0 20.5949 0 46C0 71.4051 20.5949 92 46 92Z" fill="#F7A837"/>
<path d="M119.86 27.0149H37.7694C34.588 27.0149 32 29.6029 32 32.7841V88.4888C32 91.67 34.588 94.258 37.7694 94.258H65.5339L64.4108 103.242H59.7579C59.0003 103.242 58.3864 103.856 58.3864 104.614C58.3864 105.371 59.0003 105.985 59.7579 105.985H97.8717C98.6294 105.985 99.2433 105.371 99.2433 104.614C99.2433 103.856 98.6294 103.242 97.8717 103.242H93.219L92.0958 94.258H119.86C123.041 94.258 125.63 91.67 125.63 88.4888V32.7841C125.63 29.6029 123.042 27.0149 119.86 27.0149ZM67.1753 103.242L68.2985 94.258H73.3463L73.8415 96.2385C74.4131 98.5249 76.4583 100.122 78.815 100.122C81.1717 100.122 83.2169 98.5249 83.7885 96.2385L84.2837 94.258H89.3315L90.4543 103.242H67.1753ZM76.1736 94.258H81.4558L81.127 95.5732C80.8613 96.6362 79.9106 97.3785 78.8146 97.3785C77.7187 97.3785 76.7681 96.636 76.5022 95.5732L76.1736 94.258ZM122.887 88.4888C122.887 90.1575 121.529 91.5149 119.86 91.5149H37.7694C36.1007 91.5149 34.7431 90.1575 34.7431 88.4888V32.7841C34.7431 31.1154 36.1007 29.7579 37.7694 29.7579H119.86C121.529 29.7579 122.887 31.1154 122.887 32.7841V88.4888Z" fill="#2A2A2A"/>
<path d="M109.599 32.8787H39.2353C38.4777 32.8787 37.8638 33.4926 37.8638 34.2502V87.0229C37.8638 87.7806 38.4777 88.3945 39.2353 88.3945H42.1673C42.9249 88.3945 43.5388 87.7806 43.5388 87.0229C43.539 86.2655 42.9249 85.6514 42.1674 85.6514H40.607V35.6217H109.599C110.357 35.6217 110.971 35.0076 110.971 34.2502C110.971 33.4926 110.357 32.8787 109.599 32.8787Z" fill="#2A2A2A"/>
<path d="M118.394 32.8787H115.463C114.705 32.8787 114.091 33.4926 114.091 34.2502C114.091 35.0076 114.705 35.6217 115.463 35.6217H117.023V85.6514H48.0307C47.2731 85.6514 46.6592 86.2655 46.6592 87.0229C46.6592 87.7806 47.2731 88.3945 48.0307 88.3945H118.394C119.152 88.3945 119.766 87.7806 119.766 87.0229V34.2502C119.766 33.4926 119.152 32.8787 118.394 32.8787Z" fill="#2A2A2A"/>
<path d="M97.486 48.0636C97.2395 47.7485 96.8677 47.5569 96.4683 47.5388L64.2184 46.0727C64.1931 46.0716 64.1684 46.0711 64.143 46.0714C63.9521 45.4447 63.5487 44.9012 63.0026 44.537L59.0532 41.904C58.423 41.4839 57.5714 41.6542 57.1513 42.2846C56.7313 42.9149 56.9015 43.7664 57.5317 44.1864L61.481 46.819C61.4996 46.8314 61.5133 46.8503 61.5196 46.8719L66.5501 64.4788C66.707 65.0278 66.9653 65.5212 67.2968 65.9472L65.4562 69.6284C65.0131 70.5144 65.0596 71.5464 65.5804 72.389C65.7693 72.6946 66.0088 72.9548 66.2841 73.1633C65.9238 73.7922 65.7166 74.5197 65.7166 75.295C65.7166 77.668 67.6472 79.5983 70.0199 79.5983C72.3927 79.5983 74.3232 77.6678 74.3232 75.295C74.3232 74.7448 74.2183 74.2188 74.0292 73.7348H86.5333C86.3442 74.2188 86.2392 74.7448 86.2392 75.295C86.2392 77.668 88.1698 79.5983 90.5426 79.5983C92.9153 79.5983 94.8459 77.6678 94.8459 75.295C94.8459 74.6067 94.6826 73.9562 94.394 73.3787C94.6709 73.1278 94.8459 72.7665 94.8459 72.3633C94.8459 71.6058 94.232 70.9917 93.4743 70.9917H67.9935C67.974 70.9917 67.9409 70.9917 67.9133 70.9469C67.8856 70.9023 67.9004 70.8729 67.9092 70.8551L69.6048 67.4642C69.9499 67.5529 70.3094 67.6008 70.6773 67.6008C70.8469 67.6008 71.018 67.5907 71.1903 67.5706L90.4623 65.3034C92.9513 65.0104 94.9539 63.1627 95.4455 60.7049L97.7508 49.1779C97.8292 48.7856 97.7325 48.3787 97.486 48.0636ZM90.5422 73.7352C91.4026 73.7352 92.1024 74.4352 92.1024 75.2954C92.1024 76.1558 91.4026 76.8556 90.5422 76.8556C89.6818 76.8556 88.9819 76.1558 88.9819 75.2954C88.9819 74.435 89.6818 73.7352 90.5422 73.7352ZM70.0196 73.7352C70.88 73.7352 71.5798 74.435 71.5798 75.2954C71.5798 76.1558 70.88 76.8556 70.0196 76.8556C69.1591 76.8556 68.4593 76.1558 68.4593 75.2954C68.4593 74.435 69.1591 73.7352 70.0196 73.7352ZM66.6562 54.8669L64.9374 48.8514L70.4208 49.1007L71.3715 54.8669H66.6562ZM70.8699 64.8464C70.1051 64.9363 69.3983 64.4647 69.1873 63.7254L67.44 57.61H71.8238L72.976 64.5986L70.8699 64.8464ZM78.9094 63.9006L75.7033 64.2778L74.6041 57.6102H78.9094V63.9006ZM78.9094 54.8669H74.1517L73.222 49.2281L78.9094 49.4867V54.8669ZM85.8552 63.0833L81.6525 63.5778V57.61H86.3506L85.8552 63.0833ZM86.599 54.8669H81.6525V49.6113L87.0525 49.8567L86.599 54.8669ZM92.7555 60.1673C92.4976 61.4561 91.4472 62.4255 90.1417 62.5791L88.6391 62.756L89.1048 57.6102H93.2668L92.7555 60.1673ZM93.8156 54.8669H89.3533L89.7955 49.9814L94.7477 50.2065L93.8156 54.8669Z" fill="#2A2A2A"/>
</svg>
