<svg width="107" height="106" viewBox="0 0 107 106" fill="none" xmlns="http://www.w3.org/2000/svg">
<path d="M46 92C71.4051 92 92 71.4051 92 46C92 20.5949 71.4051 0 46 0C20.5949 0 0 20.5949 0 46C0 71.4051 20.5949 92 46 92Z" fill="#F7A837"/>
<path d="M59.6417 36.0927C59.3547 35.8057 58.9566 35.6406 58.5508 35.6406C58.145 35.6406 57.7469 35.8056 57.4599 36.0927C57.1729 36.3797 57.0078 36.7778 57.0078 37.1836C57.0078 37.5894 57.1729 37.9875 57.4599 38.2743C57.7469 38.5615 58.145 38.7266 58.5508 38.7266C58.9566 38.7266 59.3547 38.5615 59.6417 38.2743C59.9287 37.9875 60.0938 37.5894 60.0938 37.1836C60.0938 36.7778 59.9287 36.3797 59.6417 36.0927Z" fill="#2B2B2B"/>
<path d="M52.849 35.6406H46.6504C45.7982 35.6406 45.1074 36.3316 45.1074 37.1836C45.1074 38.0356 45.7982 38.7266 46.6504 38.7266H52.849C53.7011 38.7266 54.3919 38.0356 54.3919 37.1836C54.3919 36.3316 53.7011 35.6406 52.849 35.6406Z" fill="#2B2B2B"/>
<path d="M54.0866 44.2812H46.6504C45.7982 44.2812 45.1074 44.9722 45.1074 45.8242C45.1074 46.6762 45.7982 47.3672 46.6504 47.3672H54.0866C54.9388 47.3672 55.6295 46.6762 55.6295 45.8242C55.6295 44.9722 54.9388 44.2812 54.0866 44.2812Z" fill="#2B2B2B"/>
<path d="M106.404 59.112C106.405 59.1115 106.405 59.1112 106.405 59.1107L96.2214 51.1803C96.2142 51.1748 96.2065 51.1703 96.1992 51.1647V49.5273C96.1992 48.6753 95.5084 47.9844 94.6562 47.9844C93.8041 47.9844 93.1133 48.6753 93.1133 49.5273V70.4603C93.1133 70.4697 93.1145 70.4789 93.1147 70.4883L80.3474 83.2556L78.8691 81.9127C76.5586 79.8137 73.7432 78.4143 70.7259 77.8297L74.732 73.8235C75.3346 73.221 75.3346 72.244 74.732 71.6413L69.5492 66.4583L92.1358 56.829C92.6072 56.6279 92.9482 56.2059 93.0455 55.7028C93.1429 55.1996 92.9841 54.6809 92.6217 54.3184L85.2465 46.943C85.8707 45.9242 86.2054 44.7509 86.2054 43.5258C86.2054 41.7739 85.5233 40.1271 84.2846 38.8883C83.0459 37.6496 81.3989 36.9674 79.647 36.9674C78.4219 36.9674 77.2486 37.3021 76.2298 37.9264L68.8544 30.551C68.4918 30.1884 67.9734 30.0292 67.4698 30.1273C66.9664 30.2248 66.5446 30.566 66.3437 31.0375L55.9455 55.4588L50.3488 61.0553C48.7762 62.6279 47.91 64.719 47.91 66.943C47.91 69.167 48.7762 71.2579 50.3488 72.8305C51.9214 74.4031 54.0124 75.2693 56.2365 75.2693C58.4605 75.2693 60.5514 74.4032 62.124 72.8305L62.7125 72.242L67.9978 77.5273C67.832 77.5225 67.666 77.5191 67.4997 77.5191C63.2866 77.5191 59.249 79.0792 56.1305 81.9123L54.6522 83.2551L41.8849 70.4878C41.885 70.4784 41.8863 70.4693 41.8863 70.4597V30.0859H59.1655C60.0177 30.0859 60.7085 29.395 60.7085 28.543C60.7085 27.6909 60.0177 27 59.1655 27H40.3438C39.4916 27 38.8008 27.6909 38.8008 28.543V50.9182C38.7875 50.9282 38.7735 50.9368 38.7605 50.9473L28.5769 59.1251C28.5771 59.1254 28.5771 59.1255 28.5772 59.1258C28.2256 59.4087 28 59.8418 28 60.3281V98.1309C28 102.47 31.53 106 35.8691 106H99.1309C103.47 106 107 102.47 107 98.1309V60.3281C107 59.8334 106.766 59.3943 106.404 59.112ZM96.1992 55.0742L103.131 60.4721L96.1992 67.4037V55.0742ZM79.6472 40.0537C80.5747 40.0537 81.4467 40.4149 82.1027 41.0708C82.7584 41.7266 83.1196 42.5985 83.1196 43.5261C83.1196 43.9088 83.0548 44.2808 82.9365 44.6334L78.5399 40.2367C78.8925 40.1183 79.2645 40.0537 79.6472 40.0537ZM68.2881 34.349L75.0078 41.0686C75.0084 41.0693 75.009 41.07 75.0096 41.0708C75.0102 41.0716 75.011 41.072 75.0118 41.0726L82.1025 48.1634C82.1025 48.1635 82.1027 48.1635 82.1027 48.1637C82.1027 48.1638 82.1028 48.1638 82.103 48.1638L88.8251 54.8859L85.5493 56.2825L66.8928 37.626L68.2881 34.349ZM65.5895 40.6871L82.4893 57.5869L67.1979 64.1062L59.0762 55.9845L65.5895 40.6871ZM59.9422 70.6487C58.9526 71.6385 57.6366 72.1837 56.2368 72.1837C54.837 72.1837 53.521 71.6385 52.5312 70.6487C51.5414 69.6591 50.9963 68.3431 50.9963 66.9433C50.9963 65.5435 51.5414 64.2275 52.5312 63.2377L57.2482 58.5207L64.6589 65.9322L59.9422 70.6487ZM64.8949 70.0602L66.8408 68.1144L71.4589 72.7325L69.513 74.6784L64.8949 70.0602ZM38.8008 54.8727V67.4039L31.8508 60.4539L38.8008 54.8727ZM33.7601 102.235C33.7164 102.275 33.6761 102.317 33.638 102.36C32.1217 101.557 31.0859 99.963 31.0859 98.1309V64.0533L52.3658 85.333L33.7601 102.235ZM37.6019 102.914L42.6974 98.2852H54.0232C54.8754 98.2852 55.5662 97.5942 55.5662 96.7422C55.5662 95.8902 54.8754 95.1992 54.0232 95.1992H46.0944L58.2059 84.1966C63.5045 79.3833 71.4957 79.3833 76.7942 84.1966L97.3981 102.914H37.6019ZM103.914 98.1309C103.914 99.963 102.878 101.557 101.362 102.36C101.324 102.317 101.284 102.275 101.24 102.235L82.6344 85.333L103.914 64.0533V98.1309Z" fill="#2B2B2B"/>
<path d="M95.8084 27.5129C95.2058 26.9105 94.2288 26.9105 93.6263 27.5129L87.3933 33.7459C86.7908 34.3484 86.7908 35.3254 87.3933 35.9281C87.6946 36.2293 88.0895 36.38 88.4843 36.38C88.8792 36.38 89.2742 36.2293 89.5754 35.9281L95.8084 29.6951C96.4109 29.0926 96.4109 28.1156 95.8084 27.5129Z" fill="#2B2B2B"/>
<path d="M82.6846 27C81.8324 27 81.1416 27.6909 81.1416 28.543V31.6423C81.1416 32.4944 81.8324 33.1853 82.6846 33.1853C83.5368 33.1853 84.2275 32.4944 84.2275 31.6423V28.543C84.2275 27.6909 83.5368 27 82.6846 27Z" fill="#2B2B2B"/>
<path d="M94.7626 38.9612H91.5596C90.7074 38.9612 90.0166 39.6522 90.0166 40.5042C90.0166 41.3562 90.7074 42.0472 91.5596 42.0472H94.7626C95.6148 42.0472 96.3056 41.3562 96.3056 40.5042C96.3056 39.6522 95.6148 38.9612 94.7626 38.9612Z" fill="#2B2B2B"/>
<path d="M61.4405 95.6513C61.152 95.3643 60.7554 95.1992 60.3496 95.1992C59.9423 95.1992 59.5457 95.3642 59.2572 95.6513C58.9702 95.9383 58.8066 96.3364 58.8066 96.7422C58.8066 97.148 58.9702 97.5461 59.2572 97.8329C59.5457 98.1201 59.9438 98.2852 60.3496 98.2852C60.7554 98.2852 61.152 98.1201 61.4405 97.8329C61.7275 97.5461 61.8926 97.148 61.8926 96.7422C61.8926 96.3364 61.7275 95.9383 61.4405 95.6513Z" fill="#2B2B2B"/>
</svg>
