<svg width="107" height="106" viewBox="0 0 107 106" fill="none" xmlns="http://www.w3.org/2000/svg">
<path d="M46 92C71.4051 92 92 71.4051 92 46C92 20.5949 71.4051 0 46 0C20.5949 0 0 20.5949 0 46C0 71.4051 20.5949 92 46 92Z" fill="#F7A837"/>
<path d="M103.382 103.686H90.7668V88.2069C90.7668 86.0644 89.0237 84.3213 86.8812 84.3213H64.2598C63.6206 84.3213 63.1026 84.8393 63.1026 85.4785C63.1026 86.1178 63.6206 86.6357 64.2598 86.6357H86.8812C87.7474 86.6357 88.4524 87.3406 88.4524 88.2069V103.686H55.7945V102.22C57.9602 102.313 59.969 100.875 60.4493 98.7314C61.4876 98.5334 62.4248 98.0477 63.1739 97.3594H81.7784C82.4177 97.3594 82.9356 96.8414 82.9356 96.2021C82.9356 95.5629 82.4177 95.0449 81.7784 95.0449H64.6852C64.9101 94.3851 65.0128 93.6345 64.9736 92.9352H81.7784C82.4177 92.9352 82.9356 92.4172 82.9356 91.778C82.9356 91.1387 82.4177 90.6208 81.7784 90.6208H64.3233C63.5502 89.1798 62.1633 88.1153 60.5141 87.7805C60.0171 81.6421 55.0136 76.5876 48.8795 76.0428V74.4764C50.009 74.0175 50.8082 72.91 50.8082 71.6176C50.8082 70.3252 50.009 69.2176 48.8794 68.7588V40.2506C48.8794 38.2078 50.5413 36.5459 52.584 36.5459H91.6627C93.7054 36.5459 95.3673 38.2078 95.3673 40.2506V99.4424C95.3673 100.082 95.8853 100.6 96.5246 100.6C97.1638 100.6 97.6818 100.082 97.6818 99.4424V33.0191C97.6818 29.7002 94.9816 27 91.6627 27H61.0196C60.3804 27 59.8624 27.518 59.8624 28.1572C59.8624 28.7965 60.3804 29.3145 61.0196 29.3145H91.6627C93.7054 29.3145 95.3673 30.9764 95.3673 33.0191V35.5119C94.345 34.711 93.0592 34.2316 91.6627 34.2316H52.584C51.1875 34.2316 49.9018 34.711 48.8794 35.5119V33.0191C48.8794 30.9764 50.5413 29.3145 52.584 29.3145H55.5367C56.1759 29.3145 56.6939 28.7965 56.6939 28.1572C56.6939 27.518 56.1759 27 55.5367 27H52.584C49.2651 27 46.5649 29.7002 46.5649 33.0191V68.7589C45.4355 69.2178 44.6364 70.3253 44.6364 71.6176C44.6364 72.9098 45.4356 74.0173 46.5651 74.4764V76.0422C40.4322 76.5963 35.4272 81.6447 34.9288 87.7808C32.3832 88.2983 30.4614 90.554 30.4614 93.2501C30.4614 95.969 32.4161 98.2389 34.9937 98.7312C35.4406 100.725 37.2235 102.22 39.3503 102.22H46.5651V103.686H40.8654C40.2261 103.686 39.7081 104.204 39.7081 104.843C39.7081 105.482 40.2261 106 40.8654 106H103.382C104.021 106 104.539 105.482 104.539 104.843C104.539 104.204 104.021 103.686 103.382 103.686ZM37.2047 88.4878V88.4873H58.2383V88.4879C58.2418 88.6009 58.2437 95.0449 58.2437 95.0449H37.1999C37.1999 95.0449 37.2013 88.5976 37.2047 88.4878ZM60.559 90.1949C61.7909 90.6629 62.6687 91.8559 62.6687 93.25C62.6687 94.6441 61.7911 95.8371 60.559 96.3052V90.1949ZM46.9508 71.6176C46.9508 71.1922 47.2969 70.8461 47.7223 70.8461C48.1477 70.8461 48.4938 71.1922 48.4938 71.6176C48.4938 72.043 48.1477 72.389 47.7223 72.389C47.2969 72.389 46.9508 72.043 46.9508 71.6176ZM47.7223 78.3037C52.452 78.3037 56.7082 81.5981 57.9039 86.1729H37.5393C38.7253 81.6058 42.8902 78.3037 47.7223 78.3037ZM32.7759 93.25C32.7759 91.8561 33.6534 90.6635 34.8848 90.1952V96.2021V96.3049C33.6534 95.8366 32.7759 94.6439 32.7759 93.25ZM37.1993 97.7545C37.1999 97.6229 37.2 97.4911 37.1999 97.3594H58.2438C58.3717 98.6515 57.4674 99.9053 56.0945 99.9053H39.3503C38.1642 99.9053 37.1993 98.9405 37.1993 97.7545ZM48.8794 102.22H53.4799V103.686H48.8794V102.22Z" fill="#2A2A2A"/>
<path d="M40.5894 94.0293C41.2286 94.0293 41.7466 93.5113 41.7466 92.8721C41.7466 92.2904 42.2197 91.8173 42.8014 91.8173C43.3831 91.8173 43.8561 92.2904 43.8561 92.8721C43.8561 93.5113 44.3741 94.0293 45.0134 94.0293C45.6526 94.0293 46.1706 93.5113 46.1706 92.8721C46.1706 91.0144 44.6591 89.5029 42.8014 89.5029C40.9436 89.5029 39.4321 91.0144 39.4321 92.8721C39.4321 93.5113 39.9501 94.0293 40.5894 94.0293Z" fill="#2A2A2A"/>
<path d="M50.4292 94.0293C51.0685 94.0293 51.5864 93.5113 51.5864 92.8721C51.5864 92.2904 52.0595 91.8173 52.6412 91.8173C53.2229 91.8173 53.696 92.2904 53.696 92.8721C53.696 93.5113 54.2139 94.0293 54.8532 94.0293C55.4925 94.0293 56.0104 93.5113 56.0104 92.8721C56.0104 91.0144 54.4989 89.5029 52.6412 89.5029C50.7835 89.5029 49.272 91.0144 49.272 92.8721C49.272 93.5113 49.7901 94.0293 50.4292 94.0293Z" fill="#2A2A2A"/>
<path d="M61.7506 81.3823C62.1442 81.5857 62.5354 81.5761 62.9239 81.3535L72.4539 75.4285H84.806C88.0928 75.4285 90.7669 72.7543 90.7669 69.4675C90.7669 66.1807 88.0928 63.5067 84.806 63.5067H59.4409C56.1541 63.5067 53.48 66.1807 53.48 69.4675C53.48 72.7543 56.1541 75.4285 59.4409 75.4285H61.1556V80.3707C61.1556 80.791 61.3834 81.1782 61.7506 81.3823ZM59.4409 73.114C57.4303 73.114 55.7944 71.4782 55.7944 69.4675C55.7944 67.457 57.4303 65.8212 59.4409 65.8212H84.806C86.8166 65.8212 88.4525 67.457 88.4525 69.4675C88.4525 71.4782 86.8166 73.114 84.806 73.114H72.1235C71.9077 73.114 71.696 73.1745 71.5125 73.2885L63.4702 78.2887V74.2712C63.4702 73.632 62.9523 73.114 62.313 73.114H59.4409Z" fill="#2A2A2A"/>
<path d="M84.8058 41.5082H59.4409C56.1541 41.5082 53.48 44.1823 53.48 47.4691C53.48 50.756 56.1541 53.4301 59.4409 53.4301H71.793L81.323 59.3551C82.0818 59.8272 83.0913 59.2636 83.0913 58.3724V53.4301H84.806C88.0928 53.4301 90.7669 50.756 90.7669 47.4691C90.7669 44.1823 88.0926 41.5082 84.8058 41.5082ZM84.8058 51.1156H81.9339C81.2946 51.1156 80.7766 51.6336 80.7766 52.2729V56.2903L72.7344 51.2901C72.5511 51.1761 72.3392 51.1156 72.1234 51.1156H59.4409C57.4303 51.1156 55.7944 49.4798 55.7944 47.4691C55.7944 45.4585 57.4303 43.8226 59.4409 43.8226H84.806C86.8166 43.8226 88.4525 45.4585 88.4525 47.4691C88.4525 49.4798 86.8164 51.1156 84.8058 51.1156Z" fill="#2A2A2A"/>
<path d="M74.5753 46.42H59.4019C58.7626 46.42 58.2446 46.938 58.2446 47.5773C58.2446 48.2165 58.7626 48.7345 59.4019 48.7345H74.5753C75.2145 48.7345 75.7325 48.2165 75.7325 47.5773C75.7325 46.938 75.2144 46.42 74.5753 46.42Z" fill="#2A2A2A"/>
<path d="M69.0193 69.4347C69.0193 68.7954 68.5014 68.2775 67.8621 68.2775H59.4019C58.7626 68.2775 58.2446 68.7954 58.2446 69.4347C58.2446 70.0739 58.7626 70.5919 59.4019 70.5919H67.8621C68.5012 70.5919 69.0193 70.0738 69.0193 69.4347Z" fill="#2A2A2A"/>
<path d="M72.9448 70.5919H84.7325C85.3717 70.5919 85.8897 70.0739 85.8897 69.4347C85.8897 68.7954 85.3717 68.2775 84.7325 68.2775H72.9448C72.3056 68.2775 71.7876 68.7954 71.7876 69.4347C71.7876 70.0739 72.3057 70.5919 72.9448 70.5919Z" fill="#2A2A2A"/>
<path d="M84.7322 46.42H79.1284C78.4892 46.42 77.9712 46.938 77.9712 47.5773C77.9712 48.2165 78.4892 48.7345 79.1284 48.7345H84.7322C85.3714 48.7345 85.8894 48.2165 85.8894 47.5773C85.8894 46.938 85.3713 46.42 84.7322 46.42Z" fill="#2A2A2A"/>
<path d="M62.6963 99.469C62.057 99.469 61.5391 99.987 61.5391 100.626C61.5391 101.265 62.057 101.783 62.6963 101.783H74.9286C75.5679 101.783 76.0859 101.265 76.0859 100.626C76.0859 99.987 75.5679 99.469 74.9286 99.469H62.6963Z" fill="#2A2A2A"/>
</svg>
