<svg width="22" height="22" viewBox="0 0 22 22" fill="none" xmlns="http://www.w3.org/2000/svg">
<path d="M16.5 2.26875C14.8844 1.27187 13.0281 0.6875 11 0.6875V2.26875H16.5Z" fill="#ED4C5C"/>
<path d="M11 3.85005H18.425C17.8406 3.26567 17.1875 2.71567 16.5 2.2688H11V3.85005Z" fill="#FCFAF9"/>
<path d="M11 5.43135H19.6969C19.3187 4.84697 18.9063 4.33135 18.4594 3.8501H11V5.43135Z" fill="#ED4C5C"/>
<path d="M11 7.0124H20.5219C20.2813 6.4624 20.0062 5.9124 19.6969 5.43115H11V7.0124Z" fill="#FCFAF9"/>
<path d="M11 8.5937H21.0375C20.9 8.0437 20.7281 7.52808 20.5219 7.01245H11V8.5937Z" fill="#ED4C5C"/>
<path d="M11 10.2094H21.2781C21.2438 9.65942 21.1406 9.1438 21.0375 8.62817H11V10.2094Z" fill="#FCFAF9"/>
<path d="M21.2781 10.2095H11V11.0001H0.6875C0.6875 11.2751 0.6875 11.5157 0.721875 11.7907H21.2781C21.3125 11.5157 21.3125 11.2751 21.3125 11.0001C21.3125 10.7251 21.3125 10.4501 21.2781 10.2095Z" fill="#ED4C5C"/>
<path d="M0.962518 13.3718H21.0375C21.175 12.8562 21.2438 12.3405 21.2781 11.7905H0.721893C0.756268 12.3062 0.859393 12.8562 0.962518 13.3718Z" fill="#FCFAF9"/>
<path d="M1.47813 14.9531H20.5219C20.7281 14.4375 20.9 13.9218 21.0375 13.3718H0.962509C1.10001 13.9218 1.27188 14.4375 1.47813 14.9531Z" fill="#ED4C5C"/>
<path d="M2.30313 16.5344H19.6969C20.0063 16.0187 20.2813 15.5031 20.5219 14.9531H1.47813C1.71876 15.5031 1.99376 16.0187 2.30313 16.5344Z" fill="#FCFAF9"/>
<path d="M3.54062 18.1157H18.4594C18.9062 17.6344 19.3531 17.0844 19.6969 16.5344H2.30312C2.64687 17.1188 3.09374 17.6344 3.54062 18.1157Z" fill="#ED4C5C"/>
<path d="M5.46563 19.697H16.5344C17.2563 19.2501 17.875 18.7001 18.4594 18.1157H3.54063C4.12501 18.7345 4.77813 19.2501 5.46563 19.697Z" fill="#FCFAF9"/>
<path d="M11 21.3124C13.0281 21.3124 14.9187 20.728 16.5344 19.6968H5.46561C7.08123 20.728 8.97186 21.3124 11 21.3124Z" fill="#ED4C5C"/>
<path d="M5.5 2.26875C4.77813 2.71562 4.125 3.26562 3.54063 3.85C3.05938 4.33125 2.64687 4.88125 2.30312 5.43125C1.99375 5.94688 1.68438 6.4625 1.47813 7.0125C1.27188 7.52812 1.1 8.04375 0.9625 8.59375C0.825 9.10938 0.75625 9.625 0.721875 10.175C0.6875 10.45 0.6875 10.725 0.6875 11H11V0.6875C8.97187 0.6875 7.11562 1.27187 5.5 2.26875Z" fill="#428BC1"/>
<path d="M8.59375 1.03125L8.76562 1.54688H9.28125L8.86875 1.89062L9.00625 2.40625L8.59375 2.09687L8.18125 2.40625L8.31875 1.89062L7.90625 1.54688H8.42187L8.59375 1.03125Z" fill="#FCFAF9"/>
<path d="M9.96875 3.09375L10.1406 3.60938H10.6562L10.2437 3.95312L10.3813 4.46875L9.96875 4.15938L9.55625 4.46875L9.69375 3.95312L9.28125 3.60938H9.79688L9.96875 3.09375Z" fill="#FCFAF9"/>
<path d="M7.21875 3.09375L7.39062 3.60938H7.90625L7.49375 3.95312L7.63125 4.46875L7.21875 4.15938L6.80625 4.46875L6.94375 3.95312L6.53125 3.60938H7.04688L7.21875 3.09375Z" fill="#FCFAF9"/>
<path d="M8.59375 5.15625L8.76562 5.67188H9.28125L8.86875 6.01562L9.00625 6.53125L8.59375 6.22188L8.18125 6.53125L8.31875 6.01562L7.90625 5.67188H8.42187L8.59375 5.15625Z" fill="#FCFAF9"/>
<path d="M5.84375 5.15625L6.01562 5.67188H6.53125L6.11875 6.01562L6.25625 6.53125L5.84375 6.22188L5.43125 6.53125L5.56875 6.01562L5.15625 5.67188H5.67188L5.84375 5.15625Z" fill="#FCFAF9"/>
<path d="M3.09375 5.15625L3.26562 5.67188H3.78125L3.36875 6.01562L3.50625 6.53125L3.09375 6.22188L2.68125 6.53125L2.81875 6.01562L2.40625 5.67188H2.92188L3.09375 5.15625Z" fill="#FCFAF9"/>
<path d="M9.96875 7.21875L10.1406 7.73438H10.6562L10.2437 8.07812L10.3813 8.59375L9.96875 8.28438L9.55625 8.59375L9.69375 8.07812L9.28125 7.73438H9.79688L9.96875 7.21875Z" fill="#FCFAF9"/>
<path d="M7.21875 7.21875L7.39062 7.73438H7.90625L7.49375 8.07812L7.63125 8.59375L7.21875 8.28438L6.80625 8.59375L6.94375 8.07812L6.53125 7.73438H7.04688L7.21875 7.21875Z" fill="#FCFAF9"/>
<path d="M4.46875 7.21875L4.64062 7.73438H5.15625L4.74375 8.07812L4.88125 8.59375L4.46875 8.28438L4.05625 8.59375L4.19375 8.07812L3.78125 7.73438H4.29688L4.46875 7.21875Z" fill="#FCFAF9"/>
<path d="M8.59375 9.28125L8.76562 9.79688H9.28125L8.86875 10.1406L9.00625 10.6562L8.59375 10.3469L8.18125 10.6562L8.31875 10.1406L7.90625 9.79688H8.42187L8.59375 9.28125Z" fill="#FCFAF9"/>
<path d="M5.84375 9.28125L6.01562 9.79688H6.53125L6.11875 10.1406L6.25625 10.6562L5.84375 10.3469L5.43125 10.6562L5.56875 10.1406L5.15625 9.79688H5.67188L5.84375 9.28125Z" fill="#FCFAF9"/>
<path d="M3.09375 9.28125L3.26562 9.79688H3.78125L3.36875 10.1406L3.50625 10.6562L3.09375 10.3469L2.68125 10.6562L2.81875 10.1406L2.40625 9.79688H2.92188L3.09375 9.28125Z" fill="#FCFAF9"/>
<path d="M4.05622 4.46875L4.46872 4.15938L4.88122 4.46875L4.70935 3.95312L5.12185 3.60938H4.60622L4.46872 3.09375L4.29685 3.60938H3.8156L4.2281 3.91875L4.05622 4.46875Z" fill="#FCFAF9"/>
<path d="M1.30623 8.59375L1.71873 8.28438L2.13123 8.59375L1.95936 8.07812L2.37186 7.73438H1.89061L1.71873 7.21875L1.54686 7.73438H1.20311C1.20311 7.76875 1.16873 7.80312 1.16873 7.8375L1.44373 8.04375L1.30623 8.59375Z" fill="#FCFAF9"/>
</svg>
