<svg width="40" height="40" viewBox="0 0 40 40" fill="none" xmlns="http://www.w3.org/2000/svg">
<path d="M20 40C31.0457 40 40 31.0457 40 20C40 8.9543 31.0457 0 20 0C8.9543 0 0 8.9543 0 20C0 31.0457 8.9543 40 20 40Z" fill="#43BD09"/>
<path fill-rule="evenodd" clip-rule="evenodd" d="M25.5687 14.4638C24.8456 13.7359 23.9851 13.1587 23.0373 12.7657C22.0895 12.3727 21.0731 12.1717 20.047 12.1743C15.7444 12.1743 12.2418 15.676 12.24 19.9804C12.24 21.356 12.5992 22.6986 13.2818 23.883L12.1748 27.9273L16.3131 26.8412C17.4578 27.4644 18.7402 27.7911 20.0435 27.7917H20.047C24.3487 27.7917 27.8513 24.2899 27.8531 19.9856C27.856 18.9599 27.6557 17.9438 27.2636 16.9961C26.8715 16.0483 26.2954 15.1876 25.5687 14.4638ZM20.047 26.4743H20.0444C18.8822 26.4744 17.7415 26.1617 16.7418 25.5691L16.5053 25.4282L14.0496 26.0725L14.7044 23.6786L14.5505 23.4334C13.9007 22.399 13.5568 21.2019 13.5583 19.9804C13.56 16.403 16.4705 13.4925 20.0496 13.4925C20.902 13.4906 21.7463 13.6578 22.5337 13.9844C23.321 14.311 24.0358 14.7905 24.6366 15.3951C25.2406 15.9969 25.7193 16.7124 26.0452 17.5004C26.371 18.2883 26.5374 19.133 26.5348 19.9856C26.5331 23.563 23.6227 26.4743 20.047 26.4743ZM23.6061 21.6143C23.4105 21.516 22.4522 21.0447 22.2731 20.9795C22.0948 20.9143 21.9653 20.8821 21.8348 21.0769C21.7044 21.2717 21.3305 21.7108 21.2166 21.8412C21.1026 21.9717 20.9887 21.9873 20.794 21.8899C20.5992 21.7925 19.9705 21.5865 19.2253 20.9221C18.6453 20.4047 18.254 19.7665 18.14 19.5708C18.0261 19.3751 18.1279 19.2699 18.2261 19.1725C18.314 19.0856 18.4209 18.9447 18.5183 18.8308C18.6157 18.7169 18.6479 18.636 18.7131 18.5056C18.7783 18.3751 18.7461 18.2612 18.6966 18.1638C18.6479 18.0656 18.2574 17.1056 18.0948 16.7151C17.9374 16.3369 17.7766 16.3873 17.6566 16.3821C17.5323 16.377 17.4079 16.3747 17.2835 16.3751C17.1846 16.3777 17.0873 16.4006 16.9977 16.4425C16.908 16.4844 16.828 16.5444 16.7626 16.6186C16.5835 16.8143 16.08 17.2856 16.08 18.2456C16.08 19.2056 16.7792 20.1334 16.8766 20.2638C16.974 20.3943 18.2522 22.3638 20.2087 23.2091C20.6748 23.4099 21.0383 23.5299 21.3209 23.6204C21.7879 23.7691 22.2131 23.7473 22.5496 23.6978C22.9244 23.6421 23.7035 23.2265 23.8661 22.7708C24.0287 22.3151 24.0287 21.9247 23.98 21.843C23.9313 21.7612 23.8 21.7117 23.6061 21.6143Z" fill="#FCFAF9"/>
</svg>
